Sudo-Regular.ufo
<glyph name="exclam" format="1">
  <advance width="448"/>
  <unicode hex="0021"/>
  <outline>
    <contour>
      <point x="160" y="54" type="curve" smooth="yes"/>
      <point x="160" y="12"/>
      <point x="189" y="-10"/>
      <point x="224" y="-10" type="curve" smooth="yes"/>
      <point x="259" y="-10"/>
      <point x="288" y="12"/>
      <point x="288" y="54" type="curve" smooth="yes"/>
      <point x="288" y="95"/>
      <point x="259" y="118"/>
      <point x="224" y="118" type="curve" smooth="yes"/>
      <point x="189" y="118"/>
      <point x="160" y="95"/>
    </contour>
    <contour>
      <point x="192" y="192" type="line"/>
      <point x="256" y="192" type="line"/>
      <point x="270" y="640" type="line"/>
      <point x="178" y="640" type="line"/>
    </contour>
  </outline>
</glyph>
<glyph name="quotedbl" format="1">
  <advance width="448"/>
  <unicode hex="0022"/>
  <outline>
    <contour>
      <point x="190" y="640" type="line"/>
      <point x="98" y="640" type="line"/>
      <point x="108" y="384" type="line"/>
      <point x="180" y="384" type="line"/>
    </contour>
    <contour>
      <point x="350" y="640" type="line"/>
      <point x="258" y="640" type="line"/>
      <point x="268" y="384" type="line"/>
      <point x="340" y="384" type="line"/>
    </contour>
  </outline>
</glyph>
<glyph name="numbersign" format="1">
  <advance width="448"/>
  <unicode hex="0023"/>
  <outline>
    <contour>
      <point x="108" y="0" type="line"/>
      <point x="176" y="0" type="line"/>
      <point x="196" y="512" type="line"/>
      <point x="128" y="512" type="line"/>
    </contour>
    <contour>
      <point x="252" y="0" type="line"/>
      <point x="320" y="0" type="line"/>
      <point x="340" y="512" type="line"/>
      <point x="272" y="512" type="line"/>
    </contour>
    <contour>
      <point x="59" y="320" type="line"/>
      <point x="399" y="320" type="line"/>
      <point x="399" y="384" type="line"/>
      <point x="59" y="384" type="line"/>
    </contour>
    <contour>
      <point x="49" y="128" type="line"/>
      <point x="389" y="128" type="line"/>
      <point x="389" y="192" type="line"/>
      <point x="49" y="192" type="line"/>
    </contour>
  </outline>
</glyph>
<glyph name="dollar" format="1">
  <advance width="448"/>
  <unicode hex="0024"/>
  <outline>
    <contour>
      <point x="376" y="566" type="line"/>
      <point x="341" y="578"/>
      <point x="294" y="584"/>
      <point x="256" y="584" type="curve" smooth="yes"/>
      <point x="125" y="584"/>
      <point x="59" y="513"/>
      <point x="59" y="420" type="curve" smooth="yes"/>
      <point x="59" y="208"/>
      <point x="319" y="293"/>
      <point x="319" y="151" type="curve" smooth="yes"/>
      <point x="319" y="104"/>
      <point x="298" y="58"/>
      <point x="198" y="58" type="curve" smooth="yes"/>
      <point x="148" y="58"/>
      <point x="109" y="69"/>
      <point x="70" y="84" type="curve"/>
      <point x="51" y="18" type="line"/>
      <point x="96" y="1"/>
      <point x="149" y="-8"/>
      <point x="195" y="-8" type="curve" smooth="yes"/>
      <point x="324" y="-8"/>
      <point x="391" y="55"/>
      <point x="391" y="160" type="curve" smooth="yes"/>
      <point x="391" y="360"/>
      <point x="131" y="271"/>
      <point x="131" y="419" type="curve" smooth="yes"/>
      <point x="131" y="478"/>
      <point x="158" y="518"/>
      <point x="256" y="518" type="curve" smooth="yes"/>
      <point x="286" y="518"/>
      <point x="325" y="512"/>
      <point x="360" y="500" type="curve"/>
    </contour>
    <contour>
      <point x="192" y="-74" type="line"/>
      <point x="256" y="-74" type="line"/>
      <point x="256" y="650" type="line"/>
      <point x="192" y="650" type="line"/>
    </contour>
  </outline>
</glyph>
<glyph name="ampersand" format="1">
  <advance width="448"/>
  <unicode hex="0026"/>
  <outline>
    <contour>
      <point x="320" y="529" type="line"/>
      <point x="291" y="536"/>
      <point x="249" y="542"/>
      <point x="215" y="542" type="curve" smooth="yes"/>
      <point x="104" y="542"/>
      <point x="50" y="482"/>
      <point x="50" y="402" type="curve" smooth="yes"/>
      <point x="50" y="340"/>
      <point x="87" y="288"/>
      <point x="175" y="274" type="curve"/>
      <point x="175" y="306" type="line"/>
      <point x="63" y="277"/>
      <point x="35" y="203"/>
      <point x="35" y="145" type="curve" smooth="yes"/>
      <point x="35" y="64"/>
      <point x="79" y="-10"/>
      <point x="208" y="-10" type="curve" smooth="yes"/>
      <point x="255" y="-10"/>
      <point x="317" y="1"/>
      <point x="368" y="18" type="curve"/>
      <point x="368" y="288" type="line"/>
      <point x="296" y="288" type="line"/>
      <point x="296" y="26" type="line"/>
      <point x="351" y="82" type="line"/>
      <point x="306" y="62"/>
      <point x="254" y="54"/>
      <point x="204" y="54" type="curve" smooth="yes"/>
      <point x="124" y="54"/>
      <point x="108" y="103"/>
      <point x="108" y="147" type="curve" smooth="yes"/>
      <point x="108" y="199"/>
      <point x="133" y="256"/>
      <point x="238" y="256" type="curve" smooth="yes"/>
      <point x="428" y="256" type="line"/>
      <point x="428" y="320" type="line"/>
      <point x="226" y="320" type="line" smooth="yes"/>
      <point x="141" y="320"/>
      <point x="122" y="357"/>
      <point x="122" y="399" type="curve" smooth="yes"/>
      <point x="122" y="437"/>
      <point x="142" y="478"/>
      <point x="214" y="478" type="curve" smooth="yes"/>
      <point x="247" y="478"/>
      <point x="280" y="473"/>
      <point x="308" y="468" type="curve"/>
    </contour>
  </outline>
</glyph>
<glyph name="quotesingle" format="1">
  <advance width="448"/>
  <unicode hex="0027"/>
  <outline>
    <contour>
      <point x="270" y="640" type="line"/>
      <point x="178" y="640" type="line"/>
      <point x="188" y="384" type="line"/>
      <point x="260" y="384" type="line"/>
    </contour>
  </outline>
</glyph>
<glyph name="parenleft" format="1">
  <advance width="448"/>
  <unicode hex="0028"/>
  <outline>
    <contour>
      <point x="301" y="723" type="line"/>
      <point x="209" y="613"/>
      <point x="154" y="481"/>
      <point x="154" y="320" type="curve" smooth="yes"/>
      <point x="154" y="159"/>
      <point x="210" y="26"/>
      <point x="302" y="-84" type="curve"/>
      <point x="351" y="-43" type="line"/>
      <point x="268" y="56"/>
      <point x="228" y="182"/>
      <point x="228" y="320" type="curve" smooth="yes"/>
      <point x="228" y="458"/>
      <point x="268" y="585"/>
      <point x="351" y="684" type="curve"/>
    </contour>
  </outline>
</glyph>
<glyph name="parenright" format="1">
  <advance width="448"/>
  <unicode hex="0029"/>
  <outline>
    <contour>
      <point x="97" y="684" type="line"/>
      <point x="180" y="585"/>
      <point x="220" y="458"/>
      <point x="220" y="320" type="curve" smooth="yes"/>
      <point x="220" y="182"/>
      <point x="180" y="56"/>
      <point x="97" y="-43" type="curve"/>
      <point x="146" y="-84" type="line"/>
      <point x="238" y="26"/>
      <point x="294" y="159"/>
      <point x="294" y="320" type="curve" smooth="yes"/>
      <point x="294" y="481"/>
      <point x="239" y="613"/>
      <point x="147" y="723" type="curve"/>
    </contour>
  </outline>
</glyph>
<glyph name="asterisk" format="1">
  <advance width="448"/>
  <unicode hex="002A"/>
  <outline>
    <contour>
      <point x="188" y="74" type="line"/>
      <point x="260" y="74" type="line"/>
      <point x="260" y="502" type="line"/>
      <point x="188" y="502" type="line"/>
    </contour>
    <contour>
      <point x="23" y="211" type="line"/>
      <point x="56" y="153" type="line"/>
      <point x="425" y="365" type="line"/>
      <point x="392" y="423" type="line"/>
    </contour>
    <contour>
      <point x="56" y="423" type="line"/>
      <point x="23" y="365" type="line"/>
      <point x="392" y="153" type="line"/>
      <point x="425" y="211" type="line"/>
    </contour>
  </outline>
</glyph>
<glyph name="plus" format="1">
  <advance width="448"/>
  <unicode hex="002B"/>
  <outline>
    <contour>
      <point x="429" y="320" type="line"/>
      <point x="258" y="320" type="line"/>
      <point x="258" y="493" type="line"/>
      <point x="190" y="493" type="line"/>
      <point x="190" y="320" type="line"/>
      <point x="19" y="320" type="line"/>
      <point x="19" y="256" type="line"/>
      <point x="190" y="256" type="line"/>
      <point x="190" y="78" type="line"/>
      <point x="258" y="78" type="line"/>
      <point x="258" y="256" type="line"/>
      <point x="429" y="256" type="line"/>
    </contour>
  </outline>
</glyph>
<glyph name="comma" format="1">
  <advance width="448"/>
  <unicode hex="002C"/>
  <outline>
    <contour>
      <point x="128" y="54" type="curve" smooth="yes"/>
      <point x="128" y="18"/>
      <point x="150" y="-8"/>
      <point x="189" y="-10" type="curve"/>
      <point x="183" y="-44"/>
      <point x="158" y="-69"/>
      <point x="134" y="-91" type="curve"/>
      <point x="172" y="-133" type="line"/>
      <point x="218" y="-94"/>
      <point x="258" y="-38"/>
      <point x="258" y="32" type="curve" smooth="yes"/>
      <point x="258" y="95"/>
      <point x="227" y="118"/>
      <point x="190" y="118" type="curve" smooth="yes"/>
      <point x="156" y="118"/>
      <point x="128" y="94"/>
    </contour>
  </outline>
</glyph>
<glyph name="period" format="1">
  <advance width="448"/>
  <unicode hex="002E"/>
  <outline>
    <contour>
      <point x="128" y="54" type="curve" smooth="yes"/>
      <point x="128" y="12"/>
      <point x="157" y="-10"/>
      <point x="192" y="-10" type="curve" smooth="yes"/>
      <point x="227" y="-10"/>
      <point x="256" y="12"/>
      <point x="256" y="54" type="curve" smooth="yes"/>
      <point x="256" y="95"/>
      <point x="227" y="118"/>
      <point x="192" y="118" type="curve" smooth="yes"/>
      <point x="157" y="118"/>
      <point x="128" y="95"/>
    </contour>
  </outline>
</glyph>
<glyph name="slash" format="1">
  <advance width="448"/>
  <unicode hex="002F"/>
  <outline>
    <contour>
      <point x="329" y="698" type="line"/>
      <point x="258" y="710" type="line"/>
      <point x="119" y="-57" type="line"/>
      <point x="190" y="-69" type="line"/>
    </contour>
  </outline>
</glyph>
<glyph name="zero" format="1">
  <advance width="448"/>
  <unicode hex="0030"/>
  <outline>
    <contour>
      <point x="40" y="287" type="curve" smooth="yes"/>
      <point x="40" y="112"/>
      <point x="101" y="-10"/>
      <point x="224" y="-10" type="curve" smooth="yes"/>
      <point x="350" y="-10"/>
      <point x="408" y="112"/>
      <point x="408" y="287" type="curve" smooth="yes"/>
      <point x="408" y="469"/>
      <point x="350" y="586"/>
      <point x="224" y="586" type="curve" smooth="yes"/>
      <point x="101" y="586"/>
      <point x="40" y="469"/>
    </contour>
    <contour>
      <point x="116" y="287" type="curve" smooth="yes"/>
      <point x="116" y="448"/>
      <point x="146" y="520"/>
      <point x="224" y="520" type="curve" smooth="yes"/>
      <point x="302" y="520"/>
      <point x="332" y="448"/>
      <point x="332" y="287" type="curve" smooth="yes"/>
      <point x="332" y="128"/>
      <point x="302" y="56"/>
      <point x="224" y="56" type="curve" smooth="yes"/>
      <point x="146" y="56"/>
      <point x="116" y="128"/>
    </contour>
  </outline>
</glyph>
<glyph name="one" format="1">
  <advance width="448"/>
  <unicode hex="0031"/>
  <outline>
    <contour>
      <point x="64" y="0" type="line"/>
      <point x="404" y="0" type="line"/>
      <point x="404" y="64" type="line"/>
      <point x="64" y="64" type="line"/>
    </contour>
    <contour>
      <point x="198" y="30" type="line"/>
      <point x="270" y="30" type="line"/>
      <point x="272" y="580" type="line"/>
      <point x="221" y="580" type="line"/>
      <point x="200" y="548" type="line"/>
    </contour>
    <contour>
      <point x="54" y="439" type="line"/>
      <point x="97" y="386" type="line"/>
      <point x="264" y="534" type="line"/>
      <point x="221" y="580" type="line"/>
    </contour>
  </outline>
</glyph>
<glyph name="two" format="1">
  <advance width="448"/>
  <unicode hex="0032"/>
  <outline>
    <contour>
      <point x="82" y="498" type="line"/>
      <point x="124" y="507"/>
      <point x="157" y="512"/>
      <point x="200" y="512" type="curve" smooth="yes"/>
      <point x="291" y="512"/>
      <point x="320" y="482"/>
      <point x="320" y="402" type="curve" smooth="yes"/>
      <point x="320" y="330"/>
      <point x="290" y="301"/>
      <point x="214" y="271" type="curve"/>
      <point x="144" y="245"/>
      <point x="67" y="209"/>
      <point x="61" y="82" type="curve" smooth="yes"/>
      <point x="57" y="0" type="line"/>
      <point x="388" y="0" type="line"/>
      <point x="388" y="64" type="line"/>
      <point x="134" y="64" type="line"/>
      <point x="135" y="85" type="line" smooth="yes"/>
      <point x="138" y="147"/>
      <point x="161" y="177"/>
      <point x="250" y="214" type="curve" smooth="yes"/>
      <point x="335" y="249"/>
      <point x="396" y="291"/>
      <point x="396" y="408" type="curve" smooth="yes"/>
      <point x="396" y="534"/>
      <point x="312" y="576"/>
      <point x="205" y="576" type="curve" smooth="yes"/>
      <point x="151" y="576"/>
      <point x="106" y="570"/>
      <point x="68" y="560" type="curve"/>
    </contour>
  </outline>
</glyph>
<glyph name="three" format="1">
  <advance width="448"/>
  <unicode hex="0033"/>
  <outline>
    <contour>
      <point x="122" y="266" type="line"/>
      <point x="273" y="249"/>
      <point x="315" y="223"/>
      <point x="315" y="167" type="curve" smooth="yes"/>
      <point x="315" y="112"/>
      <point x="283" y="79"/>
      <point x="56" y="57" type="curve"/>
      <point x="62" y="-9" type="line"/>
      <point x="281" y="6"/>
      <point x="391" y="53"/>
      <point x="391" y="166" type="curve" smooth="yes"/>
      <point x="391" y="265"/>
      <point x="300" y="314"/>
      <point x="129" y="329" type="curve"/>
    </contour>
    <contour>
      <point x="96" y="512" type="line"/>
      <point x="123" y="516"/>
      <point x="148" y="519"/>
      <point x="173" y="519" type="curve" smooth="yes"/>
      <point x="288" y="519"/>
      <point x="300" y="471"/>
      <point x="300" y="432" type="curve" smooth="yes"/>
      <point x="300" y="384"/>
      <point x="281" y="336"/>
      <point x="254" y="291" type="curve"/>
      <point x="316" y="267" type="line"/>
      <point x="346" y="316"/>
      <point x="374" y="376"/>
      <point x="374" y="440" type="curve" smooth="yes"/>
      <point x="374" y="536"/>
      <point x="311" y="582"/>
      <point x="188" y="582" type="curve" smooth="yes"/>
      <point x="153" y="582"/>
      <point x="111" y="577"/>
      <point x="87" y="572" type="curve"/>
    </contour>
  </outline>
</glyph>
<glyph name="four" format="1">
  <advance width="448"/>
  <unicode hex="0034"/>
  <outline>
    <contour>
      <point x="267" y="0" type="line"/>
      <point x="339" y="0" type="line"/>
      <point x="339" y="592" type="line"/>
      <point x="267" y="518" type="line"/>
    </contour>
    <contour>
      <point x="41" y="128" type="curve"/>
      <point x="423" y="128" type="line"/>
      <point x="423" y="192" type="line"/>
      <point x="118" y="192" type="line"/>
      <point x="137" y="369"/>
      <point x="194" y="481"/>
      <point x="320" y="515" type="curve"/>
      <point x="339" y="592" type="line"/>
      <point x="145" y="548"/>
      <point x="53" y="400"/>
    </contour>
  </outline>
</glyph>
<glyph name="five" format="1">
  <advance width="448"/>
  <unicode hex="0035"/>
  <outline>
    <contour>
      <point x="53" y="22" type="line"/>
      <point x="107" y="8"/>
      <point x="155" y="0"/>
      <point x="213" y="0" type="curve" smooth="yes"/>
      <point x="320" y="0"/>
      <point x="396" y="43"/>
      <point x="396" y="168" type="curve" smooth="yes"/>
      <point x="396" y="285"/>
      <point x="320" y="325"/>
      <point x="236" y="325" type="curve" smooth="yes"/>
      <point x="192" y="325"/>
      <point x="161" y="320"/>
      <point x="138" y="315" type="curve"/>
      <point x="140" y="262" type="line"/>
      <point x="153" y="571" type="line"/>
      <point x="140" y="512" type="line"/>
      <point x="374" y="512" type="line"/>
      <point x="374" y="576" type="line"/>
      <point x="81" y="576" type="line"/>
      <point x="68" y="271" type="line"/>
      <point x="92" y="248" type="line"/>
      <point x="140" y="256"/>
      <point x="175" y="261"/>
      <point x="216" y="261" type="curve" smooth="yes"/>
      <point x="297" y="261"/>
      <point x="320" y="236"/>
      <point x="320" y="164" type="curve" smooth="yes"/>
      <point x="320" y="94"/>
      <point x="288" y="64"/>
      <point x="209" y="64" type="curve" smooth="yes"/>
      <point x="164" y="64"/>
      <point x="123" y="71"/>
      <point x="68" y="84" type="curve"/>
    </contour>
  </outline>
</glyph>
<glyph name="six" format="1">
  <advance width="448"/>
  <unicode hex="0036"/>
  <outline>
    <contour>
      <point x="356" y="583" type="line"/>
      <point x="100" y="561"/>
      <point x="50" y="375"/>
      <point x="50" y="240" type="curve" smooth="yes"/>
      <point x="50" y="73"/>
      <point x="115" y="-8"/>
      <point x="226" y="-8" type="curve" smooth="yes"/>
      <point x="324" y="-8"/>
      <point x="395" y="58"/>
      <point x="395" y="162" type="curve" smooth="yes"/>
      <point x="395" y="275"/>
      <point x="328" y="328"/>
      <point x="235" y="328" type="curve" smooth="yes"/>
      <point x="174" y="328"/>
      <point x="124" y="309"/>
      <point x="86" y="288" type="curve"/>
      <point x="105" y="237" type="line"/>
      <point x="141" y="254"/>
      <point x="182" y="266"/>
      <point x="227" y="266" type="curve" smooth="yes"/>
      <point x="304" y="266"/>
      <point x="321" y="217"/>
      <point x="321" y="161" type="curve" smooth="yes"/>
      <point x="321" y="114"/>
      <point x="304" y="56"/>
      <point x="226" y="56" type="curve" smooth="yes"/>
      <point x="147" y="56"/>
      <point x="125" y="135"/>
      <point x="125" y="239" type="curve" smooth="yes"/>
      <point x="125" y="398"/>
      <point x="170" y="496"/>
      <point x="364" y="519" type="curve"/>
    </contour>
  </outline>
</glyph>
<glyph name="seven" format="1">
  <advance width="448"/>
  <unicode hex="0037"/>
  <outline>
    <contour>
      <point x="64" y="512" type="line"/>
      <point x="348" y="512" type="line"/>
      <point x="388" y="538" type="line"/>
      <point x="388" y="576" type="line"/>
      <point x="64" y="576" type="line"/>
    </contour>
    <contour>
      <point x="167" y="-16" type="line"/>
      <point x="271" y="102"/>
      <point x="358" y="234"/>
      <point x="380" y="460" type="curve" smooth="yes"/>
      <point x="388" y="538" type="line"/>
      <point x="317" y="576" type="line"/>
      <point x="309" y="478" type="line" smooth="yes"/>
      <point x="292" y="262"/>
      <point x="210" y="137"/>
      <point x="112" y="29" type="curve"/>
    </contour>
  </outline>
</glyph>
<glyph name="eight" format="1">
  <advance width="448"/>
  <unicode hex="0038"/>
  <outline>
    <contour>
      <point x="249" y="298" type="line"/>
      <point x="300" y="340"/>
      <point x="316" y="384"/>
      <point x="316" y="429" type="curve" smooth="yes"/>
      <point x="316" y="478"/>
      <point x="290" y="522"/>
      <point x="224" y="522" type="curve" smooth="yes"/>
      <point x="155" y="522"/>
      <point x="132" y="477"/>
      <point x="132" y="434" type="curve" smooth="yes"/>
      <point x="132" y="389"/>
      <point x="148" y="356"/>
      <point x="264" y="301" type="curve" smooth="yes"/>
      <point x="363" y="254"/>
      <point x="415" y="214"/>
      <point x="415" y="137" type="curve" smooth="yes"/>
      <point x="415" y="60"/>
      <point x="346" y="-11"/>
      <point x="224" y="-11" type="curve" smooth="yes"/>
      <point x="100" y="-11"/>
      <point x="32" y="60"/>
      <point x="32" y="152" type="curve" smooth="yes"/>
      <point x="32" y="223"/>
      <point x="76" y="277"/>
      <point x="133" y="312" type="curve"/>
      <point x="188" y="280" type="line"/>
      <point x="119" y="242"/>
      <point x="106" y="196"/>
      <point x="106" y="152" type="curve" smooth="yes"/>
      <point x="106" y="101"/>
      <point x="139" y="53"/>
      <point x="224" y="53" type="curve" smooth="yes"/>
      <point x="309" y="53"/>
      <point x="341" y="101"/>
      <point x="341" y="137" type="curve" smooth="yes"/>
      <point x="341" y="176"/>
      <point x="320" y="203"/>
      <point x="211" y="256" type="curve" smooth="yes"/>
      <point x="89" y="315"/>
      <point x="58" y="372"/>
      <point x="58" y="435" type="curve" smooth="yes"/>
      <point x="58" y="523"/>
      <point x="128" y="586"/>
      <point x="224" y="586" type="curve" smooth="yes"/>
      <point x="320" y="586"/>
      <point x="390" y="525"/>
      <point x="390" y="427" type="curve" smooth="yes"/>
      <point x="390" y="377"/>
      <point x="367" y="316"/>
      <point x="304" y="270" type="curve"/>
    </contour>
  </outline>
</glyph>
<glyph name="nine" format="1">
  <advance width="448"/>
  <unicode hex="0039"/>
  <outline>
    <contour>
      <point x="128" y="-10" type="line"/>
      <point x="336" y="60"/>
      <point x="387" y="185"/>
      <point x="387" y="338" type="curve" smooth="yes"/>
      <point x="387" y="502"/>
      <point x="312" y="585"/>
      <point x="206" y="585" type="curve" smooth="yes"/>
      <point x="111" y="585"/>
      <point x="41" y="514"/>
      <point x="41" y="411" type="curve" smooth="yes"/>
      <point x="41" y="316"/>
      <point x="91" y="239"/>
      <point x="206" y="239" type="curve" smooth="yes"/>
      <point x="263" y="239"/>
      <point x="309" y="261"/>
      <point x="349" y="292" type="curve"/>
      <point x="323" y="339" type="line"/>
      <point x="291" y="316"/>
      <point x="250" y="301"/>
      <point x="210" y="301" type="curve" smooth="yes"/>
      <point x="130" y="301"/>
      <point x="112" y="360"/>
      <point x="112" y="412" type="curve" smooth="yes"/>
      <point x="112" y="468"/>
      <point x="134" y="521"/>
      <point x="205" y="521" type="curve" smooth="yes"/>
      <point x="286" y="521"/>
      <point x="311" y="450"/>
      <point x="311" y="340" type="curve" smooth="yes"/>
      <point x="311" y="190"/>
      <point x="271" y="111"/>
      <point x="104" y="51" type="curve"/>
    </contour>
  </outline>
</glyph>
<glyph name="colon" format="1">
  <advance width="448"/>
  <unicode hex="003A"/>
  <outline>
    <contour>
      <point x="128" y="54" type="curve" smooth="yes"/>
      <point x="128" y="12"/>
      <point x="157" y="-10"/>
      <point x="192" y="-10" type="curve" smooth="yes"/>
      <point x="227" y="-10"/>
      <point x="256" y="12"/>
      <point x="256" y="54" type="curve" smooth="yes"/>
      <point x="256" y="95"/>
      <point x="227" y="118"/>
      <point x="192" y="118" type="curve" smooth="yes"/>
      <point x="157" y="118"/>
      <point x="128" y="95"/>
    </contour>
    <contour>
      <point x="128" y="394" type="curve" smooth="yes"/>
      <point x="128" y="352"/>
      <point x="157" y="330"/>
      <point x="192" y="330" type="curve" smooth="yes"/>
      <point x="227" y="330"/>
      <point x="256" y="352"/>
      <point x="256" y="394" type="curve" smooth="yes"/>
      <point x="256" y="435"/>
      <point x="227" y="458"/>
      <point x="192" y="458" type="curve" smooth="yes"/>
      <point x="157" y="458"/>
      <point x="128" y="435"/>
    </contour>
  </outline>
</glyph>
<glyph name="semicolon" format="1">
  <advance width="448"/>
  <unicode hex="003B"/>
  <outline>
    <contour>
      <point x="128" y="394" type="curve" smooth="yes"/>
      <point x="128" y="352"/>
      <point x="157" y="330"/>
      <point x="192" y="330" type="curve" smooth="yes"/>
      <point x="227" y="330"/>
      <point x="256" y="352"/>
      <point x="256" y="394" type="curve" smooth="yes"/>
      <point x="256" y="435"/>
      <point x="227" y="458"/>
      <point x="192" y="458" type="curve" smooth="yes"/>
      <point x="157" y="458"/>
      <point x="128" y="435"/>
    </contour>
    <contour>
      <point x="128" y="54" type="curve" smooth="yes"/>
      <point x="128" y="18"/>
      <point x="150" y="-8"/>
      <point x="189" y="-10" type="curve"/>
      <point x="183" y="-44"/>
      <point x="158" y="-69"/>
      <point x="134" y="-91" type="curve"/>
      <point x="172" y="-133" type="line"/>
      <point x="218" y="-94"/>
      <point x="258" y="-38"/>
      <point x="258" y="32" type="curve" smooth="yes"/>
      <point x="258" y="95"/>
      <point x="227" y="118"/>
      <point x="190" y="118" type="curve" smooth="yes"/>
      <point x="156" y="118"/>
      <point x="128" y="94"/>
    </contour>
  </outline>
</glyph>
<glyph name="less" format="1">
  <advance width="448"/>
  <unicode hex="003C"/>
  <outline>
    <contour>
      <point x="339" y="481" type="line"/>
      <point x="289" y="525" type="line"/>
      <point x="44" y="288" type="line"/>
      <point x="289" y="51" type="line"/>
      <point x="339" y="95" type="line"/>
      <point x="139" y="288" type="line"/>
    </contour>
  </outline>
</glyph>
<glyph name="equal" format="1">
  <advance width="448"/>
  <unicode hex="003D"/>
  <outline>
    <contour>
      <point x="416" y="240" type="line"/>
      <point x="32" y="240" type="line"/>
      <point x="32" y="176" type="line"/>
      <point x="416" y="176" type="line"/>
    </contour>
    <contour>
      <point x="416" y="400" type="line"/>
      <point x="32" y="400" type="line"/>
      <point x="32" y="336" type="line"/>
      <point x="416" y="336" type="line"/>
    </contour>
  </outline>
</glyph>
<glyph name="greater" format="1">
  <advance width="448"/>
  <unicode hex="003E"/>
  <outline>
    <contour>
      <point x="404" y="288" type="line"/>
      <point x="159" y="525" type="line"/>
      <point x="109" y="481" type="line"/>
      <point x="309" y="288" type="line"/>
      <point x="109" y="95" type="line"/>
      <point x="159" y="51" type="line"/>
    </contour>
  </outline>
</glyph>
<glyph name="question" format="1">
  <advance width="448"/>
  <unicode hex="003F"/>
  <outline>
    <contour>
      <point x="160" y="54" type="curve" smooth="yes"/>
      <point x="160" y="12"/>
      <point x="189" y="-10"/>
      <point x="224" y="-10" type="curve" smooth="yes"/>
      <point x="259" y="-10"/>
      <point x="288" y="12"/>
      <point x="288" y="54" type="curve" smooth="yes"/>
      <point x="288" y="95"/>
      <point x="259" y="118"/>
      <point x="224" y="118" type="curve" smooth="yes"/>
      <point x="189" y="118"/>
      <point x="160" y="95"/>
    </contour>
    <contour>
      <point x="93" y="581" type="line"/>
      <point x="301" y="571"/>
      <point x="316" y="525"/>
      <point x="316" y="488" type="curve" smooth="yes"/>
      <point x="316" y="393"/>
      <point x="189" y="392"/>
      <point x="185" y="195" type="curve"/>
      <point x="255" y="192" type="line"/>
      <point x="256" y="370"/>
      <point x="388" y="367"/>
      <point x="388" y="494" type="curve" smooth="yes"/>
      <point x="388" y="585"/>
      <point x="320" y="638"/>
      <point x="96" y="645" type="curve"/>
    </contour>
  </outline>
</glyph>
<glyph name="at" format="1">
  <advance width="448"/>
  <unicode hex="0040"/>
  <outline>
    <contour>
      <point x="388" y="382" type="line" smooth="yes"/>
      <point x="388" y="504"/>
      <point x="340" y="586"/>
      <point x="233" y="586" type="curve" smooth="yes"/>
      <point x="97" y="586"/>
      <point x="48" y="465"/>
      <point x="48" y="223" type="curve" smooth="yes"/>
      <point x="48" y="-21"/>
      <point x="105" y="-128"/>
      <point x="244" y="-128" type="curve" smooth="yes"/>
      <point x="274" y="-128"/>
      <point x="313" y="-121"/>
      <point x="345" y="-108" type="curve"/>
      <point x="329" y="-49" type="line"/>
      <point x="305" y="-57"/>
      <point x="277" y="-64"/>
      <point x="244" y="-64" type="curve" smooth="yes"/>
      <point x="163" y="-64"/>
      <point x="120" y="5"/>
      <point x="120" y="223" type="curve" smooth="yes"/>
      <point x="120" y="439"/>
      <point x="148" y="522"/>
      <point x="231" y="522" type="curve" smooth="yes"/>
      <point x="296" y="522"/>
      <point x="316" y="475"/>
      <point x="316" y="380" type="curve" smooth="yes"/>
      <point x="316" y="130" type="line"/>
      <point x="259" y="124"/>
      <point x="243" y="160"/>
      <point x="243" y="220" type="curve" smooth="yes"/>
      <point x="243" y="284"/>
      <point x="259" y="317"/>
      <point x="332" y="327" type="curve"/>
      <point x="332" y="391" type="line"/>
      <point x="215" y="376"/>
      <point x="169" y="315"/>
      <point x="169" y="219" type="curve" smooth="yes"/>
      <point x="169" y="120"/>
      <point x="219" y="64"/>
      <point x="306" y="64" type="curve" smooth="yes"/>
      <point x="330" y="64"/>
      <point x="365" y="67"/>
      <point x="388" y="74" type="curve"/>
    </contour>
  </outline>
</glyph>
<glyph name="A" format="1">
  <advance width="448"/>
  <unicode hex="0041"/>
  <outline>
    <contour>
      <point x="110" y="-2" type="line"/>
      <point x="131" y="237"/>
      <point x="175" y="439"/>
      <point x="235" y="577" type="curve"/>
      <point x="213" y="577" type="line"/>
      <point x="273" y="439"/>
      <point x="317" y="237"/>
      <point x="338" y="-2" type="curve"/>
      <point x="412" y="3" type="line"/>
      <point x="392" y="245"/>
      <point x="339" y="477"/>
      <point x="256" y="643" type="curve"/>
      <point x="192" y="643" type="line"/>
      <point x="109" y="477"/>
      <point x="56" y="245"/>
      <point x="36" y="3" type="curve"/>
    </contour>
    <contour>
      <point x="97" y="192" type="line"/>
      <point x="353" y="192" type="line"/>
      <point x="353" y="256" type="line"/>
      <point x="97" y="256" type="line"/>
    </contour>
    <contour>
      <point x="224" y="640" type="move" name="topUC"/>
    </contour>
  </outline>
</glyph>
<glyph name="B" format="1">
  <advance width="448"/>
  <unicode hex="0042"/>
  <outline>
    <contour>
      <point x="60" y="0" type="line"/>
      <point x="132" y="0" type="line"/>
      <point x="132" y="640" type="line"/>
      <point x="60" y="640" type="line"/>
    </contour>
    <contour>
      <point x="128" y="272" type="line"/>
      <point x="202" y="272" type="line" smooth="yes"/>
      <point x="301" y="272"/>
      <point x="335" y="232"/>
      <point x="335" y="170" type="curve" smooth="yes"/>
      <point x="335" y="100"/>
      <point x="302" y="64"/>
      <point x="202" y="64" type="curve" smooth="yes"/>
      <point x="128" y="64" type="line"/>
      <point x="128" y="0" type="line"/>
      <point x="212" y="0" type="line" smooth="yes"/>
      <point x="331" y="0"/>
      <point x="411" y="59"/>
      <point x="411" y="168" type="curve" smooth="yes"/>
      <point x="411" y="250"/>
      <point x="363" y="299"/>
      <point x="292" y="315" type="curve"/>
      <point x="251" y="336" type="line"/>
      <point x="128" y="336" type="line"/>
    </contour>
    <contour>
      <point x="128" y="576" type="line"/>
      <point x="184" y="576" type="line" smooth="yes"/>
      <point x="280" y="576"/>
      <point x="312" y="541"/>
      <point x="312" y="476" type="curve" smooth="yes"/>
      <point x="312" y="423"/>
      <point x="286" y="363"/>
      <point x="232" y="329" type="curve"/>
      <point x="264" y="282" type="line"/>
      <point x="355" y="344"/>
      <point x="390" y="408"/>
      <point x="390" y="476" type="curve" smooth="yes"/>
      <point x="390" y="586"/>
      <point x="315" y="640"/>
      <point x="192" y="640" type="curve" smooth="yes"/>
      <point x="128" y="640" type="line"/>
    </contour>
  </outline>
</glyph>
<glyph name="C" format="1">
  <advance width="448"/>
  <unicode hex="0043"/>
  <outline>
    <contour>
      <point x="138" y="319" type="curve" smooth="yes"/>
      <point x="138" y="507"/>
      <point x="149" y="583"/>
      <point x="280" y="583" type="curve" smooth="yes"/>
      <point x="305" y="583"/>
      <point x="335" y="580"/>
      <point x="364" y="574" type="curve"/>
      <point x="378" y="635" type="line"/>
      <point x="345" y="643"/>
      <point x="305" y="647"/>
      <point x="274" y="647" type="curve" smooth="yes"/>
      <point x="118" y="647"/>
      <point x="60" y="560"/>
      <point x="60" y="319" type="curve" smooth="yes"/>
      <point x="60" y="78"/>
      <point x="118" y="-9"/>
      <point x="274" y="-9" type="curve" smooth="yes"/>
      <point x="309" y="-9"/>
      <point x="351" y="-4"/>
      <point x="384" y="5" type="curve"/>
      <point x="370" y="66" type="line"/>
      <point x="337" y="58"/>
      <point x="306" y="55"/>
      <point x="280" y="55" type="curve" smooth="yes"/>
      <point x="149" y="55"/>
      <point x="138" y="131"/>
    </contour>
    <contour>
      <point x="256" y="640" type="move" name="topUC"/>
    </contour>
    <contour>
      <point x="224" y="0" type="move" name="bottom"/>
    </contour>
  </outline>
</glyph>
<glyph name="D" format="1">
  <advance width="448"/>
  <unicode hex="0044"/>
  <outline>
    <contour>
      <point x="60" y="0" type="line"/>
      <point x="132" y="0" type="line"/>
      <point x="132" y="640" type="line"/>
      <point x="60" y="640" type="line"/>
    </contour>
    <contour>
      <point x="107" y="640" type="line"/>
      <point x="107" y="576" type="line"/>
      <point x="174" y="576" type="line" smooth="yes"/>
      <point x="301" y="576"/>
      <point x="316" y="500"/>
      <point x="316" y="317" type="curve" smooth="yes"/>
      <point x="316" y="140"/>
      <point x="303" y="64"/>
      <point x="174" y="64" type="curve" smooth="yes"/>
      <point x="105" y="64" type="line"/>
      <point x="105" y="0" type="line"/>
      <point x="181" y="0" type="line" smooth="yes"/>
      <point x="333" y="0"/>
      <point x="394" y="86"/>
      <point x="394" y="317" type="curve" smooth="yes"/>
      <point x="394" y="547"/>
      <point x="333" y="640"/>
      <point x="180" y="640" type="curve" smooth="yes"/>
    </contour>
    <contour>
      <point x="212" y="640" type="move" name="topUC"/>
    </contour>
    <contour>
      <point x="227" y="362" type="move" name="stemUC"/>
    </contour>
  </outline>
</glyph>
<glyph name="E" format="1">
  <advance width="448"/>
  <unicode hex="0045"/>
  <outline>
    <contour>
      <point x="374" y="640" type="line"/>
      <point x="60" y="640" type="line"/>
      <point x="60" y="0" type="line"/>
      <point x="384" y="0" type="line"/>
      <point x="384" y="64" type="line"/>
      <point x="132" y="64" type="line"/>
      <point x="132" y="256" type="line"/>
      <point x="320" y="256" type="line"/>
      <point x="320" y="320" type="line"/>
      <point x="132" y="320" type="line"/>
      <point x="132" y="576" type="line"/>
      <point x="374" y="576" type="line"/>
    </contour>
    <contour>
      <point x="220" y="640" type="move" name="topUC"/>
    </contour>
    <contour>
      <point x="224" y="0" type="move" name="bottom"/>
    </contour>
    <contour>
      <point x="350" y="0" type="move" name="bottomAttach"/>
    </contour>
  </outline>
</glyph>
<glyph name="F" format="1">
  <advance width="448"/>
  <unicode hex="0046"/>
  <outline>
    <contour>
      <point x="384" y="640" type="line"/>
      <point x="60" y="640" type="line"/>
      <point x="60" y="0" type="line"/>
      <point x="132" y="0" type="line"/>
      <point x="132" y="256" type="line"/>
      <point x="320" y="256" type="line"/>
      <point x="320" y="320" type="line"/>
      <point x="132" y="320" type="line"/>
      <point x="132" y="576" type="line"/>
      <point x="384" y="576" type="line"/>
    </contour>
  </outline>
</glyph>
<glyph name="G" format="1">
  <advance width="448"/>
  <unicode hex="0047"/>
  <outline>
    <contour>
      <point x="132" y="319" type="curve" smooth="yes"/>
      <point x="132" y="507"/>
      <point x="143" y="583"/>
      <point x="274" y="583" type="curve" smooth="yes"/>
      <point x="296" y="583"/>
      <point x="333" y="580"/>
      <point x="371" y="571" type="curve"/>
      <point x="385" y="632" type="line"/>
      <point x="347" y="642"/>
      <point x="301" y="647"/>
      <point x="268" y="647" type="curve" smooth="yes"/>
      <point x="112" y="647"/>
      <point x="54" y="560"/>
      <point x="54" y="319" type="curve" smooth="yes"/>
      <point x="54" y="78"/>
      <point x="112" y="-9"/>
      <point x="268" y="-9" type="curve" smooth="yes"/>
      <point x="301" y="-9"/>
      <point x="350" y="-4"/>
      <point x="388" y="7" type="curve"/>
      <point x="371" y="67" type="line"/>
      <point x="333" y="58"/>
      <point x="296" y="55"/>
      <point x="274" y="55" type="curve" smooth="yes"/>
      <point x="143" y="55"/>
      <point x="132" y="131"/>
    </contour>
    <contour>
      <point x="226" y="256" type="line"/>
      <point x="316" y="256" type="line"/>
      <point x="316" y="7" type="line"/>
      <point x="388" y="7" type="line"/>
      <point x="388" y="320" type="line"/>
      <point x="226" y="320" type="line"/>
    </contour>
    <contour>
      <point x="308" y="512" type="move" name="topUC"/>
    </contour>
    <contour>
      <point x="207" y="-40" type="move" name="bottom"/>
    </contour>
  </outline>
</glyph>
<glyph name="H" format="1">
  <advance width="448"/>
  <unicode hex="0048"/>
  <outline>
    <contour>
      <point x="132" y="256" type="line"/>
      <point x="316" y="256" type="line"/>
      <point x="316" y="0" type="line"/>
      <point x="388" y="0" type="line"/>
      <point x="388" y="640" type="line"/>
      <point x="316" y="640" type="line"/>
      <point x="316" y="320" type="line"/>
      <point x="132" y="320" type="line"/>
      <point x="132" y="640" type="line"/>
      <point x="60" y="640" type="line"/>
      <point x="60" y="0" type="line"/>
      <point x="132" y="0" type="line"/>
    </contour>
  </outline>
</glyph>
<glyph name="I" format="1">
  <advance width="448"/>
  <unicode hex="0049"/>
  <outline>
    <contour>
      <point x="68" y="576" type="line"/>
      <point x="188" y="576" type="line"/>
      <point x="188" y="64" type="line"/>
      <point x="64" y="64" type="line"/>
      <point x="64" y="0" type="line"/>
      <point x="384" y="0" type="line"/>
      <point x="384" y="64" type="line"/>
      <point x="260" y="64" type="line"/>
      <point x="260" y="576" type="line"/>
      <point x="380" y="576" type="line"/>
      <point x="380" y="640" type="line"/>
      <point x="68" y="640" type="line"/>
    </contour>
    <contour>
      <point x="224" y="640" type="move" name="topUC"/>
    </contour>
    <contour>
      <point x="350" y="0" type="move" name="bottomAttach"/>
    </contour>
  </outline>
</glyph>
<glyph name="J" format="1">
  <advance width="448"/>
  <unicode hex="004A"/>
  <outline>
    <contour>
      <point x="162" y="576" type="line"/>
      <point x="316" y="576" type="line"/>
      <point x="316" y="169" type="line" smooth="yes"/>
      <point x="316" y="100"/>
      <point x="297" y="56"/>
      <point x="224" y="56" type="curve" smooth="yes"/>
      <point x="166" y="56"/>
      <point x="143" y="86"/>
      <point x="130" y="137" type="curve"/>
      <point x="62" y="120" type="line"/>
      <point x="79" y="43"/>
      <point x="128" y="-8"/>
      <point x="224" y="-8" type="curve" smooth="yes"/>
      <point x="320" y="-8"/>
      <point x="388" y="43"/>
      <point x="388" y="173" type="curve" smooth="yes"/>
      <point x="388" y="640" type="line"/>
      <point x="162" y="640" type="line"/>
    </contour>
    <contour>
      <point x="270" y="640" type="move" name="topUC"/>
    </contour>
  </outline>
</glyph>
<glyph name="K" format="1">
  <advance width="448"/>
  <unicode hex="004B"/>
  <outline>
    <contour>
      <point x="60" y="0" type="line"/>
      <point x="132" y="0" type="line"/>
      <point x="132" y="640" type="line"/>
      <point x="60" y="640" type="line"/>
    </contour>
    <contour>
      <point x="274" y="290" type="line"/>
      <point x="339" y="390"/>
      <point x="377" y="490"/>
      <point x="401" y="627" type="curve"/>
      <point x="325" y="643" type="line"/>
      <point x="302" y="508"/>
      <point x="273" y="417"/>
      <point x="213" y="320" type="curve"/>
    </contour>
    <contour>
      <point x="325" y="-3" type="line"/>
      <point x="403" y="3" type="line"/>
      <point x="390" y="151" type="line" smooth="yes"/>
      <point x="379" y="281"/>
      <point x="307" y="325"/>
      <point x="180" y="325" type="curve" smooth="yes"/>
      <point x="121" y="325" type="line"/>
      <point x="121" y="261" type="line"/>
      <point x="185" y="261" type="line" smooth="yes"/>
      <point x="286" y="261"/>
      <point x="311" y="233"/>
      <point x="316" y="146" type="curve" smooth="yes"/>
    </contour>
    <contour>
      <point x="559" y="173" type="move" name="bottom"/>
    </contour>
  </outline>
</glyph>
<glyph name="L" format="1">
  <advance width="448"/>
  <unicode hex="004C"/>
  <outline>
    <contour>
      <point x="384" y="0" type="line"/>
      <point x="384" y="64" type="line"/>
      <point x="132" y="64" type="line"/>
      <point x="132" y="640" type="line"/>
      <point x="60" y="640" type="line"/>
      <point x="60" y="0" type="line"/>
    </contour>
    <contour>
      <point x="229" y="-17" type="move" name="bottom"/>
    </contour>
  </outline>
</glyph>
<glyph name="M" format="1">
  <advance width="448"/>
  <unicode hex="004D"/>
  <outline>
    <contour>
      <point x="56" y="0" type="line"/>
      <point x="128" y="0" type="line"/>
      <point x="128" y="128" type="line"/>
      <point x="120" y="576" type="line"/>
      <point x="56" y="576" type="line"/>
    </contour>
    <contour>
      <point x="320" y="128" type="line"/>
      <point x="320" y="0" type="line"/>
      <point x="392" y="0" type="line"/>
      <point x="392" y="576" type="line"/>
      <point x="328" y="576" type="line"/>
    </contour>
    <contour>
      <point x="192" y="128" type="line"/>
      <point x="256" y="128" type="line"/>
      <point x="256" y="512" type="line"/>
      <point x="192" y="512" type="line"/>
    </contour>
    <contour>
      <point x="242" y="512" type="line"/>
      <point x="242" y="601"/>
      <point x="201" y="640"/>
      <point x="107" y="640" type="curve" smooth="yes"/>
      <point x="56" y="640" type="line"/>
      <point x="56" y="576" type="line"/>
      <point x="128" y="576" type="line"/>
      <point x="181" y="576"/>
      <point x="192" y="559"/>
      <point x="192" y="512" type="curve"/>
    </contour>
    <contour>
      <point x="256" y="512" type="line"/>
      <point x="256" y="559"/>
      <point x="267" y="576"/>
      <point x="320" y="576" type="curve" smooth="yes"/>
      <point x="392" y="576" type="line"/>
      <point x="392" y="640" type="line"/>
      <point x="341" y="640" type="line" smooth="yes"/>
      <point x="247" y="640"/>
      <point x="206" y="601"/>
      <point x="206" y="512" type="curve"/>
    </contour>
  </outline>
</glyph>
<glyph name="N" format="1">
  <advance width="448"/>
  <unicode hex="004E"/>
  <outline>
    <contour>
      <point x="60" y="0" type="line"/>
      <point x="132" y="0" type="line"/>
      <point x="132" y="608" type="line"/>
      <point x="142" y="640" type="line"/>
      <point x="60" y="640" type="line"/>
    </contour>
    <contour>
      <point x="316" y="31" type="line"/>
      <point x="306" y="0" type="line"/>
      <point x="388" y="0" type="line"/>
      <point x="388" y="640" type="line"/>
      <point x="316" y="640" type="line"/>
    </contour>
    <contour>
      <point x="306" y="0" type="line"/>
      <point x="342" y="25" type="line"/>
      <point x="286" y="256" type="line"/>
      <point x="142" y="640" type="line"/>
      <point x="105" y="615" type="line"/>
      <point x="162" y="384" type="line"/>
    </contour>
  </outline>
</glyph>
<glyph name="O" format="1">
  <advance width="448"/>
  <unicode hex="004F"/>
  <outline>
    <contour>
      <point x="37" y="319" type="curve" smooth="yes"/>
      <point x="37" y="102"/>
      <point x="98" y="-10"/>
      <point x="224" y="-10" type="curve" smooth="yes"/>
      <point x="353" y="-10"/>
      <point x="411" y="102"/>
      <point x="411" y="319" type="curve" smooth="yes"/>
      <point x="411" y="541"/>
      <point x="353" y="650"/>
      <point x="224" y="650" type="curve" smooth="yes"/>
      <point x="98" y="650"/>
      <point x="37" y="541"/>
    </contour>
    <contour>
      <point x="113" y="319" type="curve" smooth="yes"/>
      <point x="113" y="512"/>
      <point x="143" y="584"/>
      <point x="224" y="584" type="curve" smooth="yes"/>
      <point x="305" y="584"/>
      <point x="335" y="512"/>
      <point x="335" y="319" type="curve" smooth="yes"/>
      <point x="335" y="128"/>
      <point x="305" y="56"/>
      <point x="224" y="56" type="curve" smooth="yes"/>
      <point x="143" y="56"/>
      <point x="113" y="128"/>
    </contour>
    <contour>
      <point x="555" y="346" type="move" name="center"/>
    </contour>
    <contour>
      <point x="311" y="748" type="move" name="topUC"/>
    </contour>
  </outline>
</glyph>
<glyph name="P" format="1">
  <advance width="448"/>
  <unicode hex="0050"/>
  <outline>
    <contour>
      <point x="60" y="0" type="line"/>
      <point x="132" y="0" type="line"/>
      <point x="132" y="640" type="line"/>
      <point x="60" y="640" type="line"/>
    </contour>
    <contour>
      <point x="107" y="640" type="line"/>
      <point x="107" y="576" type="line"/>
      <point x="208" y="576" type="line" smooth="yes"/>
      <point x="301" y="576"/>
      <point x="325" y="512"/>
      <point x="325" y="414" type="curve" smooth="yes"/>
      <point x="325" y="320"/>
      <point x="303" y="256"/>
      <point x="208" y="256" type="curve" smooth="yes"/>
      <point x="105" y="256" type="line"/>
      <point x="105" y="192" type="line"/>
      <point x="215" y="192" type="line" smooth="yes"/>
      <point x="327" y="192"/>
      <point x="401" y="267"/>
      <point x="401" y="414" type="curve" smooth="yes"/>
      <point x="401" y="560"/>
      <point x="327" y="640"/>
      <point x="215" y="640" type="curve" smooth="yes"/>
    </contour>
  </outline>
</glyph>
<glyph name="Q" format="1">
  <advance width="448"/>
  <unicode hex="0051"/>
  <outline>
    <contour>
      <point x="415" y="-78" type="line"/>
      <point x="329" y="-72"/>
      <point x="291" y="-60"/>
      <point x="281" y="0" type="curve"/>
      <point x="206" y="0" type="line"/>
      <point x="222" y="-101"/>
      <point x="305" y="-137"/>
      <point x="405" y="-145" type="curve"/>
    </contour>
    <component base="O"/>
  </outline>
</glyph>
<glyph name="R" format="1">
  <advance width="448"/>
  <unicode hex="0052"/>
  <outline>
    <contour>
      <point x="60" y="0" type="line"/>
      <point x="132" y="0" type="line"/>
      <point x="132" y="640" type="line"/>
      <point x="60" y="640" type="line"/>
    </contour>
    <contour>
      <point x="107" y="640" type="line"/>
      <point x="107" y="576" type="line"/>
      <point x="208" y="576" type="line" smooth="yes"/>
      <point x="301" y="576"/>
      <point x="325" y="522"/>
      <point x="325" y="438" type="curve" smooth="yes"/>
      <point x="325" y="359"/>
      <point x="303" y="305"/>
      <point x="208" y="305" type="curve" smooth="yes"/>
      <point x="105" y="305" type="line"/>
      <point x="105" y="241" type="line"/>
      <point x="196" y="241" type="line"/>
      <point x="204" y="251" type="line"/>
      <point x="215" y="251" type="line" smooth="yes"/>
      <point x="327" y="251"/>
      <point x="401" y="312"/>
      <point x="401" y="438" type="curve" smooth="yes"/>
      <point x="401" y="568"/>
      <point x="327" y="640"/>
      <point x="215" y="640" type="curve" smooth="yes"/>
    </contour>
    <contour>
      <point x="411" y="2" type="line"/>
      <point x="396" y="166"/>
      <point x="311" y="271"/>
      <point x="176" y="271" type="curve"/>
      <point x="176" y="244" type="line"/>
      <point x="271" y="200"/>
      <point x="324" y="135"/>
      <point x="337" y="-5" type="curve"/>
    </contour>
    <contour>
      <point x="224" y="640" type="move" name="topUC"/>
    </contour>
  </outline>
</glyph>
<glyph name="S" format="1">
  <advance width="448"/>
  <unicode hex="0053"/>
  <outline>
    <contour>
      <point x="376" y="630" type="line"/>
      <point x="341" y="642"/>
      <point x="294" y="648"/>
      <point x="256" y="648" type="curve" smooth="yes"/>
      <point x="125" y="648"/>
      <point x="59" y="572"/>
      <point x="59" y="465" type="curve" smooth="yes"/>
      <point x="59" y="230"/>
      <point x="315" y="298"/>
      <point x="315" y="143" type="curve" smooth="yes"/>
      <point x="315" y="95"/>
      <point x="290" y="58"/>
      <point x="198" y="58" type="curve" smooth="yes"/>
      <point x="148" y="58"/>
      <point x="109" y="69"/>
      <point x="70" y="84" type="curve"/>
      <point x="51" y="18" type="line"/>
      <point x="96" y="1"/>
      <point x="149" y="-8"/>
      <point x="195" y="-8" type="curve" smooth="yes"/>
      <point x="319" y="-8"/>
      <point x="391" y="42"/>
      <point x="391" y="149" type="curve" smooth="yes"/>
      <point x="391" y="356"/>
      <point x="135" y="286"/>
      <point x="135" y="468" type="curve" smooth="yes"/>
      <point x="135" y="532"/>
      <point x="155" y="582"/>
      <point x="256" y="582" type="curve" smooth="yes"/>
      <point x="286" y="582"/>
      <point x="325" y="576"/>
      <point x="360" y="564" type="curve"/>
    </contour>
    <contour>
      <point x="169" y="20" type="move" name="bottom"/>
    </contour>
    <contour>
      <point x="194" y="789" type="move" name="topUC"/>
    </contour>
  </outline>
</glyph>
<glyph name="T" format="1">
  <advance width="448"/>
  <unicode hex="0054"/>
  <outline>
    <contour>
      <point x="404" y="640" type="line"/>
      <point x="44" y="640" type="line"/>
      <point x="44" y="576" type="line"/>
      <point x="188" y="576" type="line"/>
      <point x="188" y="0" type="line"/>
      <point x="260" y="0" type="line"/>
      <point x="260" y="576" type="line"/>
      <point x="404" y="576" type="line"/>
    </contour>
  </outline>
</glyph>
<glyph name="U" format="1">
  <advance width="448"/>
  <unicode hex="0055"/>
  <outline>
    <contour>
      <point x="60" y="172" type="line" smooth="yes"/>
      <point x="60" y="43"/>
      <point x="128" y="-8"/>
      <point x="224" y="-8" type="curve" smooth="yes"/>
      <point x="320" y="-8"/>
      <point x="388" y="43"/>
      <point x="388" y="173" type="curve" smooth="yes"/>
      <point x="388" y="640" type="line"/>
      <point x="316" y="640" type="line"/>
      <point x="316" y="169" type="line" smooth="yes"/>
      <point x="316" y="100"/>
      <point x="297" y="56"/>
      <point x="224" y="56" type="curve" smooth="yes"/>
      <point x="147" y="56"/>
      <point x="132" y="100"/>
      <point x="132" y="169" type="curve" smooth="yes"/>
      <point x="132" y="640" type="line"/>
      <point x="60" y="640" type="line"/>
    </contour>
  </outline>
</glyph>
<glyph name="V" format="1">
  <advance width="448"/>
  <unicode hex="0056"/>
  <outline>
    <contour>
      <point x="412" y="638" type="curve"/>
      <point x="338" y="643" type="line"/>
      <point x="317" y="404"/>
      <point x="273" y="202"/>
      <point x="213" y="64" type="curve"/>
      <point x="235" y="64" type="line"/>
      <point x="175" y="202"/>
      <point x="131" y="404"/>
      <point x="110" y="643" type="curve"/>
      <point x="36" y="638" type="line"/>
      <point x="56" y="396"/>
      <point x="109" y="164"/>
      <point x="192" y="-2" type="curve"/>
      <point x="256" y="-2" type="line"/>
      <point x="339" y="164"/>
      <point x="392" y="396"/>
    </contour>
  </outline>
</glyph>
<glyph name="W" format="1">
  <advance width="448"/>
  <unicode hex="0057"/>
  <outline>
    <contour>
      <point x="165" y="0" type="line"/>
      <point x="121" y="214"/>
      <point x="116" y="384"/>
      <point x="114" y="640" type="curve"/>
      <point x="42" y="640" type="line"/>
      <point x="44" y="384"/>
      <point x="60" y="207"/>
      <point x="112" y="0" type="curve"/>
    </contour>
    <contour>
      <point x="176" y="0" type="line"/>
      <point x="222" y="128"/>
      <point x="228" y="256"/>
      <point x="228" y="448" type="curve"/>
      <point x="192" y="448" type="line"/>
      <point x="192" y="296"/>
      <point x="170" y="160"/>
      <point x="131" y="0" type="curve"/>
    </contour>
    <contour>
      <point x="336" y="0" type="line"/>
      <point x="388" y="207"/>
      <point x="404" y="383"/>
      <point x="406" y="639" type="curve"/>
      <point x="334" y="640" type="line"/>
      <point x="332" y="384"/>
      <point x="327" y="214"/>
      <point x="283" y="0" type="curve"/>
    </contour>
    <contour>
      <point x="317" y="0" type="line"/>
      <point x="278" y="160"/>
      <point x="256" y="296"/>
      <point x="256" y="448" type="curve"/>
      <point x="220" y="448" type="line"/>
      <point x="220" y="256"/>
      <point x="226" y="128"/>
      <point x="272" y="0" type="curve"/>
    </contour>
  </outline>
</glyph>
<glyph name="X" format="1">
  <advance width="448"/>
  <unicode hex="0058"/>
  <outline>
    <contour>
      <point x="217" y="264" type="line"/>
      <point x="280" y="182"/>
      <point x="303" y="118"/>
      <point x="327" y="-7" type="curve"/>
      <point x="399" y="6" type="line"/>
      <point x="375" y="133"/>
      <point x="344" y="211"/>
      <point x="265" y="312" type="curve"/>
      <point x="232" y="337" type="line"/>
      <point x="165" y="410"/>
      <point x="142" y="485"/>
      <point x="128" y="643" type="curve"/>
      <point x="56" y="636" type="line"/>
      <point x="72" y="467"/>
      <point x="104" y="376"/>
      <point x="190" y="282" type="curve"/>
    </contour>
    <contour>
      <point x="258" y="282" type="line"/>
      <point x="344" y="376"/>
      <point x="376" y="467"/>
      <point x="392" y="636" type="curve"/>
      <point x="320" y="643" type="line"/>
      <point x="306" y="485"/>
      <point x="283" y="410"/>
      <point x="216" y="337" type="curve"/>
      <point x="183" y="312" type="line"/>
      <point x="104" y="211"/>
      <point x="72" y="133"/>
      <point x="48" y="6" type="curve"/>
      <point x="120" y="-7" type="line"/>
      <point x="144" y="118"/>
      <point x="168" y="182"/>
      <point x="231" y="264" type="curve"/>
    </contour>
  </outline>
</glyph>
<glyph name="Y" format="1">
  <advance width="448"/>
  <unicode hex="0059"/>
  <outline>
    <contour>
      <point x="188" y="0" type="line"/>
      <point x="260" y="0" type="line"/>
      <point x="260" y="202" type="line"/>
      <point x="188" y="202" type="line"/>
    </contour>
    <contour>
      <point x="260" y="202" type="line"/>
      <point x="341" y="311"/>
      <point x="390" y="447"/>
      <point x="411" y="636" type="curve"/>
      <point x="340" y="643" type="line"/>
      <point x="318" y="458"/>
      <point x="282" y="349"/>
      <point x="192" y="202" type="curve"/>
    </contour>
    <contour>
      <point x="256" y="202" type="line"/>
      <point x="166" y="349"/>
      <point x="130" y="458"/>
      <point x="108" y="643" type="curve"/>
      <point x="37" y="636" type="line"/>
      <point x="58" y="447"/>
      <point x="107" y="311"/>
      <point x="188" y="202" type="curve"/>
    </contour>
  </outline>
</glyph>
<glyph name="Z" format="1">
  <advance width="448"/>
  <unicode hex="005A"/>
  <outline>
    <contour>
      <point x="67" y="576" type="line"/>
      <point x="352" y="576" type="line"/>
      <point x="388" y="620" type="line"/>
      <point x="388" y="640" type="line"/>
      <point x="67" y="640" type="line"/>
    </contour>
    <contour>
      <point x="55" y="0" type="line"/>
      <point x="388" y="0" type="line"/>
      <point x="388" y="64" type="line"/>
      <point x="91" y="64" type="line"/>
      <point x="55" y="16" type="line"/>
    </contour>
    <contour>
      <point x="127" y="10" type="line"/>
      <point x="127" y="114"/>
      <point x="183" y="186"/>
      <point x="266" y="279" type="curve" smooth="yes"/>
      <point x="330" y="351"/>
      <point x="388" y="438"/>
      <point x="388" y="620" type="curve"/>
      <point x="316" y="620" type="line"/>
      <point x="316" y="477"/>
      <point x="281" y="403"/>
      <point x="203" y="317" type="curve" smooth="yes"/>
      <point x="144" y="252"/>
      <point x="55" y="155"/>
      <point x="55" y="16" type="curve"/>
    </contour>
  </outline>
</glyph>
<glyph name="bracketleft" format="1">
  <advance width="448"/>
  <unicode hex="005B"/>
  <outline>
    <contour>
      <point x="340" y="704" type="line"/>
      <point x="144" y="704" type="line"/>
      <point x="144" y="-64" type="line"/>
      <point x="340" y="-64" type="line"/>
      <point x="340" y="0" type="line"/>
      <point x="216" y="0" type="line"/>
      <point x="216" y="640" type="line"/>
      <point x="340" y="640" type="line"/>
    </contour>
  </outline>
</glyph>
<glyph name="backslash" format="1">
  <advance width="448"/>
  <unicode hex="005C"/>
  <outline>
    <contour>
      <point x="190" y="710" type="line"/>
      <point x="119" y="698" type="line"/>
      <point x="258" y="-69" type="line"/>
      <point x="329" y="-57" type="line"/>
    </contour>
  </outline>
</glyph>
<glyph name="bracketright" format="1">
  <advance width="448"/>
  <unicode hex="005D"/>
  <outline>
    <contour>
      <point x="304" y="704" type="line"/>
      <point x="108" y="704" type="line"/>
      <point x="108" y="640" type="line"/>
      <point x="232" y="640" type="line"/>
      <point x="232" y="0" type="line"/>
      <point x="108" y="0" type="line"/>
      <point x="108" y="-64" type="line"/>
      <point x="304" y="-64" type="line"/>
    </contour>
  </outline>
</glyph>
<glyph name="asciicircum" format="1">
  <advance width="448"/>
  <unicode hex="005E"/>
  <outline>
    <contour>
      <point x="53" y="206" type="line"/>
      <point x="121" y="182" type="line"/>
      <point x="250" y="566" type="line"/>
      <point x="181" y="566" type="line"/>
    </contour>
    <contour>
      <point x="267" y="566" type="line"/>
      <point x="198" y="566" type="line"/>
      <point x="327" y="182" type="line"/>
      <point x="395" y="206" type="line"/>
    </contour>
  </outline>
</glyph>
<glyph name="underscore" format="1">
  <advance width="448"/>
  <unicode hex="005F"/>
  <outline>
    <contour>
      <point x="384" y="0" type="line"/>
      <point x="64" y="0" type="line"/>
      <point x="64" y="-64" type="line"/>
      <point x="384" y="-64" type="line"/>
    </contour>
  </outline>
</glyph>
<glyph name="grave" format="1">
  <advance width="448"/>
  <unicode hex="0060"/>
  <outline>
    <contour>
      <point x="233" y="644" type="line"/>
      <point x="139" y="629" type="line"/>
      <point x="228" y="379" type="line"/>
      <point x="297" y="394" type="line"/>
    </contour>
  </outline>
</glyph>
<glyph name="a" format="1">
  <advance width="448"/>
  <unicode hex="0061"/>
  <outline>
    <contour>
      <point x="316" y="64" type="line"/>
      <point x="324" y="0" type="line"/>
      <point x="392" y="0" type="line"/>
      <point x="388" y="64" type="line"/>
      <point x="388" y="299" type="line" smooth="yes"/>
      <point x="388" y="413"/>
      <point x="331" y="452"/>
      <point x="234" y="452" type="curve" smooth="yes"/>
      <point x="189" y="452"/>
      <point x="141" y="446"/>
      <point x="93" y="431" type="curve"/>
      <point x="109" y="369" type="line"/>
      <point x="151" y="380"/>
      <point x="186" y="388"/>
      <point x="225" y="388" type="curve" smooth="yes"/>
      <point x="296" y="388"/>
      <point x="316" y="363"/>
      <point x="316" y="285" type="curve" smooth="yes"/>
    </contour>
    <contour>
      <point x="349" y="269" type="line"/>
      <point x="234" y="258" type="line" smooth="yes"/>
      <point x="107" y="246"/>
      <point x="58" y="192"/>
      <point x="58" y="117" type="curve" smooth="yes"/>
      <point x="58" y="37"/>
      <point x="117" y="-4"/>
      <point x="184" y="-4" type="curve" smooth="yes"/>
      <point x="252" y="-4"/>
      <point x="306" y="30"/>
      <point x="353" y="59" type="curve"/>
      <point x="337" y="111" type="line"/>
      <point x="289" y="85"/>
      <point x="244" y="60"/>
      <point x="199" y="60" type="curve" smooth="yes"/>
      <point x="153" y="60"/>
      <point x="134" y="86"/>
      <point x="134" y="121" type="curve" smooth="yes"/>
      <point x="134" y="166"/>
      <point x="166" y="190"/>
      <point x="250" y="197" type="curve" smooth="yes"/>
      <point x="349" y="205" type="line"/>
    </contour>
    <contour>
      <point x="224" y="448" type="move" name="topLC"/>
    </contour>
    <contour>
      <point x="355" y="0" type="move" name="bottomAttach"/>
    </contour>
  </outline>
</glyph>
<glyph name="b" format="1">
  <advance width="448"/>
  <unicode hex="0062"/>
  <outline>
    <contour>
      <point x="75" y="224" type="curve" smooth="yes"/>
      <point x="75" y="82"/>
      <point x="118" y="-8"/>
      <point x="233" y="-8" type="curve" smooth="yes"/>
      <point x="347" y="-8"/>
      <point x="397" y="93"/>
      <point x="397" y="224" type="curve" smooth="yes"/>
      <point x="397" y="355"/>
      <point x="347" y="456"/>
      <point x="232" y="456" type="curve" smooth="yes"/>
      <point x="118" y="456"/>
      <point x="75" y="371"/>
    </contour>
    <contour>
      <point x="104" y="224" type="curve" smooth="yes"/>
      <point x="104" y="353"/>
      <point x="152" y="392"/>
      <point x="224" y="392" type="curve" smooth="yes"/>
      <point x="293" y="392"/>
      <point x="319" y="353"/>
      <point x="319" y="224" type="curve" smooth="yes"/>
      <point x="319" y="97"/>
      <point x="293" y="56"/>
      <point x="224" y="56" type="curve" smooth="yes"/>
      <point x="152" y="56"/>
      <point x="104" y="97"/>
    </contour>
    <contour>
      <point x="60" y="64" type="line"/>
      <point x="58" y="0" type="line"/>
      <point x="119" y="0" type="line"/>
      <point x="128" y="65" type="line"/>
      <point x="132" y="81" type="line"/>
      <point x="132" y="640" type="line"/>
      <point x="60" y="640" type="line"/>
    </contour>
  </outline>
</glyph>
<glyph name="c" format="1">
  <advance width="448"/>
  <unicode hex="0063"/>
  <outline>
    <contour>
      <point x="358" y="436" type="line"/>
      <point x="317" y="450"/>
      <point x="276" y="455"/>
      <point x="238" y="455" type="curve" smooth="yes"/>
      <point x="94" y="455"/>
      <point x="50" y="352"/>
      <point x="50" y="224" type="curve" smooth="yes"/>
      <point x="50" y="96"/>
      <point x="94" y="-7"/>
      <point x="238" y="-7" type="curve" smooth="yes"/>
      <point x="276" y="-7"/>
      <point x="317" y="-2"/>
      <point x="358" y="12" type="curve"/>
      <point x="345" y="72" type="line"/>
      <point x="309" y="62"/>
      <point x="278" y="57"/>
      <point x="242" y="57" type="curve" smooth="yes"/>
      <point x="155" y="57"/>
      <point x="126" y="99"/>
      <point x="126" y="224" type="curve" smooth="yes"/>
      <point x="126" y="349"/>
      <point x="155" y="391"/>
      <point x="242" y="391" type="curve" smooth="yes"/>
      <point x="278" y="391"/>
      <point x="309" y="386"/>
      <point x="345" y="376" type="curve"/>
    </contour>
    <contour>
      <point x="202" y="-55" type="move" name="bottom"/>
    </contour>
    <contour>
      <point x="240" y="494" type="move" name="topLC"/>
    </contour>
  </outline>
</glyph>
<glyph name="d" format="1">
  <advance width="448"/>
  <unicode hex="0064"/>
  <outline>
    <contour>
      <point x="373" y="224" type="curve" smooth="yes"/>
      <point x="373" y="371"/>
      <point x="330" y="456"/>
      <point x="216" y="456" type="curve" smooth="yes"/>
      <point x="101" y="456"/>
      <point x="51" y="355"/>
      <point x="51" y="224" type="curve" smooth="yes"/>
      <point x="51" y="93"/>
      <point x="101" y="-8"/>
      <point x="215" y="-8" type="curve" smooth="yes"/>
      <point x="330" y="-8"/>
      <point x="373" y="82"/>
    </contour>
    <contour>
      <point x="344" y="224" type="curve" smooth="yes"/>
      <point x="344" y="97"/>
      <point x="296" y="56"/>
      <point x="224" y="56" type="curve" smooth="yes"/>
      <point x="155" y="56"/>
      <point x="129" y="97"/>
      <point x="129" y="224" type="curve" smooth="yes"/>
      <point x="129" y="353"/>
      <point x="155" y="392"/>
      <point x="224" y="392" type="curve" smooth="yes"/>
      <point x="296" y="392"/>
      <point x="344" y="353"/>
    </contour>
    <contour>
      <point x="388" y="640" type="line"/>
      <point x="316" y="640" type="line"/>
      <point x="316" y="81" type="line"/>
      <point x="320" y="65" type="line"/>
      <point x="329" y="0" type="line"/>
      <point x="390" y="0" type="line"/>
      <point x="388" y="64" type="line"/>
    </contour>
  </outline>
</glyph>
<glyph name="e" format="1">
  <advance width="448"/>
  <unicode hex="0065"/>
  <outline>
    <contour>
      <point x="345" y="66" type="line"/>
      <point x="309" y="56"/>
      <point x="278" y="51"/>
      <point x="242" y="51" type="curve" smooth="yes"/>
      <point x="155" y="51"/>
      <point x="126" y="95"/>
      <point x="126" y="224" type="curve" smooth="yes"/>
      <point x="126" y="351"/>
      <point x="155" y="397"/>
      <point x="224" y="397" type="curve" smooth="yes"/>
      <point x="293" y="397"/>
      <point x="322" y="351"/>
      <point x="322" y="224" type="curve"/>
      <point x="398" y="187" type="line"/>
      <point x="398" y="224" type="line" smooth="yes"/>
      <point x="398" y="355"/>
      <point x="353" y="461"/>
      <point x="224" y="461" type="curve" smooth="yes"/>
      <point x="95" y="461"/>
      <point x="50" y="355"/>
      <point x="50" y="224" type="curve" smooth="yes"/>
      <point x="50" y="93"/>
      <point x="94" y="-13"/>
      <point x="238" y="-13" type="curve" smooth="yes"/>
      <point x="276" y="-13"/>
      <point x="317" y="-8"/>
      <point x="358" y="6" type="curve"/>
    </contour>
    <contour>
      <point x="92" y="187" type="line"/>
      <point x="398" y="187" type="line"/>
      <point x="360" y="251" type="line"/>
      <point x="92" y="251" type="line"/>
    </contour>
    <contour>
      <point x="224" y="448" type="move" name="topLC"/>
    </contour>
    <contour>
      <point x="313" y="0" type="move" name="bottomAttach"/>
    </contour>
  </outline>
</glyph>
<glyph name="f" format="1">
  <advance width="448"/>
  <unicode hex="0066"/>
  <outline>
    <contour>
      <point x="124" y="0" type="line"/>
      <point x="196" y="0" type="line"/>
      <point x="196" y="384" type="line"/>
      <point x="340" y="384" type="line"/>
      <point x="340" y="448" type="line"/>
      <point x="196" y="448" type="line"/>
      <point x="196" y="509" type="line" smooth="yes"/>
      <point x="196" y="549"/>
      <point x="211" y="584"/>
      <point x="264" y="584" type="curve" smooth="yes"/>
      <point x="294" y="584"/>
      <point x="324" y="580"/>
      <point x="357" y="575" type="curve"/>
      <point x="368" y="638" type="line"/>
      <point x="330" y="645"/>
      <point x="294" y="648"/>
      <point x="260" y="648" type="curve" smooth="yes"/>
      <point x="182" y="648"/>
      <point x="124" y="605"/>
      <point x="124" y="504" type="curve" smooth="yes"/>
      <point x="124" y="448" type="line"/>
      <point x="49" y="448" type="line"/>
      <point x="49" y="386" type="line"/>
      <point x="124" y="383" type="line"/>
    </contour>
  </outline>
</glyph>
<glyph name="g" format="1">
  <advance width="448"/>
  <unicode hex="0067"/>
  <outline>
    <contour>
      <point x="387" y="384" type="line"/>
      <point x="389" y="448" type="line"/>
      <point x="329" y="448" type="line"/>
      <point x="320" y="383" type="line"/>
      <point x="317" y="367" type="line"/>
      <point x="317" y="-49" type="line" smooth="yes"/>
      <point x="317" y="-105"/>
      <point x="298" y="-132"/>
      <point x="222" y="-132" type="curve" smooth="yes"/>
      <point x="189" y="-132"/>
      <point x="151" y="-131"/>
      <point x="112" y="-123" type="curve"/>
      <point x="102" y="-181" type="line"/>
      <point x="142" y="-191"/>
      <point x="183" y="-196"/>
      <point x="223" y="-196" type="curve" smooth="yes"/>
      <point x="319" y="-196"/>
      <point x="387" y="-154"/>
      <point x="387" y="-36" type="curve" smooth="yes"/>
    </contour>
    <contour>
      <point x="371" y="224" type="curve" smooth="yes"/>
      <point x="371" y="371"/>
      <point x="328" y="456"/>
      <point x="214" y="456" type="curve" smooth="yes"/>
      <point x="99" y="456"/>
      <point x="49" y="355"/>
      <point x="49" y="224" type="curve" smooth="yes"/>
      <point x="49" y="93"/>
      <point x="99" y="-8"/>
      <point x="213" y="-8" type="curve" smooth="yes"/>
      <point x="328" y="-8"/>
      <point x="371" y="82"/>
    </contour>
    <contour>
      <point x="342" y="224" type="curve" smooth="yes"/>
      <point x="342" y="97"/>
      <point x="294" y="56"/>
      <point x="222" y="56" type="curve" smooth="yes"/>
      <point x="153" y="56"/>
      <point x="127" y="97"/>
      <point x="127" y="224" type="curve" smooth="yes"/>
      <point x="127" y="353"/>
      <point x="153" y="392"/>
      <point x="222" y="392" type="curve" smooth="yes"/>
      <point x="294" y="392"/>
      <point x="342" y="353"/>
    </contour>
  </outline>
</glyph>
<glyph name="j" format="1">
  <advance width="448"/>
  <unicode hex="006A"/>
  <outline>
    <contour>
      <point x="260" y="448" type="line"/>
      <point x="64" y="448" type="line"/>
      <point x="64" y="390" type="line"/>
      <point x="188" y="382" type="line"/>
      <point x="188" y="-49" type="line" smooth="yes"/>
      <point x="188" y="-109"/>
      <point x="169" y="-140"/>
      <point x="105" y="-140" type="curve" smooth="yes"/>
      <point x="77" y="-140"/>
      <point x="57" y="-138"/>
      <point x="36" y="-136" type="curve"/>
      <point x="30" y="-194" type="line"/>
      <point x="59" y="-198"/>
      <point x="81" y="-200"/>
      <point x="111" y="-200" type="curve" smooth="yes"/>
      <point x="200" y="-200"/>
      <point x="260" y="-162"/>
      <point x="260" y="-45" type="curve" smooth="yes"/>
    </contour>
    <contour>
      <point x="161" y="591" type="curve" smooth="yes"/>
      <point x="161" y="552"/>
      <point x="188" y="532"/>
      <point x="220" y="532" type="curve" smooth="yes"/>
      <point x="252" y="532"/>
      <point x="279" y="552"/>
      <point x="279" y="591" type="curve" smooth="yes"/>
      <point x="279" y="629"/>
      <point x="252" y="650"/>
      <point x="220" y="650" type="curve" smooth="yes"/>
      <point x="188" y="650"/>
      <point x="161" y="629"/>
    </contour>
  </outline>
</glyph>
<glyph name="k" format="1">
  <advance width="448"/>
  <unicode hex="006B"/>
  <outline>
    <contour>
      <point x="60" y="0" type="line"/>
      <point x="132" y="0" type="line"/>
      <point x="132" y="640" type="line"/>
      <point x="60" y="640" type="line"/>
    </contour>
    <contour>
      <point x="156" y="231" type="line"/>
      <point x="348" y="-9" type="line"/>
      <point x="408" y="33" type="line"/>
      <point x="231" y="243" type="line"/>
      <point x="231" y="217" type="line"/>
      <point x="400" y="417" type="line"/>
      <point x="339" y="459" type="line"/>
    </contour>
    <contour>
      <point x="108" y="200" type="line"/>
      <point x="218" y="200" type="line"/>
      <point x="218" y="264" type="line"/>
      <point x="108" y="264" type="line"/>
    </contour>
  </outline>
</glyph>
<glyph name="l" format="1">
  <advance width="448"/>
  <unicode hex="006C"/>
  <outline>
    <contour>
      <point x="113" y="581" type="line"/>
      <point x="188" y="576" type="line"/>
      <point x="188" y="124" type="line" smooth="yes"/>
      <point x="188" y="28"/>
      <point x="247" y="-4"/>
      <point x="320" y="-4" type="curve" smooth="yes"/>
      <point x="341" y="-4"/>
      <point x="359" y="-3"/>
      <point x="382" y="0" type="curve"/>
      <point x="377" y="63" type="line"/>
      <point x="357" y="61"/>
      <point x="337" y="60"/>
      <point x="323" y="60" type="curve" smooth="yes"/>
      <point x="277" y="60"/>
      <point x="260" y="83"/>
      <point x="260" y="119" type="curve" smooth="yes"/>
      <point x="260" y="640" type="line"/>
      <point x="113" y="640" type="line"/>
    </contour>
  </outline>
</glyph>
<glyph name="m" format="1">
  <advance width="448"/>
  <unicode hex="006D"/>
  <outline>
    <contour>
      <point x="60" y="0" type="line"/>
      <point x="124" y="0" type="line"/>
      <point x="124" y="384" type="line"/>
      <point x="113" y="448" type="line"/>
      <point x="58" y="448" type="line"/>
      <point x="60" y="383" type="line"/>
    </contour>
    <contour>
      <point x="192" y="0" type="line"/>
      <point x="256" y="0" type="line"/>
      <point x="256" y="384" type="line"/>
      <point x="245" y="384" type="line"/>
      <point x="239" y="425"/>
      <point x="211" y="451"/>
      <point x="174" y="451" type="curve" smooth="yes"/>
      <point x="138" y="451"/>
      <point x="113" y="428"/>
      <point x="103" y="406" type="curve"/>
      <point x="115" y="372" type="line"/>
      <point x="124" y="384"/>
      <point x="144" y="387"/>
      <point x="154" y="387" type="curve" smooth="yes"/>
      <point x="185" y="387"/>
      <point x="192" y="366"/>
      <point x="192" y="332" type="curve" smooth="yes"/>
    </contour>
    <contour>
      <point x="324" y="0" type="line"/>
      <point x="388" y="0" type="line"/>
      <point x="388" y="335" type="line" smooth="yes"/>
      <point x="388" y="416"/>
      <point x="349" y="450"/>
      <point x="298" y="450" type="curve" smooth="yes"/>
      <point x="269" y="450"/>
      <point x="240" y="437"/>
      <point x="220" y="412" type="curve"/>
      <point x="246" y="372" type="line"/>
      <point x="256" y="384"/>
      <point x="274" y="386"/>
      <point x="287" y="386" type="curve" smooth="yes"/>
      <point x="316" y="386"/>
      <point x="324" y="366"/>
      <point x="324" y="331" type="curve" smooth="yes"/>
    </contour>
  </outline>
</glyph>
<glyph name="o" format="1">
  <advance width="448"/>
  <unicode hex="006F"/>
  <outline>
    <contour>
      <point x="50" y="224" type="curve" smooth="yes"/>
      <point x="50" y="93"/>
      <point x="95" y="-13"/>
      <point x="224" y="-13" type="curve" smooth="yes"/>
      <point x="350" y="-13"/>
      <point x="398" y="93"/>
      <point x="398" y="224" type="curve" smooth="yes"/>
      <point x="398" y="355"/>
      <point x="353" y="461"/>
      <point x="224" y="461" type="curve" smooth="yes"/>
      <point x="95" y="461"/>
      <point x="50" y="355"/>
    </contour>
    <contour>
      <point x="126" y="224" type="curve" smooth="yes"/>
      <point x="126" y="351"/>
      <point x="155" y="397"/>
      <point x="224" y="397" type="curve" smooth="yes"/>
      <point x="293" y="397"/>
      <point x="322" y="351"/>
      <point x="322" y="224" type="curve" smooth="yes"/>
      <point x="322" y="95"/>
      <point x="293" y="51"/>
      <point x="224" y="51" type="curve" smooth="yes"/>
      <point x="155" y="51"/>
      <point x="126" y="95"/>
    </contour>
  </outline>
</glyph>
<glyph name="p" format="1">
  <advance width="448"/>
  <unicode hex="0070"/>
  <outline>
    <contour>
      <point x="75" y="224" type="curve" smooth="yes"/>
      <point x="75" y="82"/>
      <point x="118" y="-8"/>
      <point x="233" y="-8" type="curve" smooth="yes"/>
      <point x="347" y="-8"/>
      <point x="397" y="93"/>
      <point x="397" y="224" type="curve" smooth="yes"/>
      <point x="397" y="355"/>
      <point x="347" y="456"/>
      <point x="232" y="456" type="curve" smooth="yes"/>
      <point x="118" y="456"/>
      <point x="75" y="371"/>
    </contour>
    <contour>
      <point x="104" y="224" type="curve" smooth="yes"/>
      <point x="104" y="353"/>
      <point x="152" y="392"/>
      <point x="224" y="392" type="curve" smooth="yes"/>
      <point x="293" y="392"/>
      <point x="319" y="353"/>
      <point x="319" y="224" type="curve" smooth="yes"/>
      <point x="319" y="97"/>
      <point x="293" y="56"/>
      <point x="224" y="56" type="curve" smooth="yes"/>
      <point x="152" y="56"/>
      <point x="104" y="97"/>
    </contour>
    <contour>
      <point x="60" y="-192" type="line"/>
      <point x="132" y="-192" type="line"/>
      <point x="132" y="367" type="line"/>
      <point x="128" y="383" type="line"/>
      <point x="119" y="448" type="line"/>
      <point x="58" y="448" type="line"/>
      <point x="60" y="384" type="line"/>
    </contour>
    <contour>
      <point x="319" y="463" type="move" name="topLC"/>
    </contour>
  </outline>
</glyph>
<glyph name="q" format="1">
  <advance width="448"/>
  <unicode hex="0071"/>
  <outline>
    <contour>
      <point x="373" y="224" type="curve"/>
      <point x="373" y="366"/>
      <point x="330" y="456"/>
      <point x="215" y="456" type="curve" smooth="yes"/>
      <point x="101" y="456"/>
      <point x="51" y="355"/>
      <point x="51" y="224" type="curve" smooth="yes"/>
      <point x="51" y="93"/>
      <point x="101" y="-8"/>
      <point x="216" y="-8" type="curve" smooth="yes"/>
      <point x="330" y="-8"/>
      <point x="373" y="77"/>
    </contour>
    <contour>
      <point x="344" y="224" type="curve"/>
      <point x="344" y="95"/>
      <point x="296" y="56"/>
      <point x="224" y="56" type="curve" smooth="yes"/>
      <point x="155" y="56"/>
      <point x="129" y="95"/>
      <point x="129" y="224" type="curve" smooth="yes"/>
      <point x="129" y="351"/>
      <point x="155" y="392"/>
      <point x="224" y="392" type="curve" smooth="yes"/>
      <point x="296" y="392"/>
      <point x="344" y="351"/>
    </contour>
    <contour>
      <point x="388" y="384" type="line"/>
      <point x="390" y="448" type="line"/>
      <point x="329" y="448" type="line"/>
      <point x="320" y="383" type="line"/>
      <point x="316" y="367" type="line"/>
      <point x="316" y="-192" type="line"/>
      <point x="388" y="-192" type="line"/>
    </contour>
  </outline>
</glyph>
<glyph name="r" format="1">
  <advance width="448"/>
  <unicode hex="0072"/>
  <outline>
    <contour>
      <point x="125" y="0" type="line"/>
      <point x="197" y="0" type="line"/>
      <point x="197" y="384" type="line"/>
      <point x="189" y="448" type="line"/>
      <point x="123" y="448" type="line"/>
      <point x="125" y="383" type="line"/>
    </contour>
    <contour>
      <point x="385" y="445" type="line"/>
      <point x="364" y="450"/>
      <point x="341" y="452"/>
      <point x="323" y="452" type="curve" smooth="yes"/>
      <point x="290" y="452"/>
      <point x="264" y="445"/>
      <point x="238" y="430" type="curve" smooth="yes"/>
      <point x="206" y="411"/>
      <point x="167" y="373"/>
      <point x="158" y="313" type="curve"/>
      <point x="182" y="298" type="line"/>
      <point x="215" y="364"/>
      <point x="263" y="384"/>
      <point x="308" y="384" type="curve" smooth="yes"/>
      <point x="332" y="384"/>
      <point x="352" y="381"/>
      <point x="372" y="377" type="curve"/>
    </contour>
  </outline>
</glyph>
<glyph name="s" format="1">
  <advance width="448"/>
  <unicode hex="0073"/>
  <outline>
    <contour>
      <point x="364" y="439" type="line"/>
      <point x="320" y="451"/>
      <point x="275" y="456"/>
      <point x="238" y="456" type="curve" smooth="yes"/>
      <point x="132" y="456"/>
      <point x="69" y="404"/>
      <point x="69" y="331" type="curve" smooth="yes"/>
      <point x="69" y="176"/>
      <point x="305" y="212"/>
      <point x="305" y="118" type="curve" smooth="yes"/>
      <point x="305" y="82"/>
      <point x="288" y="58"/>
      <point x="209" y="58" type="curve" smooth="yes"/>
      <point x="162" y="58"/>
      <point x="114" y="68"/>
      <point x="77" y="79" type="curve"/>
      <point x="60" y="18" type="line"/>
      <point x="103" y="3"/>
      <point x="156" y="-8"/>
      <point x="211" y="-8" type="curve" smooth="yes"/>
      <point x="305" y="-8"/>
      <point x="381" y="33"/>
      <point x="381" y="119" type="curve" smooth="yes"/>
      <point x="381" y="276"/>
      <point x="145" y="231"/>
      <point x="145" y="331" type="curve" smooth="yes"/>
      <point x="145" y="364"/>
      <point x="161" y="390"/>
      <point x="242" y="390" type="curve" smooth="yes"/>
      <point x="267" y="390"/>
      <point x="308" y="386"/>
      <point x="350" y="375" type="curve"/>
    </contour>
  </outline>
</glyph>
<glyph name="t" format="1">
  <advance width="448"/>
  <unicode hex="0074"/>
  <outline>
    <contour>
      <point x="124" y="448" type="line"/>
      <point x="49" y="448" type="line"/>
      <point x="49" y="387" type="line"/>
      <point x="124" y="383" type="line"/>
      <point x="124" y="139" type="line" smooth="yes"/>
      <point x="124" y="35"/>
      <point x="176" y="-8"/>
      <point x="265" y="-8" type="curve" smooth="yes"/>
      <point x="294" y="-8"/>
      <point x="330" y="-5"/>
      <point x="368" y="2" type="curve"/>
      <point x="359" y="65" type="line"/>
      <point x="324" y="59"/>
      <point x="296" y="57"/>
      <point x="269" y="57" type="curve" smooth="yes"/>
      <point x="211" y="57"/>
      <point x="196" y="94"/>
      <point x="196" y="133" type="curve" smooth="yes"/>
      <point x="196" y="384" type="line"/>
      <point x="354" y="384" type="line"/>
      <point x="354" y="448" type="line"/>
      <point x="196" y="448" type="line"/>
      <point x="196" y="576" type="line"/>
      <point x="124" y="576" type="line"/>
    </contour>
  </outline>
</glyph>
<glyph name="u" format="1">
  <advance width="448"/>
  <unicode hex="0075"/>
  <outline>
    <contour>
      <point x="388" y="448" type="line"/>
      <point x="316" y="448" type="line"/>
      <point x="316" y="64" type="line"/>
      <point x="324" y="0" type="line"/>
      <point x="390" y="0" type="line"/>
      <point x="388" y="65" type="line"/>
    </contour>
    <contour>
      <point x="132" y="448" type="line"/>
      <point x="60" y="448" type="line"/>
      <point x="60" y="151" type="line" smooth="yes"/>
      <point x="60" y="29"/>
      <point x="121" y="-4"/>
      <point x="187" y="-4" type="curve" smooth="yes"/>
      <point x="262" y="-4"/>
      <point x="333" y="49"/>
      <point x="367" y="103" type="curve"/>
      <point x="331" y="134" type="line"/>
      <point x="296" y="94"/>
      <point x="249" y="60"/>
      <point x="201" y="60" type="curve" smooth="yes"/>
      <point x="148" y="60"/>
      <point x="132" y="90"/>
      <point x="132" y="159" type="curve"/>
    </contour>
  </outline>
</glyph>
<glyph name="v" format="1">
  <advance width="448"/>
  <unicode hex="0076"/>
  <outline>
    <contour>
      <point x="237" y="64" type="line"/>
      <point x="171" y="174"/>
      <point x="134" y="262"/>
      <point x="117" y="451" type="curve"/>
      <point x="42" y="447" type="line"/>
      <point x="59" y="249"/>
      <point x="116" y="121"/>
      <point x="199" y="-2" type="curve"/>
      <point x="249" y="-2" type="line"/>
      <point x="332" y="121"/>
      <point x="389" y="249"/>
      <point x="406" y="447" type="curve"/>
      <point x="331" y="451" type="line"/>
      <point x="314" y="262"/>
      <point x="277" y="174"/>
      <point x="211" y="64" type="curve"/>
    </contour>
  </outline>
</glyph>
<glyph name="w" format="1">
  <advance width="448"/>
  <unicode hex="0077"/>
  <outline>
    <contour>
      <point x="163" y="0" type="line"/>
      <point x="173" y="22" type="line"/>
      <point x="120" y="158"/>
      <point x="110" y="285"/>
      <point x="110" y="448" type="curve"/>
      <point x="44" y="448" type="line"/>
      <point x="44" y="302"/>
      <point x="54" y="128"/>
      <point x="118" y="0" type="curve"/>
    </contour>
    <contour>
      <point x="170" y="0" type="line"/>
      <point x="218" y="93"/>
      <point x="248" y="192"/>
      <point x="248" y="320" type="curve"/>
      <point x="192" y="320" type="line"/>
      <point x="192" y="178"/>
      <point x="164" y="106"/>
      <point x="118" y="0" type="curve"/>
    </contour>
    <contour>
      <point x="330" y="0" type="line"/>
      <point x="284" y="106"/>
      <point x="256" y="178"/>
      <point x="256" y="320" type="curve"/>
      <point x="200" y="320" type="line"/>
      <point x="200" y="192"/>
      <point x="230" y="93"/>
      <point x="278" y="0" type="curve"/>
    </contour>
    <contour>
      <point x="330" y="0" type="line"/>
      <point x="394" y="128"/>
      <point x="404" y="302"/>
      <point x="404" y="448" type="curve"/>
      <point x="338" y="448" type="line"/>
      <point x="338" y="285"/>
      <point x="328" y="158"/>
      <point x="275" y="22" type="curve"/>
      <point x="285" y="0" type="line"/>
    </contour>
  </outline>
</glyph>
<glyph name="x" format="1">
  <advance width="448"/>
  <unicode hex="0078"/>
  <outline>
    <contour>
      <point x="254" y="206" type="line"/>
      <point x="337" y="252"/>
      <point x="378" y="327"/>
      <point x="386" y="446" type="curve"/>
      <point x="314" y="449" type="line"/>
      <point x="306" y="342"/>
      <point x="280" y="300"/>
      <point x="218" y="258" type="curve"/>
      <point x="183" y="235" type="line"/>
      <point x="106" y="186"/>
      <point x="64" y="117"/>
      <point x="56" y="3" type="curve"/>
      <point x="128" y="-2" type="line"/>
      <point x="135" y="86"/>
      <point x="165" y="142"/>
      <point x="229" y="189" type="curve"/>
    </contour>
    <contour>
      <point x="219" y="189" type="line"/>
      <point x="283" y="142"/>
      <point x="313" y="86"/>
      <point x="320" y="-2" type="curve"/>
      <point x="392" y="3" type="line"/>
      <point x="384" y="117"/>
      <point x="342" y="186"/>
      <point x="265" y="235" type="curve" smooth="yes"/>
      <point x="230" y="258" type="line" smooth="yes"/>
      <point x="168" y="300"/>
      <point x="142" y="342"/>
      <point x="134" y="449" type="curve"/>
      <point x="62" y="446" type="line"/>
      <point x="70" y="327"/>
      <point x="111" y="252"/>
      <point x="194" y="206" type="curve"/>
    </contour>
  </outline>
</glyph>
<glyph name="y" format="1">
  <advance width="448"/>
  <unicode hex="0079"/>
  <outline>
    <contour>
      <point x="390" y="448" type="curve"/>
      <point x="318" y="449" type="line"/>
      <point x="318" y="251"/>
      <point x="316" y="139"/>
      <point x="298" y="45" type="curve" smooth="yes"/>
      <point x="281" y="-46"/>
      <point x="251" y="-109"/>
      <point x="97" y="-137" type="curve"/>
      <point x="112" y="-199" type="line"/>
      <point x="267" y="-172"/>
      <point x="344" y="-104"/>
      <point x="369" y="34" type="curve" smooth="yes"/>
      <point x="383" y="110"/>
      <point x="390" y="203"/>
    </contour>
    <contour>
      <point x="32" y="445" type="line"/>
      <point x="65" y="151"/>
      <point x="90" y="28"/>
      <point x="321" y="6" type="curve"/>
      <point x="332" y="68" type="line"/>
      <point x="164" y="92"/>
      <point x="138" y="134"/>
      <point x="103" y="451" type="curve"/>
    </contour>
  </outline>
</glyph>
<glyph name="z" format="1">
  <advance width="448"/>
  <unicode hex="007A"/>
  <outline>
    <contour>
      <point x="70" y="384" type="line"/>
      <point x="348" y="384" type="line"/>
      <point x="384" y="428" type="line"/>
      <point x="384" y="448" type="line"/>
      <point x="70" y="448" type="line"/>
    </contour>
    <contour>
      <point x="55" y="0" type="line"/>
      <point x="388" y="0" type="line"/>
      <point x="388" y="64" type="line"/>
      <point x="91" y="64" type="line"/>
      <point x="55" y="16" type="line"/>
    </contour>
    <contour>
      <point x="127" y="10" type="line"/>
      <point x="127" y="91"/>
      <point x="196" y="150"/>
      <point x="254" y="206" type="curve" smooth="yes"/>
      <point x="320" y="269"/>
      <point x="384" y="328"/>
      <point x="384" y="428" type="curve"/>
      <point x="312" y="428" type="line"/>
      <point x="312" y="348"/>
      <point x="251" y="300"/>
      <point x="194" y="244" type="curve" smooth="yes"/>
      <point x="131" y="182"/>
      <point x="55" y="115"/>
      <point x="55" y="16" type="curve"/>
    </contour>
  </outline>
</glyph>
<glyph name="braceleft" format="1">
  <advance width="448"/>
  <unicode hex="007B"/>
  <outline>
    <contour>
      <point x="341" y="-7" type="line"/>
      <point x="253" y="9"/>
      <point x="220" y="24"/>
      <point x="220" y="74" type="curve" smooth="yes"/>
      <point x="220" y="110"/>
      <point x="232" y="144"/>
      <point x="232" y="192" type="curve" smooth="yes"/>
      <point x="232" y="291"/>
      <point x="177" y="313"/>
      <point x="84" y="332" type="curve"/>
      <point x="84" y="276" type="line"/>
      <point x="139" y="267"/>
      <point x="164" y="240"/>
      <point x="164" y="192" type="curve" smooth="yes"/>
      <point x="164" y="146"/>
      <point x="152" y="112"/>
      <point x="152" y="74" type="curve" smooth="yes"/>
      <point x="152" y="-25"/>
      <point x="228" y="-51"/>
      <point x="331" y="-64" type="curve"/>
    </contour>
    <contour>
      <point x="331" y="704" type="line"/>
      <point x="228" y="691"/>
      <point x="152" y="665"/>
      <point x="152" y="566" type="curve" smooth="yes"/>
      <point x="152" y="528"/>
      <point x="164" y="494"/>
      <point x="164" y="448" type="curve" smooth="yes"/>
      <point x="164" y="400"/>
      <point x="139" y="373"/>
      <point x="84" y="364" type="curve"/>
      <point x="84" y="308" type="line"/>
      <point x="177" y="327"/>
      <point x="232" y="349"/>
      <point x="232" y="448" type="curve" smooth="yes"/>
      <point x="232" y="496"/>
      <point x="220" y="530"/>
      <point x="220" y="566" type="curve" smooth="yes"/>
      <point x="220" y="616"/>
      <point x="253" y="631"/>
      <point x="341" y="647" type="curve"/>
    </contour>
  </outline>
</glyph>
<glyph name="bar" format="1">
  <advance width="448"/>
  <unicode hex="007C"/>
  <outline>
    <contour>
      <point x="258" y="704" type="line"/>
      <point x="190" y="704" type="line"/>
      <point x="190" y="-192" type="line"/>
      <point x="258" y="-192" type="line"/>
    </contour>
  </outline>
</glyph>
<glyph name="braceright" format="1">
  <advance width="448"/>
  <unicode hex="007D"/>
  <outline>
    <contour>
      <point x="117" y="-64" type="line"/>
      <point x="220" y="-51"/>
      <point x="296" y="-25"/>
      <point x="296" y="74" type="curve" smooth="yes"/>
      <point x="296" y="112"/>
      <point x="284" y="146"/>
      <point x="284" y="192" type="curve" smooth="yes"/>
      <point x="284" y="240"/>
      <point x="309" y="267"/>
      <point x="364" y="276" type="curve"/>
      <point x="364" y="332" type="line"/>
      <point x="271" y="313"/>
      <point x="216" y="291"/>
      <point x="216" y="192" type="curve" smooth="yes"/>
      <point x="216" y="144"/>
      <point x="228" y="110"/>
      <point x="228" y="74" type="curve" smooth="yes"/>
      <point x="228" y="24"/>
      <point x="195" y="9"/>
      <point x="107" y="-7" type="curve"/>
    </contour>
    <contour>
      <point x="107" y="647" type="line"/>
      <point x="195" y="631"/>
      <point x="228" y="616"/>
      <point x="228" y="566" type="curve" smooth="yes"/>
      <point x="228" y="530"/>
      <point x="216" y="496"/>
      <point x="216" y="448" type="curve" smooth="yes"/>
      <point x="216" y="349"/>
      <point x="271" y="327"/>
      <point x="364" y="308" type="curve"/>
      <point x="364" y="364" type="line"/>
      <point x="309" y="373"/>
      <point x="284" y="400"/>
      <point x="284" y="448" type="curve" smooth="yes"/>
      <point x="284" y="494"/>
      <point x="296" y="528"/>
      <point x="296" y="566" type="curve" smooth="yes"/>
      <point x="296" y="665"/>
      <point x="220" y="691"/>
      <point x="117" y="704" type="curve"/>
    </contour>
  </outline>
</glyph>
<glyph name="asciitilde" format="1">
  <advance width="448"/>
  <unicode hex="007E"/>
  <outline>
    <contour>
      <point x="156" y="384" type="curve" smooth="yes"/>
      <point x="72" y="384"/>
      <point x="64" y="320"/>
      <point x="58" y="209" type="curve"/>
      <point x="123" y="207" type="line"/>
      <point x="128" y="287"/>
      <point x="132" y="324"/>
      <point x="156" y="324" type="curve" smooth="yes"/>
      <point x="192" y="324"/>
      <point x="186" y="192"/>
      <point x="292" y="192" type="curve" smooth="yes"/>
      <point x="376" y="192"/>
      <point x="384" y="256"/>
      <point x="390" y="367" type="curve"/>
      <point x="325" y="369" type="line"/>
      <point x="320" y="288"/>
      <point x="316" y="252"/>
      <point x="292" y="252" type="curve" smooth="yes"/>
      <point x="256" y="252"/>
      <point x="262" y="384"/>
    </contour>
  </outline>
</glyph>
<glyph name="sterling" format="1">
  <advance width="448"/>
  <unicode hex="00A3"/>
  <outline>
    <contour>
      <point x="54" y="0" type="line"/>
      <point x="394" y="0" type="line"/>
      <point x="394" y="64" type="line"/>
      <point x="54" y="64" type="line"/>
    </contour>
    <contour>
      <point x="74" y="192" type="line"/>
      <point x="340" y="192" type="line"/>
      <point x="340" y="256" type="line"/>
      <point x="74" y="256" type="line"/>
    </contour>
    <contour>
      <point x="124" y="17" type="line"/>
      <point x="196" y="17" type="line"/>
      <point x="196" y="365" type="line" smooth="yes"/>
      <point x="196" y="466"/>
      <point x="210" y="492"/>
      <point x="366" y="516" type="curve"/>
      <point x="357" y="581" type="line"/>
      <point x="158" y="557"/>
      <point x="124" y="488"/>
      <point x="124" y="369" type="curve" smooth="yes"/>
    </contour>
  </outline>
</glyph>
<glyph name="currency" format="1">
  <advance width="448"/>
  <unicode hex="00A4"/>
  <outline>
    <contour>
      <point x="46" y="288" type="curve" smooth="yes"/>
      <point x="46" y="191"/>
      <point x="122" y="112"/>
      <point x="224" y="112" type="curve" smooth="yes"/>
      <point x="326" y="112"/>
      <point x="402" y="191"/>
      <point x="402" y="288" type="curve" smooth="yes"/>
      <point x="402" y="385"/>
      <point x="326" y="464"/>
      <point x="224" y="464" type="curve" smooth="yes"/>
      <point x="122" y="464"/>
      <point x="46" y="385"/>
    </contour>
    <contour>
      <point x="114" y="288" type="curve" smooth="yes"/>
      <point x="114" y="350"/>
      <point x="161" y="400"/>
      <point x="224" y="400" type="curve" smooth="yes"/>
      <point x="287" y="400"/>
      <point x="334" y="350"/>
      <point x="334" y="288" type="curve" smooth="yes"/>
      <point x="334" y="226"/>
      <point x="287" y="176"/>
      <point x="224" y="176" type="curve" smooth="yes"/>
      <point x="161" y="176"/>
      <point x="114" y="226"/>
    </contour>
    <contour>
      <point x="166" y="421" type="line"/>
      <point x="95" y="519" type="line"/>
      <point x="43" y="481" type="line"/>
      <point x="115" y="383" type="line"/>
    </contour>
    <contour>
      <point x="282" y="154" type="line"/>
      <point x="353" y="57" type="line"/>
      <point x="405" y="95" type="line"/>
      <point x="332" y="194" type="line"/>
    </contour>
    <contour>
      <point x="333" y="383" type="line"/>
      <point x="405" y="481" type="line"/>
      <point x="353" y="519" type="line"/>
      <point x="282" y="421" type="line"/>
    </contour>
    <contour>
      <point x="116" y="194" type="line"/>
      <point x="43" y="95" type="line"/>
      <point x="95" y="57" type="line"/>
      <point x="166" y="154" type="line"/>
    </contour>
  </outline>
</glyph>
<glyph name="brokenbar" format="1">
  <advance width="448"/>
  <unicode hex="00A6"/>
  <outline>
    <contour>
      <point x="258" y="704" type="line"/>
      <point x="190" y="704" type="line"/>
      <point x="190" y="320" type="line"/>
      <point x="258" y="320" type="line"/>
    </contour>
    <contour>
      <point x="258" y="192" type="line"/>
      <point x="190" y="192" type="line"/>
      <point x="190" y="-192" type="line"/>
      <point x="258" y="-192" type="line"/>
    </contour>
  </outline>
</glyph>
<glyph name="logicalnot" format="1">
  <advance width="448"/>
  <unicode hex="00AC"/>
  <outline>
    <contour>
      <point x="386" y="354" type="line"/>
      <point x="64" y="354" type="line"/>
      <point x="64" y="290" type="line"/>
      <point x="318" y="290" type="line"/>
      <point x="318" y="162" type="line"/>
      <point x="386" y="162" type="line"/>
    </contour>
  </outline>
</glyph>
<glyph name="registered" format="1">
  <advance width="448"/>
  <unicode hex="00AE"/>
  <outline>
    <contour>
      <point x="8" y="447" type="curve" smooth="yes"/>
      <point x="8" y="284"/>
      <point x="116" y="202"/>
      <point x="224" y="202" type="curve" smooth="yes"/>
      <point x="332" y="202"/>
      <point x="440" y="284"/>
      <point x="440" y="447" type="curve" smooth="yes"/>
      <point x="440" y="612"/>
      <point x="332" y="692"/>
      <point x="224" y="692" type="curve" smooth="yes"/>
      <point x="116" y="692"/>
      <point x="8" y="612"/>
    </contour>
    <contour>
      <point x="60" y="447" type="curve" smooth="yes"/>
      <point x="60" y="545"/>
      <point x="104" y="644"/>
      <point x="224" y="644" type="curve" smooth="yes"/>
      <point x="344" y="644"/>
      <point x="388" y="545"/>
      <point x="388" y="447" type="curve" smooth="yes"/>
      <point x="388" y="347"/>
      <point x="344" y="250"/>
      <point x="224" y="250" type="curve" smooth="yes"/>
      <point x="104" y="250"/>
      <point x="60" y="347"/>
    </contour>
    <contour>
      <point x="133" y="324" type="line"/>
      <point x="183" y="324" type="line"/>
      <point x="183" y="580" type="line"/>
      <point x="133" y="580" type="line"/>
    </contour>
    <contour>
      <point x="158" y="580" type="line"/>
      <point x="158" y="540" type="line"/>
      <point x="209" y="540" type="line" smooth="yes"/>
      <point x="257" y="540"/>
      <point x="269" y="525"/>
      <point x="269" y="497" type="curve" smooth="yes"/>
      <point x="269" y="470"/>
      <point x="257" y="453"/>
      <point x="209" y="453" type="curve" smooth="yes"/>
      <point x="157" y="453" type="line"/>
      <point x="157" y="413" type="line"/>
      <point x="219" y="413" type="line"/>
      <point x="213" y="417" type="line"/>
      <point x="215" y="417" type="line" smooth="yes"/>
      <point x="280" y="417"/>
      <point x="320" y="447"/>
      <point x="320" y="497" type="curve" smooth="yes"/>
      <point x="320" y="552"/>
      <point x="280" y="580"/>
      <point x="215" y="580" type="curve" smooth="yes"/>
    </contour>
    <contour>
      <point x="326" y="333" type="line"/>
      <point x="312" y="384"/>
      <point x="287" y="411"/>
      <point x="250" y="429" type="curve"/>
      <point x="205" y="419" type="line"/>
      <point x="243" y="398"/>
      <point x="263" y="369"/>
      <point x="276" y="319" type="curve"/>
    </contour>
  </outline>
</glyph>
<glyph name="acute" format="1">
  <advance width="448"/>
  <unicode hex="00B4"/>
  <outline>
    <contour>
      <point x="309" y="629" type="line"/>
      <point x="215" y="644" type="line"/>
      <point x="151" y="394" type="line"/>
      <point x="220" y="379" type="line"/>
    </contour>
  </outline>
</glyph>
<glyph name="AE" format="1">
  <advance width="448"/>
  <unicode hex="00C6"/>
  <outline>
    <contour>
      <point x="56" y="-2" type="line"/>
      <point x="77" y="237"/>
      <point x="121" y="439"/>
      <point x="181" y="576" type="curve"/>
      <point x="448" y="576" type="line"/>
      <point x="448" y="640" type="line"/>
      <point x="136" y="640" type="line"/>
      <point x="55" y="476"/>
      <point x="2" y="245"/>
      <point x="-18" y="3" type="curve"/>
    </contour>
    <contour>
      <point x="43" y="192" type="line"/>
      <point x="234" y="192" type="line"/>
      <point x="234" y="256" type="line"/>
      <point x="43" y="256" type="line"/>
    </contour>
    <contour>
      <point x="199" y="0" type="line"/>
      <point x="271" y="0" type="line"/>
      <point x="271" y="576" type="line"/>
      <point x="199" y="576" type="line"/>
    </contour>
    <contour>
      <point x="266" y="0" type="line"/>
      <point x="458" y="0" type="line"/>
      <point x="458" y="64" type="line"/>
      <point x="266" y="64" type="line"/>
    </contour>
    <contour>
      <point x="266" y="256" type="line"/>
      <point x="394" y="256" type="line"/>
      <point x="394" y="320" type="line"/>
      <point x="266" y="320" type="line"/>
    </contour>
  </outline>
</glyph>
<glyph name="multiply" format="1">
  <advance width="448"/>
  <unicode hex="00D7"/>
  <outline>
    <contour>
      <point x="362" y="101" type="line"/>
      <point x="411" y="150" type="line"/>
      <point x="89" y="472" type="line"/>
      <point x="40" y="423" type="line"/>
    </contour>
    <contour>
      <point x="408" y="423" type="line"/>
      <point x="359" y="472" type="line"/>
      <point x="37" y="150" type="line"/>
      <point x="86" y="101" type="line"/>
    </contour>
  </outline>
</glyph>
<glyph name="Oslash" format="1">
  <advance width="448"/>
  <unicode hex="00D8"/>
  <outline>
    <contour>
      <point x="34" y="15" type="line"/>
      <point x="93" y="-16" type="line"/>
      <point x="414" y="626" type="line"/>
      <point x="355" y="656" type="line"/>
    </contour>
    <component base="O"/>
  </outline>
</glyph>
<glyph name="Thorn" format="1">
  <advance width="448"/>
  <unicode hex="00DE"/>
  <outline>
    <contour>
      <point x="60" y="0" type="line"/>
      <point x="132" y="0" type="line"/>
      <point x="132" y="640" type="line"/>
      <point x="60" y="640" type="line"/>
    </contour>
    <contour>
      <point x="107" y="512" type="line"/>
      <point x="107" y="448" type="line"/>
      <point x="208" y="448" type="line" smooth="yes"/>
      <point x="301" y="448"/>
      <point x="327" y="399"/>
      <point x="327" y="318" type="curve" smooth="yes"/>
      <point x="327" y="241"/>
      <point x="303" y="192"/>
      <point x="208" y="192" type="curve" smooth="yes"/>
      <point x="105" y="192" type="line"/>
      <point x="105" y="128" type="line"/>
      <point x="215" y="128" type="line" smooth="yes"/>
      <point x="327" y="128"/>
      <point x="401" y="192"/>
      <point x="401" y="318" type="curve" smooth="yes"/>
      <point x="401" y="443"/>
      <point x="327" y="512"/>
      <point x="215" y="512" type="curve" smooth="yes"/>
    </contour>
  </outline>
</glyph>
<glyph name="germandbls" format="1">
  <advance width="448"/>
  <unicode hex="00DF"/>
  <outline>
    <contour>
      <point x="215" y="584" type="curve" smooth="yes"/>
      <point x="156" y="584"/>
      <point x="132" y="553"/>
      <point x="132" y="502" type="curve" smooth="yes"/>
      <point x="132" y="0" type="line"/>
      <point x="60" y="0" type="line"/>
      <point x="60" y="496" type="line" smooth="yes"/>
      <point x="60" y="605"/>
      <point x="128" y="648"/>
      <point x="217" y="648" type="curve" smooth="yes"/>
      <point x="302" y="648"/>
      <point x="370" y="603"/>
      <point x="370" y="516" type="curve" smooth="yes"/>
      <point x="370" y="462"/>
      <point x="345" y="430"/>
      <point x="306" y="396" type="curve" smooth="yes"/>
      <point x="275" y="369"/>
      <point x="262" y="356"/>
      <point x="262" y="328" type="curve" smooth="yes"/>
      <point x="262" y="247"/>
      <point x="408" y="239"/>
      <point x="408" y="117" type="curve" smooth="yes"/>
      <point x="408" y="31"/>
      <point x="347" y="-8"/>
      <point x="274" y="-8" type="curve" smooth="yes"/>
      <point x="242" y="-8"/>
      <point x="212" y="-3"/>
      <point x="188" y="4" type="curve"/>
      <point x="200" y="67" type="line"/>
      <point x="221" y="62"/>
      <point x="242" y="58"/>
      <point x="267" y="58" type="curve" smooth="yes"/>
      <point x="312" y="58"/>
      <point x="332" y="76"/>
      <point x="332" y="117" type="curve" smooth="yes"/>
      <point x="332" y="203"/>
      <point x="186" y="199"/>
      <point x="186" y="327" type="curve" smooth="yes"/>
      <point x="186" y="389"/>
      <point x="227" y="417"/>
      <point x="256" y="441" type="curve" smooth="yes"/>
      <point x="280" y="461"/>
      <point x="294" y="476"/>
      <point x="294" y="515" type="curve" smooth="yes"/>
      <point x="294" y="562"/>
      <point x="265" y="584"/>
    </contour>
  </outline>
</glyph>
<glyph name="eth" format="1">
  <advance width="448"/>
  <unicode hex="00F0"/>
  <outline>
    <contour>
      <point x="132" y="596" type="line"/>
      <point x="286" y="491"/>
      <point x="327" y="389"/>
      <point x="327" y="247" type="curve" smooth="yes"/>
      <point x="327" y="135"/>
      <point x="307" y="56"/>
      <point x="224" y="56" type="curve" smooth="yes"/>
      <point x="145" y="56"/>
      <point x="121" y="121"/>
      <point x="121" y="203" type="curve" smooth="yes"/>
      <point x="121" y="280"/>
      <point x="140" y="350"/>
      <point x="223" y="350" type="curve" smooth="yes"/>
      <point x="263" y="350"/>
      <point x="305" y="334"/>
      <point x="335" y="311" type="curve"/>
      <point x="362" y="351" type="line"/>
      <point x="320" y="391"/>
      <point x="269" y="414"/>
      <point x="215" y="414" type="curve" smooth="yes"/>
      <point x="122" y="414"/>
      <point x="47" y="338"/>
      <point x="47" y="203" type="curve" smooth="yes"/>
      <point x="47" y="74"/>
      <point x="115" y="-8"/>
      <point x="221" y="-8" type="curve" smooth="yes"/>
      <point x="336" y="-8"/>
      <point x="400" y="80"/>
      <point x="400" y="252" type="curve" smooth="yes"/>
      <point x="400" y="412"/>
      <point x="330" y="542"/>
      <point x="168" y="648" type="curve"/>
    </contour>
    <contour>
      <point x="154" y="461" type="line"/>
      <point x="341" y="591" type="line"/>
      <point x="310" y="635" type="line"/>
      <point x="123" y="505" type="line"/>
    </contour>
  </outline>
</glyph>
<glyph name="divide" format="1">
  <advance width="448"/>
  <unicode hex="00F7"/>
  <outline>
    <contour>
      <point x="24" y="256" type="line"/>
      <point x="424" y="256" type="line"/>
      <point x="424" y="320" type="line"/>
      <point x="24" y="320" type="line"/>
    </contour>
    <contour>
      <point x="160" y="126" type="curve" smooth="yes"/>
      <point x="160" y="84"/>
      <point x="189" y="62"/>
      <point x="224" y="62" type="curve" smooth="yes"/>
      <point x="259" y="62"/>
      <point x="288" y="84"/>
      <point x="288" y="126" type="curve" smooth="yes"/>
      <point x="288" y="167"/>
      <point x="259" y="190"/>
      <point x="224" y="190" type="curve" smooth="yes"/>
      <point x="189" y="190"/>
      <point x="160" y="167"/>
    </contour>
    <contour>
      <point x="160" y="450" type="curve" smooth="yes"/>
      <point x="160" y="408"/>
      <point x="189" y="386"/>
      <point x="224" y="386" type="curve" smooth="yes"/>
      <point x="259" y="386"/>
      <point x="288" y="408"/>
      <point x="288" y="450" type="curve" smooth="yes"/>
      <point x="288" y="491"/>
      <point x="259" y="514"/>
      <point x="224" y="514" type="curve" smooth="yes"/>
      <point x="189" y="514"/>
      <point x="160" y="491"/>
    </contour>
  </outline>
</glyph>
<glyph name="Dcroat" format="1">
  <advance width="448"/>
  <unicode hex="0110"/>
  <outline>
    <contour>
      <point x="5" y="256" type="line"/>
      <point x="236" y="256" type="line"/>
      <point x="236" y="320" type="line"/>
      <point x="5" y="320" type="line"/>
    </contour>
    <component base="D"/>
  </outline>
</glyph>
<glyph name="Hbar" format="1">
  <advance width="448"/>
  <unicode hex="0126"/>
  <outline>
    <contour>
      <point x="10" y="440" type="line"/>
      <point x="438" y="440" type="line"/>
      <point x="438" y="500" type="line"/>
      <point x="10" y="500" type="line"/>
    </contour>
    <component base="H"/>
  </outline>
</glyph>
<glyph name="dotlessi" format="1">
  <advance width="448"/>
  <unicode hex="0131"/>
  <outline>
    <contour>
      <point x="64" y="390" type="line"/>
      <point x="188" y="382" type="line"/>
      <point x="188" y="0" type="line"/>
      <point x="260" y="0" type="line"/>
      <point x="260" y="448" type="line"/>
      <point x="64" y="448" type="line"/>
    </contour>
    <contour>
      <point x="220" y="448" type="move" name="topLC"/>
    </contour>
  </outline>
</glyph>
<glyph name="IJ" format="1">
  <advance width="448"/>
  <unicode hex="0132"/>
  <outline>
    <contour>
      <point x="288" y="0" type="line" smooth="yes"/>
      <point x="384" y="0"/>
      <point x="452" y="51"/>
      <point x="452" y="181" type="curve" smooth="yes"/>
      <point x="452" y="640" type="line"/>
      <point x="276" y="640" type="line"/>
      <point x="276" y="576" type="line"/>
      <point x="380" y="576" type="line"/>
      <point x="380" y="177" type="line" smooth="yes"/>
      <point x="380" y="108"/>
      <point x="361" y="64"/>
      <point x="288" y="64" type="curve" smooth="yes"/>
      <point x="132" y="64" type="line"/>
      <point x="132" y="576" type="line"/>
      <point x="188" y="576" type="line"/>
      <point x="188" y="640" type="line"/>
      <point x="4" y="640" type="line"/>
      <point x="4" y="576" type="line"/>
      <point x="60" y="576" type="line"/>
      <point x="60" y="64" type="line"/>
      <point x="0" y="64" type="line"/>
      <point x="0" y="0" type="line"/>
    </contour>
  </outline>
</glyph>
<glyph name="eng" format="1">
  <advance width="448"/>
  <unicode hex="014B"/>
  <outline>
    <contour>
      <point x="60" y="0" type="line"/>
      <point x="132" y="0" type="line"/>
      <point x="132" y="384" type="line"/>
      <point x="124" y="448" type="line"/>
      <point x="58" y="448" type="line"/>
      <point x="60" y="383" type="line"/>
    </contour>
    <contour>
      <point x="316" y="-13" type="line" smooth="yes"/>
      <point x="316" y="-83"/>
      <point x="299" y="-111"/>
      <point x="239" y="-136" type="curve"/>
      <point x="268" y="-196" type="line"/>
      <point x="358" y="-158"/>
      <point x="388" y="-98"/>
      <point x="388" y="-5" type="curve" smooth="yes"/>
      <point x="388" y="297" type="line" smooth="yes"/>
      <point x="388" y="419"/>
      <point x="327" y="452"/>
      <point x="261" y="452" type="curve" smooth="yes"/>
      <point x="186" y="452"/>
      <point x="115" y="399"/>
      <point x="81" y="345" type="curve"/>
      <point x="117" y="314" type="line"/>
      <point x="152" y="354"/>
      <point x="199" y="388"/>
      <point x="247" y="388" type="curve" smooth="yes"/>
      <point x="300" y="388"/>
      <point x="316" y="358"/>
      <point x="316" y="289" type="curve" smooth="yes"/>
    </contour>
  </outline>
</glyph>
<glyph name="Tbar" format="1">
  <advance width="448"/>
  <unicode hex="0166"/>
  <outline>
    <contour>
      <point x="364" y="318" type="line"/>
      <point x="84" y="318" type="line"/>
      <point x="84" y="258" type="line"/>
      <point x="364" y="258" type="line"/>
    </contour>
    <component base="T"/>
  </outline>
</glyph>
<glyph name="uni018F" format="1">
  <advance width="448"/>
  <unicode hex="018F"/>
  <outline>
    <contour>
      <point x="39" y="384" type="line"/>
      <point x="38" y="365"/>
      <point x="37" y="341"/>
      <point x="37" y="319" type="curve" smooth="yes"/>
      <point x="37" y="102"/>
      <point x="98" y="-10"/>
      <point x="224" y="-10" type="curve" smooth="yes"/>
      <point x="353" y="-10"/>
      <point x="411" y="102"/>
      <point x="411" y="319" type="curve" smooth="yes"/>
      <point x="411" y="560"/>
      <point x="353" y="647"/>
      <point x="197" y="647" type="curve" smooth="yes"/>
      <point x="164" y="647"/>
      <point x="118" y="642"/>
      <point x="80" y="632" type="curve"/>
      <point x="94" y="571" type="line"/>
      <point x="132" y="580"/>
      <point x="169" y="583"/>
      <point x="191" y="583" type="curve" smooth="yes"/>
      <point x="322" y="583"/>
      <point x="335" y="507"/>
      <point x="335" y="319" type="curve" smooth="yes"/>
      <point x="335" y="128"/>
      <point x="305" y="56"/>
      <point x="224" y="56" type="curve" smooth="yes"/>
      <point x="143" y="56"/>
      <point x="113" y="128"/>
      <point x="113" y="320" type="curve"/>
      <point x="384" y="320" type="line"/>
      <point x="384" y="384" type="line"/>
    </contour>
  </outline>
</glyph>
<glyph name="florin" format="1">
  <advance width="448"/>
  <unicode hex="0192"/>
  <outline>
    <contour>
      <point x="398" y="638" type="line"/>
      <point x="360" y="645"/>
      <point x="324" y="648"/>
      <point x="290" y="648" type="curve" smooth="yes"/>
      <point x="212" y="648"/>
      <point x="154" y="605"/>
      <point x="154" y="504" type="curve" smooth="yes"/>
      <point x="154" y="448" type="line"/>
      <point x="79" y="448" type="line"/>
      <point x="79" y="386" type="line"/>
      <point x="154" y="383" type="line"/>
      <point x="154" y="-13" type="line" smooth="yes"/>
      <point x="154" y="-79"/>
      <point x="133" y="-108"/>
      <point x="77" y="-136" type="curve"/>
      <point x="106" y="-196" type="line"/>
      <point x="196" y="-155"/>
      <point x="226" y="-101"/>
      <point x="226" y="-5" type="curve" smooth="yes"/>
      <point x="226" y="384" type="line"/>
      <point x="370" y="384" type="line"/>
      <point x="370" y="448" type="line"/>
      <point x="226" y="448" type="line"/>
      <point x="226" y="509" type="line" smooth="yes"/>
      <point x="226" y="549"/>
      <point x="241" y="584"/>
      <point x="294" y="584" type="curve" smooth="yes"/>
      <point x="324" y="584"/>
      <point x="354" y="580"/>
      <point x="387" y="575" type="curve"/>
    </contour>
  </outline>
</glyph>
<glyph name="Oslashacute" format="1">
  <advance width="448"/>
  <unicode hex="01FE"/>
  <outline>
    <contour>
      <point x="34.0" y="15.0" type="line"/>
      <point x="93.0" y="-16.0" type="line"/>
      <point x="414.0" y="626.0" type="line"/>
      <point x="355.0" y="656.0" type="line"/>
    </contour>
    <component base="O"/>
    <component base="acutecomb.case"/>
  </outline>
</glyph>
<glyph name="oslashacute" format="1">
  <advance width="448"/>
  <unicode hex="01FF"/>
  <outline>
    <contour>
      <point x="28.0" y="32.0" type="line"/>
      <point x="79.0" y="-10.0" type="line"/>
      <point x="421.0" y="418.0" type="line"/>
      <point x="369.0" y="458.0" type="line"/>
    </contour>
    <component base="o"/>
    <component base="acutecomb"/>
  </outline>
</glyph>
<glyph name="uni0237" format="1">
  <advance width="448"/>
  <unicode hex="0237"/>
  <outline>
    <contour>
      <point x="260" y="448" type="line"/>
      <point x="64" y="448" type="line"/>
      <point x="64" y="390" type="line"/>
      <point x="188" y="382" type="line"/>
      <point x="188" y="-49" type="line" smooth="yes"/>
      <point x="188" y="-109"/>
      <point x="169" y="-140"/>
      <point x="105" y="-140" type="curve" smooth="yes"/>
      <point x="77" y="-140"/>
      <point x="57" y="-138"/>
      <point x="36" y="-136" type="curve"/>
      <point x="30" y="-194" type="line"/>
      <point x="59" y="-198"/>
      <point x="81" y="-200"/>
      <point x="111" y="-200" type="curve" smooth="yes"/>
      <point x="200" y="-200"/>
      <point x="260" y="-162"/>
      <point x="260" y="-45" type="curve" smooth="yes"/>
    </contour>
    <contour>
      <point x="220" y="448" type="move" name="topLC"/>
    </contour>
  </outline>
</glyph>
<glyph name="gravecomb" format="1">
  <advance width="448"/>
  <unicode hex="0300"/>
  <outline>
    <contour>
      <point x="187" y="669" type="line"/>
      <point x="116" y="616" type="line"/>
      <point x="236" y="504" type="line"/>
      <point x="284" y="546" type="line"/>
    </contour>
    <contour>
      <point x="224" y="448" type="move" name="_topLC"/>
    </contour>
  </outline>
</glyph>
<glyph name="acutecomb" format="1">
  <advance width="448"/>
  <unicode hex="0301"/>
  <outline>
    <contour>
      <point x="171" y="546" type="line"/>
      <point x="219" y="504" type="line"/>
      <point x="339" y="616" type="line"/>
      <point x="268" y="669" type="line"/>
    </contour>
    <contour>
      <point x="224" y="448" type="move" name="_topLC"/>
    </contour>
  </outline>
</glyph>
<glyph name="uni0302" format="1">
  <advance width="448"/>
  <unicode hex="0302"/>
  <outline>
    <contour>
      <point x="196" y="650" type="line"/>
      <point x="114" y="511" type="line"/>
      <point x="184" y="511" type="line"/>
      <point x="242" y="620" type="line"/>
      <point x="206" y="620" type="line"/>
      <point x="264" y="511" type="line"/>
      <point x="334" y="511" type="line"/>
      <point x="252" y="650" type="line"/>
    </contour>
    <contour>
      <point x="224" y="448" type="move" name="_topLC"/>
    </contour>
  </outline>
</glyph>
<glyph name="tildecomb" format="1">
  <advance width="448"/>
  <unicode hex="0303"/>
  <outline>
    <contour>
      <point x="192" y="512" type="line"/>
      <point x="256" y="512" type="line"/>
      <point x="256" y="576" type="line"/>
      <point x="192" y="576" type="line"/>
    </contour>
    <contour>
      <point x="320" y="576" type="line"/>
      <point x="384" y="576" type="line"/>
      <point x="384" y="640" type="line"/>
      <point x="320" y="640" type="line"/>
    </contour>
    <contour>
      <point x="256" y="512" type="line"/>
      <point x="320" y="512" type="line"/>
      <point x="320" y="576" type="line"/>
      <point x="256" y="576" type="line"/>
    </contour>
    <contour>
      <point x="128" y="512" type="line"/>
      <point x="192" y="512" type="line"/>
      <point x="192" y="576" type="line"/>
      <point x="128" y="576" type="line"/>
    </contour>
    <contour>
      <point x="64" y="448" type="line"/>
      <point x="128" y="448" type="line"/>
      <point x="128" y="512" type="line"/>
      <point x="64" y="512" type="line"/>
    </contour>
    <contour>
      <point x="224" y="448" type="move" name="_top"/>
    </contour>
  </outline>
</glyph>
<glyph name="uni0304" format="1">
  <advance width="448"/>
  <unicode hex="0304"/>
  <outline>
    <contour>
      <point x="364" y="640" type="line"/>
      <point x="84" y="640" type="line"/>
      <point x="84" y="576" type="line"/>
      <point x="364" y="576" type="line"/>
    </contour>
    <contour>
      <point x="224" y="448" type="move" name="_topLC"/>
    </contour>
  </outline>
</glyph>
<glyph name="uni0305" format="1">
  <advance width="448"/>
  <unicode hex="0305"/>
  <note>
    overline
  </note>
  <outline>
    <contour>
      <point x="-10" y="768" type="line"/>
      <point x="458" y="768" type="line"/>
      <point x="458" y="832" type="line"/>
      <point x="-10" y="832" type="line"/>
    </contour>
    <contour>
      <point x="224" y="640" type="move" name="_topUC"/>
    </contour>
  </outline>
</glyph>
<glyph name="uni0307" format="1">
  <advance width="448"/>
  <unicode hex="0307"/>
  <outline>
    <contour>
      <point x="165" y="591" type="curve" smooth="yes"/>
      <point x="165" y="552"/>
      <point x="192" y="532"/>
      <point x="224" y="532" type="curve" smooth="yes"/>
      <point x="256" y="532"/>
      <point x="283" y="552"/>
      <point x="283" y="591" type="curve" smooth="yes"/>
      <point x="283" y="629"/>
      <point x="256" y="650"/>
      <point x="224" y="650" type="curve" smooth="yes"/>
      <point x="192" y="650"/>
      <point x="165" y="629"/>
    </contour>
    <contour>
      <point x="224" y="448" type="move" name="_topLC"/>
    </contour>
  </outline>
</glyph>
<glyph name="uni0308" format="1">
  <advance width="448"/>
  <unicode hex="0308"/>
  <outline>
    <contour>
      <point x="84" y="586" type="curve" smooth="yes"/>
      <point x="84" y="541"/>
      <point x="100" y="522"/>
      <point x="122" y="522" type="curve" smooth="yes"/>
      <point x="144" y="522"/>
      <point x="160" y="541"/>
      <point x="160" y="586" type="curve" smooth="yes"/>
      <point x="160" y="631"/>
      <point x="144" y="650"/>
      <point x="122" y="650" type="curve" smooth="yes"/>
      <point x="100" y="650"/>
      <point x="84" y="631"/>
    </contour>
    <contour>
      <point x="288" y="586" type="curve" smooth="yes"/>
      <point x="288" y="541"/>
      <point x="304" y="522"/>
      <point x="326" y="522" type="curve" smooth="yes"/>
      <point x="348" y="522"/>
      <point x="364" y="541"/>
      <point x="364" y="586" type="curve" smooth="yes"/>
      <point x="364" y="631"/>
      <point x="348" y="650"/>
      <point x="326" y="650" type="curve" smooth="yes"/>
      <point x="304" y="650"/>
      <point x="288" y="631"/>
    </contour>
    <contour>
      <point x="284.0" y="460.0" type="move" name="_topLC"/>
    </contour>
  </outline>
</glyph>
<glyph name="uni0309" format="1">
  <advance width="448"/>
  <unicode hex="0309"/>
  <outline>
    <contour>
      <point x="192" y="512" type="line"/>
      <point x="256" y="512" type="line"/>
      <point x="256" y="576" type="line"/>
      <point x="192" y="576" type="line"/>
    </contour>
    <contour>
      <point x="256" y="576" type="line"/>
      <point x="320" y="576" type="line"/>
      <point x="320" y="640" type="line"/>
      <point x="256" y="640" type="line"/>
    </contour>
    <contour>
      <point x="192" y="640" type="line"/>
      <point x="256" y="640" type="line"/>
      <point x="256" y="704" type="line"/>
      <point x="192" y="704" type="line"/>
    </contour>
    <contour>
      <point x="128" y="640" type="line"/>
      <point x="192" y="640" type="line"/>
      <point x="192" y="704" type="line"/>
      <point x="128" y="704" type="line"/>
    </contour>
    <contour>
      <point x="256" y="640" type="line"/>
      <point x="320" y="640" type="line"/>
      <point x="320" y="704" type="line"/>
      <point x="256" y="704" type="line"/>
    </contour>
    <contour>
      <point x="284.0" y="460.0" type="move" name="_topLC"/>
    </contour>
  </outline>
</glyph>
<glyph name="uni030A" format="1">
  <advance width="448"/>
  <unicode hex="030A"/>
  <outline>
    <contour>
      <point x="121" y="595" type="curve" smooth="yes"/>
      <point x="121" y="539"/>
      <point x="165" y="493"/>
      <point x="224" y="493" type="curve" smooth="yes"/>
      <point x="283" y="493"/>
      <point x="327" y="539"/>
      <point x="327" y="595" type="curve" smooth="yes"/>
      <point x="327" y="651"/>
      <point x="283" y="697"/>
      <point x="224" y="697" type="curve" smooth="yes"/>
      <point x="165" y="697"/>
      <point x="121" y="651"/>
    </contour>
    <contour>
      <point x="180" y="595" type="curve" smooth="yes"/>
      <point x="180" y="620"/>
      <point x="198" y="641"/>
      <point x="224" y="641" type="curve" smooth="yes"/>
      <point x="250" y="641"/>
      <point x="268" y="620"/>
      <point x="268" y="595" type="curve" smooth="yes"/>
      <point x="268" y="570"/>
      <point x="250" y="549"/>
      <point x="224" y="549" type="curve" smooth="yes"/>
      <point x="198" y="549"/>
      <point x="180" y="570"/>
    </contour>
    <contour>
      <point x="284.0" y="460.0" type="move" name="_topLC"/>
    </contour>
  </outline>
</glyph>
<glyph name="uni030C" format="1">
  <advance width="448"/>
  <unicode hex="030C"/>
  <outline>
    <contour>
      <point x="252" y="504" type="line"/>
      <point x="334" y="643" type="line"/>
      <point x="264" y="643" type="line"/>
      <point x="206" y="534" type="line"/>
      <point x="242" y="534" type="line"/>
      <point x="184" y="643" type="line"/>
      <point x="114" y="643" type="line"/>
      <point x="196" y="504" type="line"/>
    </contour>
    <contour>
      <point x="284.0" y="460.0" type="move" name="_topLC"/>
    </contour>
  </outline>
</glyph>
<glyph name="uni0326" format="1">
  <advance width="448"/>
  <unicode hex="0326"/>
  <outline>
    <contour>
      <point x="192" y="-128" type="line"/>
      <point x="256" y="-128" type="line"/>
      <point x="256" y="-64" type="line"/>
      <point x="192" y="-64" type="line"/>
    </contour>
    <contour>
      <point x="192" y="-192" type="line"/>
      <point x="256" y="-192" type="line"/>
      <point x="256" y="-128" type="line"/>
      <point x="192" y="-128" type="line"/>
    </contour>
    <contour>
      <point x="224" y="0" type="move" name="_bottom"/>
    </contour>
  </outline>
</glyph>
<glyph name="uni0327" format="1">
  <advance width="448"/>
  <unicode hex="0327"/>
  <outline>
    <contour>
      <point x="128" y="-192" type="line"/>
      <point x="294" y="-192"/>
      <point x="322" y="-97"/>
      <point x="322" y="10" type="curve"/>
      <point x="254" y="10" type="line"/>
      <point x="254" y="-96"/>
      <point x="226" y="-125"/>
      <point x="126" y="-128" type="curve"/>
    </contour>
    <contour>
      <point x="224" y="0" type="move" name="_bottom"/>
    </contour>
  </outline>
</glyph>
<glyph name="uni0328" format="1">
  <advance width="448"/>
  <unicode hex="0328"/>
  <outline>
    <contour>
      <point x="384" y="-128" type="line"/>
      <point x="375" y="-132"/>
      <point x="362" y="-136"/>
      <point x="349" y="-136" type="curve" smooth="yes"/>
      <point x="333" y="-136"/>
      <point x="323" y="-131"/>
      <point x="323" y="-108" type="curve" smooth="yes"/>
      <point x="323" y="-75"/>
      <point x="347" y="-40"/>
      <point x="387" y="3" type="curve"/>
      <point x="348" y="22" type="line"/>
      <point x="305" y="-9"/>
      <point x="253" y="-59"/>
      <point x="253" y="-119" type="curve" smooth="yes"/>
      <point x="253" y="-167"/>
      <point x="282" y="-197"/>
      <point x="337" y="-197" type="curve" smooth="yes"/>
      <point x="360" y="-197"/>
      <point x="382" y="-192"/>
      <point x="401" y="-181" type="curve"/>
    </contour>
    <contour>
      <point x="352" y="0" type="move" name="_bottomAttach"/>
    </contour>
  </outline>
</glyph>
<glyph name="tonos" format="1">
  <advance width="448"/>
  <unicode hex="0384"/>
  <outline>
    <contour>
      <point x="182" y="512" type="line"/>
      <point x="246" y="512" type="line"/>
      <point x="276" y="704" type="line"/>
      <point x="192" y="704" type="line"/>
    </contour>
    <contour>
      <point x="224" y="448" type="move" name="_topLC"/>
    </contour>
  </outline>
</glyph>
<glyph name="dieresistonos" format="1">
  <advance width="448"/>
  <unicode hex="0385"/>
  <outline>
    <contour>
      <point x="182" y="512" type="line"/>
      <point x="246" y="512" type="line"/>
      <point x="276" y="704" type="line"/>
      <point x="192" y="704" type="line"/>
    </contour>
    <contour>
      <point x="58" y="586" type="curve" smooth="yes"/>
      <point x="58" y="541"/>
      <point x="74" y="522"/>
      <point x="96" y="522" type="curve" smooth="yes"/>
      <point x="118" y="522"/>
      <point x="134" y="541"/>
      <point x="134" y="586" type="curve" smooth="yes"/>
      <point x="134" y="631"/>
      <point x="118" y="650"/>
      <point x="96" y="650" type="curve" smooth="yes"/>
      <point x="74" y="650"/>
      <point x="58" y="631"/>
    </contour>
    <contour>
      <point x="314" y="586" type="curve" smooth="yes"/>
      <point x="314" y="541"/>
      <point x="330" y="522"/>
      <point x="352" y="522" type="curve" smooth="yes"/>
      <point x="374" y="522"/>
      <point x="390" y="541"/>
      <point x="390" y="586" type="curve" smooth="yes"/>
      <point x="390" y="631"/>
      <point x="374" y="650"/>
      <point x="352" y="650" type="curve" smooth="yes"/>
      <point x="330" y="650"/>
      <point x="314" y="631"/>
    </contour>
    <contour>
      <point x="284.0" y="460.0" type="move" name="_topLC"/>
    </contour>
  </outline>
</glyph>
<glyph name="uni0394" format="1">
  <advance width="448"/>
  <unicode hex="0394"/>
  <outline>
    <contour>
      <point x="110" y="0" type="line"/>
      <point x="131" y="238"/>
      <point x="175" y="439"/>
      <point x="235" y="577" type="curve"/>
      <point x="213" y="577" type="line"/>
      <point x="273" y="439"/>
      <point x="317" y="238"/>
      <point x="338" y="0" type="curve"/>
      <point x="412" y="0" type="line"/>
      <point x="392" y="245"/>
      <point x="339" y="477"/>
      <point x="256" y="643" type="curve"/>
      <point x="192" y="643" type="line"/>
      <point x="109" y="477"/>
      <point x="56" y="245"/>
      <point x="36" y="0" type="curve"/>
    </contour>
    <contour>
      <point x="97" y="0" type="line"/>
      <point x="353" y="0" type="line"/>
      <point x="353" y="64" type="line"/>
      <point x="97" y="64" type="line"/>
    </contour>
  </outline>
</glyph>
<glyph name="Lambda" format="1">
  <advance width="448"/>
  <unicode hex="039B"/>
  <outline>
    <contour>
      <point x="110" y="-2" type="line"/>
      <point x="131" y="237"/>
      <point x="175" y="439"/>
      <point x="235" y="577" type="curve"/>
      <point x="213" y="577" type="line"/>
      <point x="273" y="439"/>
      <point x="317" y="237"/>
      <point x="338" y="-2" type="curve"/>
      <point x="412" y="3" type="line"/>
      <point x="392" y="245"/>
      <point x="339" y="477"/>
      <point x="256" y="643" type="curve"/>
      <point x="192" y="643" type="line"/>
      <point x="109" y="477"/>
      <point x="56" y="245"/>
      <point x="36" y="3" type="curve"/>
    </contour>
  </outline>
</glyph>
<glyph name="Xi" format="1">
  <advance width="448"/>
  <unicode hex="039E"/>
  <outline>
    <contour>
      <point x="59" y="576" type="line"/>
      <point x="389" y="576" type="line"/>
      <point x="389" y="640" type="line"/>
      <point x="59" y="640" type="line"/>
    </contour>
    <contour>
      <point x="54" y="0" type="line"/>
      <point x="394" y="0" type="line"/>
      <point x="394" y="64" type="line"/>
      <point x="54" y="64" type="line"/>
    </contour>
    <contour>
      <point x="108" y="256" type="line"/>
      <point x="340" y="256" type="line"/>
      <point x="340" y="320" type="line"/>
      <point x="108" y="320" type="line"/>
    </contour>
  </outline>
</glyph>
<glyph name="eta" format="1">
  <advance width="448"/>
  <unicode hex="03B7"/>
  <outline>
    <contour>
      <point x="60" y="0" type="line"/>
      <point x="132" y="0" type="line"/>
      <point x="132" y="384" type="line"/>
      <point x="124" y="448" type="line"/>
      <point x="58" y="448" type="line"/>
      <point x="60" y="383" type="line"/>
    </contour>
    <contour>
      <point x="316" y="-192" type="line"/>
      <point x="388" y="-192" type="line"/>
      <point x="388" y="297" type="line" smooth="yes"/>
      <point x="388" y="419"/>
      <point x="327" y="452"/>
      <point x="261" y="452" type="curve" smooth="yes"/>
      <point x="186" y="452"/>
      <point x="115" y="399"/>
      <point x="81" y="345" type="curve"/>
      <point x="117" y="314" type="line"/>
      <point x="152" y="354"/>
      <point x="199" y="388"/>
      <point x="247" y="388" type="curve" smooth="yes"/>
      <point x="300" y="388"/>
      <point x="316" y="358"/>
      <point x="316" y="289" type="curve" smooth="yes"/>
    </contour>
  </outline>
</glyph>
<glyph name="pi" format="1">
  <advance width="448"/>
  <unicode hex="03C0"/>
  <outline>
    <contour>
      <point x="388" y="448" type="line"/>
      <point x="60" y="448" type="line"/>
      <point x="60" y="0" type="line"/>
      <point x="132" y="0" type="line"/>
      <point x="132" y="384" type="line"/>
      <point x="316" y="384" type="line"/>
      <point x="316" y="0" type="line"/>
      <point x="388" y="0" type="line"/>
    </contour>
  </outline>
</glyph>
<glyph name="rho" format="1">
  <advance width="448"/>
  <unicode hex="03C1"/>
  <outline>
    <contour>
      <point x="60" y="-192" type="line"/>
      <point x="132" y="-192" type="line"/>
      <point x="132" y="192" type="line" smooth="yes"/>
      <point x="132" y="263"/>
      <point x="135" y="311"/>
      <point x="141" y="334" type="curve" smooth="yes"/>
      <point x="152" y="374"/>
      <point x="178" y="394"/>
      <point x="224" y="394" type="curve" smooth="yes"/>
      <point x="293" y="394"/>
      <point x="319" y="353"/>
      <point x="319" y="224" type="curve" smooth="yes"/>
      <point x="319" y="97"/>
      <point x="293" y="56"/>
      <point x="224" y="56" type="curve" smooth="yes"/>
      <point x="152" y="56"/>
      <point x="104" y="97"/>
      <point x="104" y="224" type="curve"/>
      <point x="75" y="224" type="line"/>
      <point x="75" y="82"/>
      <point x="118" y="-8"/>
      <point x="233" y="-8" type="curve" smooth="yes"/>
      <point x="347" y="-8"/>
      <point x="397" y="93"/>
      <point x="397" y="224" type="curve" smooth="yes"/>
      <point x="397" y="355"/>
      <point x="347" y="458"/>
      <point x="224" y="458" type="curve" smooth="yes"/>
      <point x="154" y="458"/>
      <point x="91" y="429"/>
      <point x="71" y="346" type="curve" smooth="yes"/>
      <point x="64" y="317"/>
      <point x="60" y="275"/>
      <point x="60" y="192" type="curve" smooth="yes"/>
    </contour>
  </outline>
</glyph>
<glyph name="sigma" format="1">
  <advance width="448"/>
  <unicode hex="03C3"/>
  <outline>
    <contour>
      <point x="306" y="384" type="line"/>
      <point x="448" y="384" type="line"/>
      <point x="448" y="448" type="line"/>
      <point x="256" y="448" type="line"/>
    </contour>
    <component base="o"/>
  </outline>
</glyph>
<glyph name="chi" format="1">
  <advance width="448"/>
  <unicode hex="03C7"/>
  <outline>
    <contour>
      <point x="232" y="180" type="line"/>
      <point x="169" y="262"/>
      <point x="146" y="326"/>
      <point x="122" y="451" type="curve"/>
      <point x="50" y="438" type="line"/>
      <point x="74" y="311"/>
      <point x="105" y="233"/>
      <point x="184" y="132" type="curve"/>
      <point x="217" y="107" type="line"/>
      <point x="284" y="34"/>
      <point x="307" y="-41"/>
      <point x="321" y="-199" type="curve"/>
      <point x="393" y="-192" type="line"/>
      <point x="377" y="-23"/>
      <point x="345" y="68"/>
      <point x="259" y="162" type="curve"/>
    </contour>
    <contour>
      <point x="30" y="-177" type="line"/>
      <point x="97" y="-199" type="line"/>
      <point x="392" y="429" type="line"/>
      <point x="328" y="458" type="line"/>
    </contour>
  </outline>
</glyph>
<glyph name="Upsilon1" format="1">
  <advance width="448"/>
  <unicode hex="03D2"/>
  <outline>
    <contour>
      <point x="192" y="0" type="line"/>
      <point x="256" y="0" type="line"/>
      <point x="256" y="64" type="line"/>
      <point x="192" y="64" type="line"/>
    </contour>
    <contour>
      <point x="192" y="64" type="line"/>
      <point x="256" y="64" type="line"/>
      <point x="256" y="128" type="line"/>
      <point x="192" y="128" type="line"/>
    </contour>
    <contour>
      <point x="192" y="128" type="line"/>
      <point x="256" y="128" type="line"/>
      <point x="256" y="192" type="line"/>
      <point x="192" y="192" type="line"/>
    </contour>
    <contour>
      <point x="192" y="192" type="line"/>
      <point x="256" y="192" type="line"/>
      <point x="256" y="256" type="line"/>
      <point x="192" y="256" type="line"/>
    </contour>
    <contour>
      <point x="192" y="256" type="line"/>
      <point x="256" y="256" type="line"/>
      <point x="256" y="320" type="line"/>
      <point x="192" y="320" type="line"/>
    </contour>
    <contour>
      <point x="192" y="320" type="line"/>
      <point x="256" y="320" type="line"/>
      <point x="256" y="384" type="line"/>
      <point x="192" y="384" type="line"/>
    </contour>
    <contour>
      <point x="192" y="384" type="line"/>
      <point x="256" y="384" type="line"/>
      <point x="256" y="448" type="line"/>
      <point x="192" y="448" type="line"/>
    </contour>
    <contour>
      <point x="320" y="576" type="line"/>
      <point x="384" y="576" type="line"/>
      <point x="384" y="640" type="line"/>
      <point x="320" y="640" type="line"/>
    </contour>
    <contour>
      <point x="256" y="512" type="line"/>
      <point x="320" y="512" type="line"/>
      <point x="320" y="576" type="line"/>
      <point x="256" y="576" type="line"/>
    </contour>
    <contour>
      <point x="256" y="448" type="line"/>
      <point x="320" y="448" type="line"/>
      <point x="320" y="512" type="line"/>
      <point x="256" y="512" type="line"/>
    </contour>
    <contour>
      <point x="128" y="448" type="line"/>
      <point x="192" y="448" type="line"/>
      <point x="192" y="512" type="line"/>
      <point x="128" y="512" type="line"/>
    </contour>
    <contour>
      <point x="128" y="512" type="line"/>
      <point x="192" y="512" type="line"/>
      <point x="192" y="576" type="line"/>
      <point x="128" y="576" type="line"/>
    </contour>
    <contour>
      <point x="64" y="576" type="line"/>
      <point x="128" y="576" type="line"/>
      <point x="128" y="640" type="line"/>
      <point x="64" y="640" type="line"/>
    </contour>
  </outline>
</glyph>
<glyph name="afii10145" format="1">
  <advance width="448"/>
  <unicode hex="040F"/>
  <outline>
    <contour>
      <point x="60" y="0" type="line"/>
      <point x="188" y="0" type="line"/>
      <point x="188" y="-128" type="line"/>
      <point x="260" y="-128" type="line"/>
      <point x="260" y="0" type="line"/>
      <point x="388" y="0" type="line"/>
      <point x="388" y="640" type="line"/>
      <point x="316" y="640" type="line"/>
      <point x="316" y="64" type="line"/>
      <point x="132" y="64" type="line"/>
      <point x="132" y="640" type="line"/>
      <point x="60" y="640" type="line"/>
    </contour>
  </outline>
</glyph>
<glyph name="afii10018" format="1">
  <advance width="448"/>
  <unicode hex="0411"/>
  <outline>
    <contour>
      <point x="64" y="576" type="line"/>
      <point x="362" y="576" type="line"/>
      <point x="362" y="640" type="line"/>
      <point x="64" y="640" type="line"/>
    </contour>
    <component base="afii10046"/>
  </outline>
</glyph>
<glyph name="afii10026" format="1">
  <advance width="448"/>
  <unicode hex="0418"/>
  <outline>
    <contour>
      <point x="388" y="640" type="line"/>
      <point x="306" y="640" type="line"/>
      <point x="316" y="608" type="line"/>
      <point x="316" y="0" type="line"/>
      <point x="388" y="0" type="line"/>
    </contour>
    <contour>
      <point x="132" y="640" type="line"/>
      <point x="60" y="640" type="line"/>
      <point x="60" y="0" type="line"/>
      <point x="142" y="0" type="line"/>
      <point x="132" y="31" type="line"/>
    </contour>
    <contour>
      <point x="286" y="384" type="line"/>
      <point x="343" y="615" type="line"/>
      <point x="306" y="640" type="line"/>
      <point x="162" y="256" type="line"/>
      <point x="106" y="25" type="line"/>
      <point x="142" y="0" type="line"/>
    </contour>
  </outline>
</glyph>
<glyph name="afii10029" format="1">
  <advance width="448"/>
  <unicode hex="041B"/>
  <outline>
    <contour>
      <point x="388" y="640" type="line"/>
      <point x="124" y="640" type="line"/>
      <point x="124" y="462" type="line" smooth="yes"/>
      <point x="124" y="203"/>
      <point x="65" y="108"/>
      <point x="4" y="24" type="curve"/>
      <point x="62" y="-15" type="line"/>
      <point x="131" y="76"/>
      <point x="196" y="199"/>
      <point x="196" y="448" type="curve" smooth="yes"/>
      <point x="196" y="576" type="line"/>
      <point x="316" y="576" type="line"/>
      <point x="316" y="0" type="line"/>
      <point x="388" y="0" type="line"/>
    </contour>
  </outline>
</glyph>
<glyph name="afii10041" format="1">
  <advance width="448"/>
  <unicode hex="0427"/>
  <outline>
    <contour>
      <point x="388" y="640" type="line"/>
      <point x="316" y="640" type="line"/>
      <point x="316" y="0" type="line"/>
      <point x="388" y="0" type="line"/>
    </contour>
    <contour>
      <point x="132" y="640" type="line"/>
      <point x="60" y="640" type="line"/>
      <point x="60" y="407" type="line" smooth="yes"/>
      <point x="60" y="285"/>
      <point x="121" y="252"/>
      <point x="187" y="252" type="curve" smooth="yes"/>
      <point x="262" y="252"/>
      <point x="333" y="305"/>
      <point x="367" y="359" type="curve"/>
      <point x="331" y="390" type="line"/>
      <point x="296" y="350"/>
      <point x="249" y="316"/>
      <point x="201" y="316" type="curve" smooth="yes"/>
      <point x="148" y="316"/>
      <point x="132" y="346"/>
      <point x="132" y="415" type="curve" smooth="yes"/>
    </contour>
  </outline>
</glyph>
<glyph name="afii10043" format="1">
  <advance width="448"/>
  <unicode hex="0429"/>
  <outline>
    <contour>
      <point x="60" y="0" type="line"/>
      <point x="380" y="0" type="line"/>
      <point x="380" y="-128" type="line"/>
      <point x="452" y="-128" type="line"/>
      <point x="452" y="64" type="line"/>
      <point x="388" y="64" type="line"/>
      <point x="388" y="640" type="line"/>
      <point x="324" y="640" type="line"/>
      <point x="324" y="64" type="line"/>
      <point x="256" y="64" type="line"/>
      <point x="256" y="640" type="line"/>
      <point x="192" y="640" type="line"/>
      <point x="192" y="64" type="line"/>
      <point x="124" y="64" type="line"/>
      <point x="124" y="640" type="line"/>
      <point x="60" y="640" type="line"/>
    </contour>
  </outline>
</glyph>
<glyph name="afii10047" format="1">
  <advance width="448"/>
  <unicode hex="042D"/>
  <outline>
    <contour>
      <point x="128" y="256" type="line"/>
      <point x="320" y="256" type="line"/>
      <point x="320" y="320" type="line"/>
      <point x="128" y="320" type="line"/>
    </contour>
    <component base="C" xScale="-1.0" xOffset="448"/>
  </outline>
</glyph>
<glyph name="afii10066" format="1">
  <advance width="448"/>
  <unicode hex="0431"/>
  <outline>
    <contour>
      <point x="373" y="625" type="line"/>
      <point x="332" y="611"/>
      <point x="298" y="607"/>
      <point x="263" y="602" type="curve" smooth="yes"/>
      <point x="62" y="573"/>
      <point x="40" y="457"/>
      <point x="40" y="271" type="curve" smooth="yes"/>
      <point x="40" y="64"/>
      <point x="105" y="-8"/>
      <point x="220" y="-8" type="curve" smooth="yes"/>
      <point x="326" y="-8"/>
      <point x="395" y="74"/>
      <point x="395" y="209" type="curve" smooth="yes"/>
      <point x="395" y="338"/>
      <point x="330" y="414"/>
      <point x="231" y="414" type="curve" smooth="yes"/>
      <point x="172" y="414"/>
      <point x="121" y="391"/>
      <point x="79" y="351" type="curve"/>
      <point x="106" y="311" type="line"/>
      <point x="136" y="334"/>
      <point x="178" y="350"/>
      <point x="224" y="350" type="curve" smooth="yes"/>
      <point x="305" y="350"/>
      <point x="320" y="280"/>
      <point x="320" y="209" type="curve" smooth="yes"/>
      <point x="320" y="121"/>
      <point x="296" y="56"/>
      <point x="217" y="56" type="curve" smooth="yes"/>
      <point x="134" y="56"/>
      <point x="114" y="118"/>
      <point x="114" y="271" type="curve" smooth="yes"/>
      <point x="114" y="443"/>
      <point x="123" y="518"/>
      <point x="263" y="538" type="curve" smooth="yes"/>
      <point x="306" y="544"/>
      <point x="346" y="551"/>
      <point x="383" y="569" type="curve"/>
    </contour>
  </outline>
</glyph>
<glyph name="afii10068" format="1">
  <advance width="448"/>
  <unicode hex="0433"/>
  <outline>
    <contour>
      <point x="384" y="448" type="line"/>
      <point x="60" y="448" type="line"/>
      <point x="60" y="0" type="line"/>
      <point x="132" y="0" type="line"/>
      <point x="132" y="384" type="line"/>
      <point x="384" y="384" type="line"/>
    </contour>
  </outline>
</glyph>
<glyph name="afii10069" format="1">
  <advance width="448"/>
  <unicode hex="0434"/>
  <outline>
    <contour>
      <point x="292" y="384" type="line"/>
      <point x="292" y="64" type="line"/>
      <point x="136" y="64" type="line"/>
      <point x="182" y="164"/>
      <point x="199" y="270"/>
      <point x="201" y="448" type="curve"/>
      <point x="160" y="384" type="line"/>
    </contour>
    <contour>
      <point x="131" y="448" type="line"/>
      <point x="126" y="270"/>
      <point x="115" y="175"/>
      <point x="62" y="64" type="curve"/>
      <point x="8" y="64" type="line"/>
      <point x="8" y="-128" type="line"/>
      <point x="80" y="-128" type="line"/>
      <point x="80" y="0" type="line"/>
      <point x="356" y="0" type="line"/>
      <point x="356" y="-128" type="line"/>
      <point x="428" y="-128" type="line"/>
      <point x="428" y="64" type="line"/>
      <point x="364" y="64" type="line"/>
      <point x="364" y="448" type="line"/>
    </contour>
  </outline>
</glyph>
<glyph name="afii10074" format="1">
  <advance width="448"/>
  <unicode hex="0438"/>
  <outline>
    <contour>
      <point x="60" y="0" type="line"/>
      <point x="132" y="0" type="line"/>
      <point x="132" y="448" type="line"/>
      <point x="60" y="448" type="line"/>
    </contour>
    <contour>
      <point x="316" y="0" type="line"/>
      <point x="388" y="0" type="line"/>
      <point x="388" y="448" type="line"/>
      <point x="316" y="448" type="line"/>
    </contour>
    <contour>
      <point x="168" y="191" type="line"/>
      <point x="89" y="0" type="line"/>
      <point x="140" y="0" type="line"/>
      <point x="280" y="255" type="line"/>
      <point x="359" y="448" type="line"/>
      <point x="310" y="448" type="line"/>
    </contour>
    <contour>
      <point x="224" y="448" type="move" name="topLC"/>
    </contour>
  </outline>
</glyph>
<glyph name="afii10078" format="1">
  <advance width="448"/>
  <unicode hex="043C"/>
  <outline>
    <contour>
      <point x="64" y="384" type="line"/>
      <point x="128" y="384" type="line"/>
      <point x="128" y="448" type="line"/>
      <point x="64" y="448" type="line"/>
    </contour>
    <contour>
      <point x="64" y="320" type="line"/>
      <point x="128" y="320" type="line"/>
      <point x="128" y="384" type="line"/>
      <point x="64" y="384" type="line"/>
    </contour>
    <contour>
      <point x="64" y="256" type="line"/>
      <point x="128" y="256" type="line"/>
      <point x="128" y="320" type="line"/>
      <point x="64" y="320" type="line"/>
    </contour>
    <contour>
      <point x="64" y="192" type="line"/>
      <point x="128" y="192" type="line"/>
      <point x="128" y="256" type="line"/>
      <point x="64" y="256" type="line"/>
    </contour>
    <contour>
      <point x="64" y="128" type="line"/>
      <point x="128" y="128" type="line"/>
      <point x="128" y="192" type="line"/>
      <point x="64" y="192" type="line"/>
    </contour>
    <contour>
      <point x="64" y="64" type="line"/>
      <point x="128" y="64" type="line"/>
      <point x="128" y="128" type="line"/>
      <point x="64" y="128" type="line"/>
    </contour>
    <contour>
      <point x="64" y="0" type="line"/>
      <point x="128" y="0" type="line"/>
      <point x="128" y="64" type="line"/>
      <point x="64" y="64" type="line"/>
    </contour>
    <contour>
      <point x="320" y="0" type="line"/>
      <point x="384" y="0" type="line"/>
      <point x="384" y="64" type="line"/>
      <point x="320" y="64" type="line"/>
    </contour>
    <contour>
      <point x="320" y="64" type="line"/>
      <point x="384" y="64" type="line"/>
      <point x="384" y="128" type="line"/>
      <point x="320" y="128" type="line"/>
    </contour>
    <contour>
      <point x="320" y="128" type="line"/>
      <point x="384" y="128" type="line"/>
      <point x="384" y="192" type="line"/>
      <point x="320" y="192" type="line"/>
    </contour>
    <contour>
      <point x="320" y="192" type="line"/>
      <point x="384" y="192" type="line"/>
      <point x="384" y="256" type="line"/>
      <point x="320" y="256" type="line"/>
    </contour>
    <contour>
      <point x="320" y="256" type="line"/>
      <point x="384" y="256" type="line"/>
      <point x="384" y="320" type="line"/>
      <point x="320" y="320" type="line"/>
    </contour>
    <contour>
      <point x="320" y="320" type="line"/>
      <point x="384" y="320" type="line"/>
      <point x="384" y="384" type="line"/>
      <point x="320" y="384" type="line"/>
    </contour>
    <contour>
      <point x="320" y="384" type="line"/>
      <point x="384" y="384" type="line"/>
      <point x="384" y="448" type="line"/>
      <point x="320" y="448" type="line"/>
    </contour>
    <contour>
      <point x="128" y="384" type="line"/>
      <point x="192" y="384" type="line"/>
      <point x="192" y="448" type="line"/>
      <point x="128" y="448" type="line"/>
    </contour>
    <contour>
      <point x="256" y="384" type="line"/>
      <point x="320" y="384" type="line"/>
      <point x="320" y="448" type="line"/>
      <point x="256" y="448" type="line"/>
    </contour>
    <contour>
      <point x="192" y="320" type="line"/>
      <point x="256" y="320" type="line"/>
      <point x="256" y="384" type="line"/>
      <point x="192" y="384" type="line"/>
    </contour>
    <contour>
      <point x="192" y="256" type="line"/>
      <point x="256" y="256" type="line"/>
      <point x="256" y="320" type="line"/>
      <point x="192" y="320" type="line"/>
    </contour>
    <contour>
      <point x="192" y="192" type="line"/>
      <point x="256" y="192" type="line"/>
      <point x="256" y="256" type="line"/>
      <point x="192" y="256" type="line"/>
    </contour>
    <contour>
      <point x="192" y="128" type="line"/>
      <point x="256" y="128" type="line"/>
      <point x="256" y="192" type="line"/>
      <point x="192" y="192" type="line"/>
    </contour>
  </outline>
</glyph>
<glyph name="afii10079" format="1">
  <advance width="448"/>
  <unicode hex="043D"/>
  <outline>
    <contour>
      <point x="388" y="448" type="line"/>
      <point x="316" y="448" type="line"/>
      <point x="316" y="256" type="line"/>
      <point x="132" y="256" type="line"/>
      <point x="132" y="448" type="line"/>
      <point x="60" y="448" type="line"/>
      <point x="60" y="0" type="line"/>
      <point x="132" y="0" type="line"/>
      <point x="132" y="192" type="line"/>
      <point x="316" y="192" type="line"/>
      <point x="316" y="0" type="line"/>
      <point x="388" y="0" type="line"/>
    </contour>
  </outline>
</glyph>
<glyph name="afii10084" format="1">
  <advance width="448"/>
  <unicode hex="0442"/>
  <outline>
    <contour>
      <point x="394" y="448" type="line"/>
      <point x="54" y="448" type="line"/>
      <point x="54" y="384" type="line"/>
      <point x="188" y="384" type="line"/>
      <point x="188" y="0" type="line"/>
      <point x="260" y="0" type="line"/>
      <point x="260" y="384" type="line"/>
      <point x="394" y="384" type="line"/>
    </contour>
  </outline>
</glyph>
<glyph name="afii10088" format="1">
  <advance width="448"/>
  <unicode hex="0446"/>
  <outline>
    <contour>
      <point x="378" y="448" type="line"/>
      <point x="306" y="448" type="line"/>
      <point x="306" y="64" type="line"/>
      <point x="132" y="64" type="line"/>
      <point x="132" y="448" type="line"/>
      <point x="60" y="448" type="line"/>
      <point x="60" y="0" type="line"/>
      <point x="370" y="0" type="line"/>
      <point x="370" y="-128" type="line"/>
      <point x="442" y="-128" type="line"/>
      <point x="442" y="64" type="line"/>
      <point x="378" y="64" type="line"/>
    </contour>
  </outline>
</glyph>
<glyph name="afii10090" format="1">
  <advance width="448"/>
  <unicode hex="0448"/>
  <outline>
    <contour>
      <point x="60" y="0" type="line"/>
      <point x="388" y="0" type="line"/>
      <point x="388" y="448" type="line"/>
      <point x="324" y="448" type="line"/>
      <point x="324" y="64" type="line"/>
      <point x="256" y="64" type="line"/>
      <point x="256" y="448" type="line"/>
      <point x="192" y="448" type="line"/>
      <point x="192" y="64" type="line"/>
      <point x="124" y="64" type="line"/>
      <point x="124" y="448" type="line"/>
      <point x="60" y="448" type="line"/>
    </contour>
  </outline>
</glyph>
<glyph name="afii10101" format="1">
  <advance width="448"/>
  <unicode hex="0454"/>
  <outline>
    <contour>
      <point x="88" y="192" type="line"/>
      <point x="328" y="192" type="line"/>
      <point x="328" y="256" type="line"/>
      <point x="88" y="256" type="line"/>
    </contour>
    <component base="c"/>
  </outline>
</glyph>
<glyph name="afii10193" format="1">
  <advance width="448"/>
  <unicode hex="045F"/>
  <outline>
    <contour>
      <point x="60" y="0" type="line"/>
      <point x="188" y="0" type="line"/>
      <point x="188" y="-128" type="line"/>
      <point x="260" y="-128" type="line"/>
      <point x="260" y="0" type="line"/>
      <point x="388" y="0" type="line"/>
      <point x="388" y="448" type="line"/>
      <point x="316" y="448" type="line"/>
      <point x="316" y="64" type="line"/>
      <point x="132" y="64" type="line"/>
      <point x="132" y="448" type="line"/>
      <point x="60" y="448" type="line"/>
    </contour>
  </outline>
</glyph>
<glyph name="afii10050" format="1">
  <advance width="448"/>
  <unicode hex="0490"/>
  <outline>
    <contour>
      <point x="320" y="640" type="line"/>
      <point x="384" y="640" type="line"/>
      <point x="384" y="704" type="line"/>
      <point x="320" y="704" type="line"/>
    </contour>
    <contour>
      <point x="320" y="704" type="line"/>
      <point x="384" y="704" type="line"/>
      <point x="384" y="768" type="line"/>
      <point x="320" y="768" type="line"/>
    </contour>
    <component base="afii10020"/>
  </outline>
</glyph>
<glyph name="underscoredbl" format="1">
  <advance width="448"/>
  <unicode hex="2017"/>
  <outline>
    <contour>
      <point x="458" y="-128" type="line"/>
      <point x="-10" y="-128" type="line"/>
      <point x="-10" y="-192" type="line"/>
      <point x="458" y="-192" type="line"/>
    </contour>
    <contour>
      <point x="458" y="0" type="line"/>
      <point x="-10" y="0" type="line"/>
      <point x="-10" y="-64" type="line"/>
      <point x="458" y="-64" type="line"/>
    </contour>
  </outline>
</glyph>
<glyph name="dagger" format="1">
  <advance width="448"/>
  <unicode hex="2020"/>
  <outline>
    <contour>
      <point x="190" y="640" type="line"/>
      <point x="190" y="458" type="line"/>
      <point x="64" y="458" type="line"/>
      <point x="64" y="394" type="line"/>
      <point x="190" y="394" type="line"/>
      <point x="190" y="0" type="line"/>
      <point x="258" y="0" type="line"/>
      <point x="258" y="394" type="line"/>
      <point x="384" y="394" type="line"/>
      <point x="384" y="458" type="line"/>
      <point x="258" y="458" type="line"/>
      <point x="258" y="640" type="line"/>
    </contour>
  </outline>
</glyph>
<glyph name="guilsinglright" format="1">
  <advance width="448"/>
  <unicode hex="203A"/>
  <outline>
    <contour>
      <point x="246" y="417" type="line"/>
      <point x="176" y="397" type="line"/>
      <point x="233" y="224" type="line"/>
      <point x="176" y="51" type="line"/>
      <point x="246" y="31" type="line"/>
      <point x="310" y="224" type="line"/>
    </contour>
  </outline>
</glyph>
<glyph name="uni2078" format="1">
  <advance width="448"/>
  <unicode hex="2078"/>
  <outline>
    <contour>
      <point x="104" y="488" type="line"/>
      <point x="64" y="462"/>
      <point x="48" y="426"/>
      <point x="48" y="400" type="curve" smooth="yes"/>
      <point x="48" y="349"/>
      <point x="90" y="314"/>
      <point x="160" y="314" type="curve" smooth="yes"/>
      <point x="233" y="314"/>
      <point x="272" y="350"/>
      <point x="272" y="400" type="curve" smooth="yes"/>
      <point x="272" y="450"/>
      <point x="235" y="482"/>
      <point x="176" y="504" type="curve" smooth="yes"/>
      <point x="134" y="520"/>
      <point x="124" y="534"/>
      <point x="124" y="556" type="curve" smooth="yes"/>
      <point x="124" y="566"/>
      <point x="128" y="593"/>
      <point x="160" y="593" type="curve" smooth="yes"/>
      <point x="192" y="593"/>
      <point x="198" y="568"/>
      <point x="198" y="554" type="curve" smooth="yes"/>
      <point x="198" y="536"/>
      <point x="192" y="516"/>
      <point x="175" y="496" type="curve"/>
      <point x="216" y="470" type="line"/>
      <point x="240" y="493"/>
      <point x="264" y="521"/>
      <point x="264" y="560" type="curve" smooth="yes"/>
      <point x="264" y="609"/>
      <point x="224" y="646"/>
      <point x="160" y="646" type="curve" smooth="yes"/>
      <point x="98" y="646"/>
      <point x="60" y="607"/>
      <point x="60" y="556" type="curve" smooth="yes"/>
      <point x="60" y="499"/>
      <point x="93" y="474"/>
      <point x="145" y="456" type="curve" smooth="yes"/>
      <point x="197" y="438"/>
      <point x="206" y="422"/>
      <point x="206" y="403" type="curve" smooth="yes"/>
      <point x="206" y="387"/>
      <point x="196" y="367"/>
      <point x="160" y="367" type="curve" smooth="yes"/>
      <point x="123" y="367"/>
      <point x="114" y="386"/>
      <point x="114" y="405" type="curve" smooth="yes"/>
      <point x="114" y="423"/>
      <point x="122" y="443"/>
      <point x="142" y="463" type="curve"/>
    </contour>
  </outline>
</glyph>
<glyph name="peseta" format="1">
  <advance width="448"/>
  <unicode hex="20A7"/>
  <outline>
    <contour>
      <point x="60" y="0" type="line"/>
      <point x="132" y="0" type="line"/>
      <point x="132" y="640" type="line"/>
      <point x="60" y="640" type="line"/>
    </contour>
    <contour>
      <point x="325" y="438" type="curve" smooth="yes"/>
      <point x="325" y="354"/>
      <point x="301" y="300"/>
      <point x="208" y="300" type="curve" smooth="yes"/>
      <point x="107" y="300" type="line"/>
      <point x="107" y="236" type="line"/>
      <point x="215" y="236" type="line" smooth="yes"/>
      <point x="327" y="236"/>
      <point x="401" y="308"/>
      <point x="401" y="438" type="curve" smooth="yes"/>
      <point x="401" y="568"/>
      <point x="327" y="640"/>
      <point x="215" y="640" type="curve" smooth="yes"/>
      <point x="107" y="640" type="line"/>
      <point x="107" y="576" type="line"/>
      <point x="208" y="576" type="line" smooth="yes"/>
      <point x="301" y="576"/>
      <point x="325" y="522"/>
    </contour>
    <contour>
      <point x="266" y="114" type="line"/>
      <point x="266" y="174" type="line"/>
      <point x="10" y="174" type="line"/>
      <point x="10" y="114" type="line"/>
    </contour>
  </outline>
</glyph>
<glyph name="uni2117" format="1">
  <advance width="448"/>
  <unicode hex="2117"/>
  <outline>
    <contour>
      <point x="8" y="256" type="curve" smooth="yes"/>
      <point x="8" y="93"/>
      <point x="116" y="11"/>
      <point x="224" y="11" type="curve" smooth="yes"/>
      <point x="332" y="11"/>
      <point x="440" y="93"/>
      <point x="440" y="256" type="curve" smooth="yes"/>
      <point x="440" y="421"/>
      <point x="332" y="501"/>
      <point x="224" y="501" type="curve" smooth="yes"/>
      <point x="116" y="501"/>
      <point x="8" y="421"/>
    </contour>
    <contour>
      <point x="60" y="256" type="curve" smooth="yes"/>
      <point x="60" y="354"/>
      <point x="104" y="453"/>
      <point x="224" y="453" type="curve" smooth="yes"/>
      <point x="344" y="453"/>
      <point x="388" y="354"/>
      <point x="388" y="256" type="curve" smooth="yes"/>
      <point x="388" y="156"/>
      <point x="344" y="59"/>
      <point x="224" y="59" type="curve" smooth="yes"/>
      <point x="104" y="59"/>
      <point x="60" y="156"/>
    </contour>
    <contour>
      <point x="140" y="128" type="line"/>
      <point x="190" y="128" type="line"/>
      <point x="190" y="384" type="line"/>
      <point x="140" y="384" type="line"/>
    </contour>
    <contour>
      <point x="165" y="384" type="line"/>
      <point x="165" y="344" type="line"/>
      <point x="220" y="344" type="line" smooth="yes"/>
      <point x="267" y="344"/>
      <point x="276" y="321"/>
      <point x="276" y="293" type="curve" smooth="yes"/>
      <point x="276" y="266"/>
      <point x="267" y="242"/>
      <point x="220" y="242" type="curve" smooth="yes"/>
      <point x="164" y="242" type="line"/>
      <point x="164" y="202" type="line"/>
      <point x="226" y="202" type="line" smooth="yes"/>
      <point x="290" y="202"/>
      <point x="329" y="236"/>
      <point x="329" y="293" type="curve" smooth="yes"/>
      <point x="329" y="346"/>
      <point x="290" y="384"/>
      <point x="222" y="384" type="curve" smooth="yes"/>
    </contour>
  </outline>
</glyph>
<glyph name="trademark" format="1">
  <advance width="448"/>
  <unicode hex="2122"/>
  <outline>
    <contour>
      <point x="188" y="576" type="line"/>
      <point x="188" y="384" type="line"/>
      <point x="260" y="384" type="line"/>
      <point x="260" y="576" type="line"/>
      <point x="384" y="576" type="line"/>
      <point x="384" y="640" type="line"/>
      <point x="64" y="640" type="line"/>
      <point x="64" y="576" type="line"/>
    </contour>
    <contour>
      <point x="384" y="320" type="line"/>
      <point x="384" y="64" type="line"/>
      <point x="314" y="64" type="line"/>
      <point x="320" y="256" type="line"/>
      <point x="276" y="256"/>
      <point x="258" y="236"/>
      <point x="258" y="192" type="curve" smooth="yes"/>
      <point x="258" y="64" type="line"/>
      <point x="190" y="64" type="line"/>
      <point x="190" y="192" type="line" smooth="yes"/>
      <point x="190" y="236"/>
      <point x="172" y="256"/>
      <point x="128" y="256" type="curve"/>
      <point x="135" y="64" type="line"/>
      <point x="64" y="64" type="line"/>
      <point x="64" y="320" type="line"/>
      <point x="128" y="320" type="line" smooth="yes"/>
      <point x="217" y="320"/>
      <point x="236" y="256"/>
      <point x="236" y="192" type="curve"/>
      <point x="212" y="192" type="line"/>
      <point x="212" y="256"/>
      <point x="232" y="320"/>
      <point x="320" y="320" type="curve" smooth="yes"/>
    </contour>
  </outline>
</glyph>
<glyph name="arrowleft" format="1">
  <advance width="448"/>
  <unicode hex="2190"/>
  <outline>
    <contour>
      <point x="448" y="192" type="line"/>
      <point x="448" y="256" type="line"/>
      <point x="98" y="256" type="line"/>
      <point x="207" y="350" type="line"/>
      <point x="169" y="394" type="line"/>
      <point x="-10" y="246" type="line"/>
      <point x="-10" y="202" type="line"/>
      <point x="169" y="54" type="line"/>
      <point x="207" y="98" type="line"/>
      <point x="98" y="192" type="line"/>
    </contour>
  </outline>
</glyph>
<glyph name="arrowup" format="1">
  <advance width="448"/>
  <unicode hex="2191"/>
  <outline>
    <contour>
      <point x="192" y="64" type="line"/>
      <point x="256" y="64" type="line"/>
      <point x="256" y="414" type="line"/>
      <point x="350" y="305" type="line"/>
      <point x="394" y="343" type="line"/>
      <point x="246" y="522" type="line"/>
      <point x="202" y="522" type="line"/>
      <point x="54" y="343" type="line"/>
      <point x="98" y="305" type="line"/>
      <point x="192" y="414" type="line"/>
    </contour>
  </outline>
</glyph>
<glyph name="arrowright" format="1">
  <advance width="448"/>
  <unicode hex="2192"/>
  <outline>
    <contour>
      <point x="350" y="192" type="line"/>
      <point x="241" y="98" type="line"/>
      <point x="279" y="54" type="line"/>
      <point x="458" y="202" type="line"/>
      <point x="458" y="246" type="line"/>
      <point x="279" y="394" type="line"/>
      <point x="241" y="350" type="line"/>
      <point x="350" y="256" type="line"/>
      <point x="0" y="256" type="line"/>
      <point x="0" y="192" type="line"/>
    </contour>
  </outline>
</glyph>
<glyph name="arrowdown" format="1">
  <advance width="448"/>
  <unicode hex="2193"/>
  <outline>
    <contour>
      <point x="192" y="162" type="line"/>
      <point x="98" y="271" type="line"/>
      <point x="54" y="233" type="line"/>
      <point x="202" y="54" type="line"/>
      <point x="246" y="54" type="line"/>
      <point x="394" y="233" type="line"/>
      <point x="350" y="271" type="line"/>
      <point x="256" y="162" type="line"/>
      <point x="256" y="512" type="line"/>
      <point x="192" y="512" type="line"/>
    </contour>
  </outline>
</glyph>
<glyph name="arrowboth" format="1">
  <advance width="448"/>
  <unicode hex="2194"/>
  <outline>
    <contour>
      <point x="350" y="192" type="line"/>
      <point x="241" y="98" type="line"/>
      <point x="279" y="54" type="line"/>
      <point x="458" y="202" type="line"/>
      <point x="458" y="246" type="line"/>
      <point x="279" y="394" type="line"/>
      <point x="241" y="350" type="line"/>
      <point x="350" y="256" type="line"/>
      <point x="98" y="256" type="line"/>
      <point x="207" y="350" type="line"/>
      <point x="169" y="394" type="line"/>
      <point x="-10" y="246" type="line"/>
      <point x="-10" y="202" type="line"/>
      <point x="169" y="54" type="line"/>
      <point x="207" y="98" type="line"/>
      <point x="98" y="192" type="line"/>
    </contour>
  </outline>
</glyph>
<glyph name="uni21EA" format="1">
  <advance width="448"/>
  <unicode hex="21EA"/>
  <outline>
    <contour>
      <point x="202" y="522" type="line"/>
      <point x="-5" y="320" type="line"/>
      <point x="-5" y="192" type="line"/>
      <point x="60" y="192" type="line"/>
      <point x="60" y="0" type="line"/>
      <point x="388" y="0" type="line"/>
      <point x="388" y="192" type="line"/>
      <point x="452" y="192" type="line"/>
      <point x="452" y="320" type="line"/>
      <point x="246" y="522" type="line"/>
    </contour>
    <contour>
      <point x="132" y="256" type="line"/>
      <point x="68" y="256" type="line"/>
      <point x="68" y="300" type="line"/>
      <point x="256" y="480" type="line"/>
      <point x="192" y="480" type="line"/>
      <point x="380" y="300" type="line"/>
      <point x="380" y="256" type="line"/>
      <point x="316" y="256" type="line"/>
      <point x="316" y="64" type="line"/>
      <point x="132" y="64" type="line"/>
    </contour>
    <contour>
      <point x="128" y="128" type="line"/>
      <point x="320" y="128" type="line"/>
      <point x="320" y="192" type="line"/>
      <point x="128" y="192" type="line"/>
    </contour>
  </outline>
</glyph>
<glyph name="product" format="1">
  <advance width="448"/>
  <unicode hex="220F"/>
  <outline>
    <contour>
      <point x="388" y="640" type="line"/>
      <point x="60" y="640" type="line"/>
      <point x="60" y="-128" type="line"/>
      <point x="132" y="-128" type="line"/>
      <point x="132" y="576" type="line"/>
      <point x="316" y="576" type="line"/>
      <point x="316" y="-128" type="line"/>
      <point x="388" y="-128" type="line"/>
    </contour>
  </outline>
</glyph>
<glyph name="minus" format="1">
  <advance width="448"/>
  <unicode hex="2212"/>
  <outline>
    <contour>
      <point x="412" y="320" type="line"/>
      <point x="36" y="320" type="line"/>
      <point x="36" y="256" type="line"/>
      <point x="412" y="256" type="line"/>
    </contour>
  </outline>
</glyph>
<glyph name="orthogonal" format="1">
  <advance width="448"/>
  <unicode hex="221F"/>
  <outline>
    <contour>
      <point x="384" y="128" type="line"/>
      <point x="130" y="128" type="line"/>
      <point x="130" y="512" type="line"/>
      <point x="62" y="512" type="line"/>
      <point x="62" y="64" type="line"/>
      <point x="384" y="64" type="line"/>
    </contour>
  </outline>
</glyph>
<glyph name="angle" format="1">
  <advance width="448"/>
  <unicode hex="2220"/>
  <outline>
    <contour>
      <point x="384" y="128" type="line"/>
      <point x="136" y="128" type="line"/>
      <point x="316" y="494" type="line"/>
      <point x="258" y="522" type="line"/>
      <point x="64" y="128" type="line"/>
      <point x="64" y="64" type="line"/>
      <point x="384" y="64" type="line"/>
    </contour>
  </outline>
</glyph>
<glyph name="intersection" format="1">
  <advance width="448"/>
  <unicode hex="2229"/>
  <outline>
    <contour>
      <point x="224" y="456" type="curve" smooth="yes"/>
      <point x="100" y="456"/>
      <point x="62" y="359"/>
      <point x="62" y="276" type="curve" smooth="yes"/>
      <point x="62" y="128" type="line"/>
      <point x="130" y="128" type="line"/>
      <point x="130" y="279" type="line" smooth="yes"/>
      <point x="130" y="355"/>
      <point x="166" y="392"/>
      <point x="224" y="392" type="curve" smooth="yes"/>
      <point x="283" y="392"/>
      <point x="318" y="355"/>
      <point x="318" y="280" type="curve" smooth="yes"/>
      <point x="318" y="128" type="line"/>
      <point x="386" y="128" type="line"/>
      <point x="386" y="277" type="line" smooth="yes"/>
      <point x="386" y="359"/>
      <point x="348" y="456"/>
    </contour>
  </outline>
</glyph>
<glyph name="lessequal" format="1">
  <advance width="448"/>
  <unicode hex="2264"/>
  <outline>
    <contour>
      <point x="384" y="64" type="line"/>
      <point x="64" y="64" type="line"/>
      <point x="64" y="0" type="line"/>
      <point x="384" y="0" type="line"/>
    </contour>
    <component base="less" yOffset="64"/>
  </outline>
</glyph>
<glyph name="perpendicular" format="1">
  <advance width="448"/>
  <unicode hex="22A5"/>
  <outline>
    <contour>
      <point x="384" y="128" type="line"/>
      <point x="260" y="128" type="line"/>
      <point x="260" y="512" type="line"/>
      <point x="188" y="512" type="line"/>
      <point x="188" y="128" type="line"/>
      <point x="64" y="128" type="line"/>
      <point x="64" y="64" type="line"/>
      <point x="384" y="64" type="line"/>
    </contour>
  </outline>
</glyph>
<glyph name="SF100000" format="1">
  <advance width="448"/>
  <unicode hex="2500"/>
  <outline>
    <contour>
      <point x="-10" y="256" type="line"/>
      <point x="458" y="256" type="line"/>
      <point x="458" y="320" type="line"/>
      <point x="-10" y="320" type="line"/>
    </contour>
  </outline>
</glyph>
<glyph name="SF110000" format="1">
  <advance width="448"/>
  <unicode hex="2502"/>
  <outline>
    <contour>
      <point x="190" y="-202" type="line"/>
      <point x="258" y="-202" type="line"/>
      <point x="258" y="842" type="line"/>
      <point x="190" y="842" type="line"/>
    </contour>
  </outline>
</glyph>
<glyph name="SF030000" format="1">
  <advance width="448"/>
  <unicode hex="2510"/>
  <outline>
    <contour>
      <point x="-10" y="256" type="line"/>
      <point x="190" y="256" type="line"/>
      <point x="190" y="-202" type="line"/>
      <point x="258" y="-202" type="line"/>
      <point x="258" y="320" type="line"/>
      <point x="-10" y="320" type="line"/>
    </contour>
  </outline>
</glyph>
<glyph name="SF020000" format="1">
  <advance width="448"/>
  <unicode hex="2514"/>
  <outline>
    <contour>
      <point x="190" y="842" type="line"/>
      <point x="190" y="256" type="line"/>
      <point x="458" y="256" type="line"/>
      <point x="458" y="320" type="line"/>
      <point x="258" y="320" type="line"/>
      <point x="258" y="842" type="line"/>
    </contour>
  </outline>
</glyph>
<glyph name="SF080000" format="1">
  <advance width="448"/>
  <unicode hex="251C"/>
  <outline>
    <contour>
      <point x="190" y="-202" type="line"/>
      <point x="258" y="-202" type="line"/>
      <point x="258" y="256" type="line"/>
      <point x="458" y="256" type="line"/>
      <point x="458" y="320" type="line"/>
      <point x="258" y="320" type="line"/>
      <point x="258" y="842" type="line"/>
      <point x="190" y="842" type="line"/>
    </contour>
  </outline>
</glyph>
<glyph name="SF090000" format="1">
  <advance width="448"/>
  <unicode hex="2524"/>
  <outline>
    <contour>
      <point x="190" y="842" type="line"/>
      <point x="190" y="320" type="line"/>
      <point x="-10" y="320" type="line"/>
      <point x="-10" y="256" type="line"/>
      <point x="190" y="256" type="line"/>
      <point x="190" y="-202" type="line"/>
      <point x="258" y="-202" type="line"/>
      <point x="258" y="842" type="line"/>
    </contour>
  </outline>
</glyph>
<glyph name="SF060000" format="1">
  <advance width="448"/>
  <unicode hex="252C"/>
  <outline>
    <contour>
      <point x="258" y="256" type="line"/>
      <point x="458" y="256" type="line"/>
      <point x="458" y="320" type="line"/>
      <point x="-10" y="320" type="line"/>
      <point x="-10" y="256" type="line"/>
      <point x="190" y="256" type="line"/>
      <point x="190" y="-202" type="line"/>
      <point x="258" y="-202" type="line"/>
    </contour>
  </outline>
</glyph>
<glyph name="SF070000" format="1">
  <advance width="448"/>
  <unicode hex="2534"/>
  <outline>
    <contour>
      <point x="190" y="842" type="line"/>
      <point x="190" y="320" type="line"/>
      <point x="-10" y="320" type="line"/>
      <point x="-10" y="256" type="line"/>
      <point x="458" y="256" type="line"/>
      <point x="458" y="320" type="line"/>
      <point x="258" y="320" type="line"/>
      <point x="258" y="842" type="line"/>
    </contour>
  </outline>
</glyph>
<glyph name="SF390000" format="1">
  <advance width="448"/>
  <unicode hex="2554"/>
  <outline>
    <contour>
      <point x="194" y="320" type="line"/>
      <point x="458" y="320" type="line"/>
      <point x="458" y="384" type="line"/>
      <point x="126" y="384" type="line"/>
      <point x="126" y="-202" type="line"/>
      <point x="194" y="-202" type="line"/>
    </contour>
    <contour>
      <point x="322" y="192" type="line"/>
      <point x="458" y="192" type="line"/>
      <point x="458" y="256" type="line"/>
      <point x="254" y="256" type="line"/>
      <point x="254" y="-202" type="line"/>
      <point x="322" y="-202" type="line"/>
    </contour>
  </outline>
</glyph>
<glyph name="SF210000" format="1">
  <advance width="448"/>
  <unicode hex="2556"/>
  <outline>
    <contour>
      <point x="126" y="256" type="line"/>
      <point x="126" y="-202" type="line"/>
      <point x="194" y="-202" type="line"/>
      <point x="194" y="256" type="line"/>
      <point x="254" y="256" type="line"/>
      <point x="254" y="-202" type="line"/>
      <point x="322" y="-202" type="line"/>
      <point x="322" y="320" type="line"/>
      <point x="-10" y="320" type="line"/>
      <point x="-10" y="256" type="line"/>
    </contour>
  </outline>
</glyph>
<glyph name="SF490000" format="1">
  <advance width="448"/>
  <unicode hex="2559"/>
  <outline>
    <contour>
      <point x="126" y="842" type="line"/>
      <point x="126" y="256" type="line"/>
      <point x="458" y="256" type="line"/>
      <point x="458" y="320" type="line"/>
      <point x="322" y="320" type="line"/>
      <point x="322" y="842" type="line"/>
      <point x="254" y="842" type="line"/>
      <point x="254" y="320" type="line"/>
      <point x="194" y="320" type="line"/>
      <point x="194" y="842" type="line"/>
    </contour>
  </outline>
</glyph>
<glyph name="SF380000" format="1">
  <advance width="448"/>
  <unicode hex="255A"/>
  <outline>
    <contour>
      <point x="126" y="192" type="line"/>
      <point x="458" y="192" type="line"/>
      <point x="458" y="256" type="line"/>
      <point x="194" y="256" type="line"/>
      <point x="194" y="842" type="line"/>
      <point x="126" y="842" type="line"/>
    </contour>
    <contour>
      <point x="254" y="842" type="line"/>
      <point x="254" y="320" type="line"/>
      <point x="458" y="320" type="line"/>
      <point x="458" y="384" type="line"/>
      <point x="322" y="384" type="line"/>
      <point x="322" y="842" type="line"/>
    </contour>
  </outline>
</glyph>
<glyph name="SF270000" format="1">
  <advance width="448"/>
  <unicode hex="255C"/>
  <outline>
    <contour>
      <point x="-10" y="256" type="line"/>
      <point x="322" y="256" type="line"/>
      <point x="322" y="842" type="line"/>
      <point x="254" y="842" type="line"/>
      <point x="254" y="320" type="line"/>
      <point x="194" y="320" type="line"/>
      <point x="194" y="842" type="line"/>
      <point x="126" y="842" type="line"/>
      <point x="126" y="320" type="line"/>
      <point x="-10" y="320" type="line"/>
    </contour>
  </outline>
</glyph>
<glyph name="SF370000" format="1">
  <advance width="448"/>
  <unicode hex="255F"/>
  <outline>
    <contour>
      <point x="322" y="256" type="line"/>
      <point x="458" y="256" type="line"/>
      <point x="458" y="320" type="line"/>
      <point x="322" y="320" type="line"/>
      <point x="322" y="842" type="line"/>
      <point x="254" y="842" type="line"/>
      <point x="254" y="-202" type="line"/>
      <point x="322" y="-202" type="line"/>
    </contour>
    <contour>
      <point x="126" y="-202" type="line"/>
      <point x="194" y="-202" type="line"/>
      <point x="194" y="842" type="line"/>
      <point x="126" y="842" type="line"/>
    </contour>
  </outline>
</glyph>
<glyph name="SF200000" format="1">
  <advance width="448"/>
  <unicode hex="2562"/>
  <outline>
    <contour>
      <point x="126" y="842" type="line"/>
      <point x="126" y="320" type="line"/>
      <point x="-10" y="320" type="line"/>
      <point x="-10" y="256" type="line"/>
      <point x="126" y="256" type="line"/>
      <point x="126" y="-202" type="line"/>
      <point x="194" y="-202" type="line"/>
      <point x="194" y="842" type="line"/>
    </contour>
    <contour>
      <point x="254" y="842" type="line"/>
      <point x="254" y="-202" type="line"/>
      <point x="322" y="-202" type="line"/>
      <point x="322" y="842" type="line"/>
    </contour>
  </outline>
</glyph>
<glyph name="SF460000" format="1">
  <advance width="448"/>
  <unicode hex="2568"/>
  <outline>
    <contour>
      <point x="-10" y="256" type="line"/>
      <point x="458" y="256" type="line"/>
      <point x="458" y="320" type="line"/>
      <point x="322" y="320" type="line"/>
      <point x="322" y="842" type="line"/>
      <point x="254" y="842" type="line"/>
      <point x="254" y="320" type="line"/>
      <point x="194" y="320" type="line"/>
      <point x="194" y="842" type="line"/>
      <point x="126" y="842" type="line"/>
      <point x="126" y="320" type="line"/>
      <point x="-10" y="320" type="line"/>
    </contour>
  </outline>
</glyph>
<glyph name="uni256D" format="1">
  <advance width="448"/>
  <unicode hex="256D"/>
  <outline>
    <contour>
      <point x="257" y="-202" type="line"/>
      <point x="258" y="-192" type="line"/>
      <point x="258" y="78"/>
      <point x="315" y="256"/>
      <point x="448" y="256" type="curve"/>
      <point x="458" y="257" type="line"/>
      <point x="458" y="319" type="line"/>
      <point x="448" y="320" type="line"/>
      <point x="364" y="320"/>
      <point x="293" y="269"/>
      <point x="249" y="172" type="curve" smooth="yes"/>
      <point x="209" y="85"/>
      <point x="190" y="-40"/>
      <point x="190" y="-192" type="curve"/>
      <point x="191" y="-202" type="line"/>
    </contour>
  </outline>
</glyph>
<glyph name="uni2572" format="1">
  <advance width="448"/>
  <unicode hex="2572"/>
  <outline>
    <contour>
      <point x="37" y="832" type="line"/>
      <point x="0" y="842" type="line"/>
      <point x="-37" y="832" type="line"/>
      <point x="411" y="-192" type="line"/>
      <point x="448" y="-202" type="line"/>
      <point x="485" y="-192" type="line"/>
    </contour>
  </outline>
</glyph>
<glyph name="uni2573" format="1">
  <advance width="448"/>
  <unicode hex="2573"/>
  <outline>
    <contour>
      <point x="37" y="832" type="line"/>
      <point x="0" y="842" type="line"/>
      <point x="-37" y="832" type="line"/>
      <point x="187" y="320" type="line"/>
      <point x="-37" y="-192" type="line"/>
      <point x="0" y="-202" type="line"/>
      <point x="37" y="-192" type="line"/>
      <point x="224" y="235" type="line"/>
      <point x="411" y="-192" type="line"/>
      <point x="448" y="-202" type="line"/>
      <point x="485" y="-192" type="line"/>
      <point x="261" y="320" type="line"/>
      <point x="485" y="832" type="line"/>
      <point x="448" y="842" type="line"/>
      <point x="411" y="832" type="line"/>
      <point x="224" y="404" type="line"/>
    </contour>
  </outline>
</glyph>
<glyph name="upblock" format="1">
  <advance width="448"/>
  <unicode hex="2580"/>
  <outline>
    <contour>
      <point x="448" y="832" type="line"/>
      <point x="0" y="832" type="line"/>
      <point x="0" y="320" type="line"/>
      <point x="448" y="320" type="line"/>
    </contour>
  </outline>
</glyph>
<glyph name="dnblock" format="1">
  <advance width="448"/>
  <unicode hex="2584"/>
  <outline>
    <contour>
      <point x="448" y="320" type="line"/>
      <point x="0" y="320" type="line"/>
      <point x="0" y="-192" type="line"/>
      <point x="448" y="-192" type="line"/>
    </contour>
  </outline>
</glyph>
<glyph name="block" format="1">
  <advance width="448"/>
  <unicode hex="2588"/>
  <outline>
    <contour>
      <point x="448" y="832" type="line"/>
      <point x="0" y="832" type="line"/>
      <point x="0" y="-192" type="line"/>
      <point x="448" y="-192" type="line"/>
    </contour>
  </outline>
</glyph>
<glyph name="lfblock" format="1">
  <advance width="448"/>
  <unicode hex="258C"/>
  <outline>
    <contour>
      <point x="224" y="832" type="line"/>
      <point x="0" y="832" type="line"/>
      <point x="0" y="-192" type="line"/>
      <point x="224" y="-192" type="line"/>
    </contour>
  </outline>
</glyph>
<glyph name="H22073" format="1">
  <advance width="448"/>
  <unicode hex="25A1"/>
  <outline>
    <contour>
      <point x="62" y="384" type="line"/>
      <point x="62" y="64" type="line"/>
      <point x="386" y="64" type="line"/>
      <point x="386" y="384" type="line"/>
    </contour>
    <contour>
      <point x="130" y="320" type="line"/>
      <point x="318" y="320" type="line"/>
      <point x="318" y="128" type="line"/>
      <point x="130" y="128" type="line"/>
    </contour>
  </outline>
</glyph>
<glyph name="H18543" format="1">
  <advance width="448"/>
  <unicode hex="25AA"/>
  <outline>
    <contour>
      <point x="128" y="128" type="line"/>
      <point x="320" y="128" type="line"/>
      <point x="320" y="320" type="line"/>
      <point x="128" y="320" type="line"/>
    </contour>
  </outline>
</glyph>
<glyph name="filledrect" format="1">
  <advance width="448"/>
  <unicode hex="25AC"/>
  <outline>
    <contour>
      <point x="16" y="320" type="line"/>
      <point x="16" y="128" type="line"/>
      <point x="432" y="128" type="line"/>
      <point x="432" y="320" type="line"/>
    </contour>
  </outline>
</glyph>
<glyph name="triagup" format="1">
  <advance width="448"/>
  <unicode hex="25B2"/>
  <outline>
    <contour>
      <point x="246" y="432" type="line"/>
      <point x="202" y="432" type="line"/>
      <point x="64" y="104" type="line"/>
      <point x="64" y="64" type="line"/>
      <point x="384" y="64" type="line"/>
      <point x="384" y="104" type="line"/>
    </contour>
  </outline>
</glyph>
<glyph name="triagrt" format="1">
  <advance width="448"/>
  <unicode hex="25BA"/>
  <outline>
    <contour>
      <point x="104" y="384" type="line"/>
      <point x="64" y="384" type="line"/>
      <point x="64" y="64" type="line"/>
      <point x="104" y="64" type="line"/>
      <point x="432" y="202" type="line"/>
      <point x="432" y="246" type="line"/>
    </contour>
  </outline>
</glyph>
<glyph name="sun" format="1">
  <advance width="448"/>
  <unicode hex="263C"/>
  <outline>
    <contour>
      <point x="194" y="440" type="line"/>
      <point x="254" y="440" type="line"/>
      <point x="254" y="524" type="line"/>
      <point x="194" y="524" type="line"/>
    </contour>
    <contour>
      <point x="194" y="-76" type="line"/>
      <point x="254" y="-76" type="line"/>
      <point x="254" y="8" type="line"/>
      <point x="194" y="8" type="line"/>
    </contour>
    <contour>
      <point x="440" y="254" type="line"/>
      <point x="440" y="194" type="line"/>
      <point x="524" y="194" type="line"/>
      <point x="524" y="254" type="line"/>
    </contour>
    <contour>
      <point x="-76" y="254" type="line"/>
      <point x="-76" y="194" type="line"/>
      <point x="8" y="194" type="line"/>
      <point x="8" y="254" type="line"/>
    </contour>
    <contour>
      <point x="356" y="398" type="line"/>
      <point x="398" y="356" type="line"/>
      <point x="457" y="415" type="line"/>
      <point x="415" y="457" type="line"/>
    </contour>
    <contour>
      <point x="-9" y="33" type="line"/>
      <point x="33" y="-9" type="line"/>
      <point x="92" y="50" type="line"/>
      <point x="50" y="92" type="line"/>
    </contour>
    <contour>
      <point x="50" y="356" type="line"/>
      <point x="92" y="398" type="line"/>
      <point x="33" y="457" type="line"/>
      <point x="-9" y="415" type="line"/>
    </contour>
    <contour>
      <point x="415" y="-9" type="line"/>
      <point x="457" y="33" type="line"/>
      <point x="398" y="92" type="line"/>
      <point x="356" y="50" type="line"/>
    </contour>
    <component base="circle"/>
  </outline>
</glyph>
<glyph name="male" format="1">
  <advance width="448"/>
  <unicode hex="2642"/>
  <outline>
    <contour>
      <point x="312" y="448" type="line"/>
      <point x="454" y="454" type="line"/>
      <point x="448" y="312" type="line"/>
      <point x="512" y="312" type="line"/>
      <point x="512" y="512" type="line"/>
      <point x="312" y="512" type="line"/>
    </contour>
    <contour>
      <point x="360" y="315" type="line"/>
      <point x="500" y="455" type="line"/>
      <point x="455" y="500" type="line"/>
      <point x="315" y="360" type="line"/>
    </contour>
    <component base="circle"/>
  </outline>
</glyph>
<glyph name="uni2661" format="1">
  <advance width="448"/>
  <unicode hex="2661"/>
  <outline>
    <contour>
      <point x="114" y="544" type="curve" smooth="yes"/>
      <point x="175.479452055" y="544.0"/>
      <point x="237.005370629" y="486.932247451"/>
      <point x="250" y="323" type="curve"/>
      <point x="198" y="323" type="line"/>
      <point x="211.993280485" y="488.92032575"/>
      <point x="264.929577465" y="544.0"/>
      <point x="330" y="544" type="curve" smooth="yes"/>
      <point x="405" y="544"/>
      <point x="454" y="481"/>
      <point x="454" y="380" type="curve" smooth="yes"/>
      <point x="454" y="249"/>
      <point x="343" y="181"/>
      <point x="252" y="45" type="curve" smooth="yes"/>
      <point x="241" y="29" type="line"/>
      <point x="207" y="29" type="line"/>
      <point x="196" y="45" type="line" smooth="yes"/>
      <point x="105" y="181"/>
      <point x="-4" y="249"/>
      <point x="-4" y="380" type="curve" smooth="yes"/>
      <point x="-4" y="484"/>
      <point x="43" y="544"/>
    </contour>
    <contour>
      <point x="114" y="480" type="curve" smooth="yes"/>
      <point x="71" y="480"/>
      <point x="68" y="420"/>
      <point x="68" y="384" type="curve" smooth="yes"/>
      <point x="68" y="263"/>
      <point x="172" y="201"/>
      <point x="242" y="83" type="curve"/>
      <point x="206" y="83" type="line"/>
      <point x="276" y="201"/>
      <point x="382" y="263"/>
      <point x="382" y="384" type="curve" smooth="yes"/>
      <point x="382" y="423"/>
      <point x="375" y="480"/>
      <point x="330" y="480" type="curve" smooth="yes"/>
      <point x="272.857142857" y="480.0"/>
      <point x="258.187783951" y="398.877839506"/>
      <point x="250" y="317" type="curve" smooth="yes"/>
      <point x="248" y="297" type="line"/>
      <point x="200" y="297" type="line"/>
      <point x="198" y="317" type="line" smooth="yes"/>
      <point x="189.604375222" y="400.956247782"/>
      <point x="168.486486486" y="480.0"/>
    </contour>
  </outline>
</glyph>
<glyph name="diamond" format="1">
  <advance width="448"/>
  <unicode hex="2666"/>
  <outline>
    <contour>
      <point x="64" y="252" type="line"/>
      <point x="202" y="80" type="line"/>
      <point x="246" y="80" type="line"/>
      <point x="384" y="252" type="line"/>
      <point x="384" y="284" type="line"/>
      <point x="246" y="456" type="line"/>
      <point x="202" y="456" type="line"/>
      <point x="64" y="284" type="line"/>
    </contour>
  </outline>
</glyph>
<glyph name="musicalnotedbl" format="1">
  <advance width="448"/>
  <unicode hex="266B"/>
  <outline>
    <contour>
      <point x="144" y="552" type="line"/>
      <point x="128" y="530" type="line"/>
      <point x="128" y="182" type="line"/>
      <point x="50" y="182"/>
      <point x="-8" y="134"/>
      <point x="-8" y="72" type="curve" smooth="yes"/>
      <point x="-8" y="29"/>
      <point x="20" y="-4"/>
      <point x="69" y="-4" type="curve" smooth="yes"/>
      <point x="138" y="-4"/>
      <point x="192" y="56"/>
      <point x="192" y="118" type="curve" smooth="yes"/>
      <point x="192" y="445" type="line"/>
      <point x="384" y="507" type="line"/>
      <point x="384" y="246" type="line"/>
      <point x="306" y="246"/>
      <point x="248" y="198"/>
      <point x="248" y="136" type="curve" smooth="yes"/>
      <point x="248" y="93"/>
      <point x="276" y="60"/>
      <point x="325" y="60" type="curve" smooth="yes"/>
      <point x="394" y="60"/>
      <point x="448" y="120"/>
      <point x="448" y="182" type="curve" smooth="yes"/>
      <point x="448" y="626" type="line"/>
      <point x="427" y="641" type="line"/>
    </contour>
  </outline>
</glyph>
<glyph name="uni26ED" format="1">
  <advance width="448"/>
  <unicode hex="26ED"/>
  <outline>
    <contour>
      <point x="224" y="183" type="curve" smooth="yes"/>
      <point x="166.0" y="183.0"/>
      <point x="119.0" y="230.201834862"/>
      <point x="119" y="288" type="curve" smooth="yes"/>
      <point x="119.0" y="346.0"/>
      <point x="166.201834862" y="393.0"/>
      <point x="224" y="393" type="curve" smooth="yes"/>
      <point x="281.798165138" y="393.0"/>
      <point x="329.0" y="346.0"/>
      <point x="329" y="288" type="curve" smooth="yes"/>
      <point x="329.0" y="230.201834862"/>
      <point x="282.0" y="183.0"/>
    </contour>
    <contour>
      <point x="224" y="119" type="curve" smooth="yes"/>
      <point x="316.803468208" y="119.0"/>
      <point x="393.0" y="195.0"/>
      <point x="393" y="288" type="curve" smooth="yes"/>
      <point x="393.0" y="381.0"/>
      <point x="316.803468208" y="457.0"/>
      <point x="224" y="457" type="curve" smooth="yes"/>
      <point x="131.196531792" y="457.0"/>
      <point x="55.0" y="381.0"/>
      <point x="55" y="288" type="curve" smooth="yes"/>
      <point x="55.0" y="195.0"/>
      <point x="131.196531792" y="119.0"/>
    </contour>
    <component base="geartooth" xScale="0.0" xyScale="1.0" yxScale="-1.0" yScale="0.0" xOffset="512" yOffset="64"/>
    <component base="geartooth" xScale="0.866025403784" xyScale="-0.5" yxScale="0.5" yScale="0.866025403784" xOffset="-114" yOffset="151"/>
    <component base="geartooth" xScale="0.866025403784" xyScale="0.5" yxScale="-0.5" yScale="0.866025403784" xOffset="174" yOffset="-73"/>
    <component base="geartooth" xScale="0.5" xyScale="-0.866025403784" yxScale="0.866025403784" yScale="0.5" xOffset="-137" yOffset="338"/>
    <component base="geartooth" xScale="0.5" xyScale="0.866025403784" yxScale="-0.866025403784" yScale="0.5" xOffset="361" yOffset="-50"/>
    <component base="geartooth"/>
  </outline>
</glyph>
<glyph name="uni2713" format="1">
  <advance width="448"/>
  <unicode hex="2713"/>
  <outline>
    <contour>
      <point x="138" y="64" type="line"/>
      <point x="180" y="64" type="line"/>
      <point x="181" y="110" type="line"/>
      <point x="24" y="395" type="line"/>
      <point x="-28" y="367" type="line"/>
    </contour>
    <contour>
      <point x="137" y="109" type="line"/>
      <point x="140" y="64" type="line"/>
      <point x="182" y="64" type="line"/>
      <point x="475" y="623" type="line"/>
      <point x="420" y="651" type="line"/>
    </contour>
  </outline>
</glyph>
<glyph name="uni2717" format="1">
  <advance width="448"/>
  <unicode hex="2717"/>
  <outline>
    <contour>
      <point x="224" y="311" type="line"/>
      <point x="402" y="133" type="line"/>
      <point x="443" y="174" type="line"/>
      <point x="265" y="352" type="line"/>
      <point x="443" y="530" type="line"/>
      <point x="402" y="571" type="line"/>
      <point x="224" y="393" type="line"/>
      <point x="46" y="571" type="line"/>
      <point x="5" y="530" type="line"/>
      <point x="183" y="352" type="line"/>
      <point x="5" y="174" type="line"/>
      <point x="46" y="133" type="line"/>
    </contour>
  </outline>
</glyph>
<glyph name="uniEC00" format="1">
  <advance width="448"/>
  <unicode hex="EC00"/>
  <outline>
    <contour>
      <point x="222" y="192" type="line"/>
      <point x="113" y="98" type="line"/>
      <point x="151" y="54" type="line"/>
      <point x="330" y="202" type="line"/>
      <point x="330" y="246" type="line"/>
      <point x="151" y="394" type="line"/>
      <point x="113" y="350" type="line"/>
      <point x="222" y="256" type="line"/>
      <point x="0" y="256" type="line"/>
      <point x="0" y="192" type="line"/>
    </contour>
    <contour>
      <point x="380" y="64" type="line"/>
      <point x="310" y="64" type="line"/>
      <point x="310" y="0" type="line"/>
      <point x="452" y="0" type="line"/>
      <point x="452" y="448" type="line"/>
      <point x="310" y="448" type="line"/>
      <point x="310" y="384" type="line"/>
      <point x="380" y="384" type="line"/>
    </contour>
  </outline>
</glyph>
<glyph name="uniEC01" format="1">
  <advance width="448"/>
  <unicode hex="EC01"/>
  <outline>
    <contour>
      <point x="68" y="64" type="line"/>
      <point x="68" y="384" type="line"/>
      <point x="138" y="384" type="line"/>
      <point x="138" y="448" type="line"/>
      <point x="-4" y="448" type="line"/>
      <point x="-4" y="0" type="line"/>
      <point x="138" y="0" type="line"/>
      <point x="138" y="64" type="line"/>
    </contour>
    <contour>
      <point x="340" y="192" type="line"/>
      <point x="231" y="98" type="line"/>
      <point x="269" y="54" type="line"/>
      <point x="448" y="202" type="line"/>
      <point x="448" y="246" type="line"/>
      <point x="269" y="394" type="line"/>
      <point x="231" y="350" type="line"/>
      <point x="340" y="256" type="line"/>
      <point x="118" y="256" type="line"/>
      <point x="118" y="192" type="line"/>
    </contour>
  </outline>
</glyph>
<glyph name="uniEC03" format="1">
  <advance width="448"/>
  <unicode hex="EC03"/>
  <outline>
    <contour>
      <point x="192" y="226" type="line"/>
      <point x="98" y="335" type="line"/>
      <point x="54" y="297" type="line"/>
      <point x="202" y="118" type="line"/>
      <point x="246" y="118" type="line"/>
      <point x="394" y="297" type="line"/>
      <point x="350" y="335" type="line"/>
      <point x="256" y="226" type="line"/>
      <point x="256" y="512" type="line"/>
      <point x="192" y="512" type="line"/>
    </contour>
    <contour>
      <point x="380" y="64" type="line"/>
      <point x="68" y="64" type="line"/>
      <point x="68" y="138" type="line"/>
      <point x="-4" y="138" type="line"/>
      <point x="-4" y="0" type="line"/>
      <point x="452" y="0" type="line"/>
      <point x="452" y="138" type="line"/>
      <point x="380" y="138" type="line"/>
    </contour>
  </outline>
</glyph>
